ISO-10303-21;
HEADER;
FILE_DESCRIPTION (( 'STEP AP214' ),
    '1' );
FILE_NAME ('Bladder_Mold_Top.STEP',
    '2025-10-13T15:17:38',
    ( '' ),
    ( '' ),
    'SwSTEP 2.0',
    'SolidWorks 2025',
    '' );
FILE_SCHEMA (( 'AUTOMOTIVE_DESIGN' ));
ENDSEC;

DATA;
#1 = DIRECTION ( 'NONE',  ( 0.000000000000000000, 0.000000000000000000, -1.000000000000000000 ) ) ;
#2 = VECTOR ( 'NONE', #590, 1000.000000000000000 ) ;
#3 = DIRECTION ( 'NONE',  ( 0.000000000000000000, -1.000000000000000000, 0.000000000000000000 ) ) ;
#4 = ORIENTED_EDGE ( 'NONE', *, *, #405, .F. ) ;
#5 = VERTEX_POINT ( 'NONE', #402 ) ;
#6 = FACE_OUTER_BOUND ( 'NONE', #200, .T. ) ;
#7 = ORIENTED_EDGE ( 'NONE', *, *, #452, .T. ) ;
#8 = ORIENTED_EDGE ( 'NONE', *, *, #481, .T. ) ;
#9 = VECTOR ( 'NONE', #479, 1000.000000000000000 ) ;
#10 = CARTESIAN_POINT ( 'NONE',  ( 30.00000000000000000, 0.000000000000000000, -0.9999999999999995559 ) ) ;
#11 = EDGE_CURVE ( 'NONE', #517, #422, #345, .T. ) ;
#12 = COLOUR_RGB ( '',0.7921568627450980005, 0.8196078431372548767, 0.9333333333333333481 ) ;
#13 = ORIENTED_EDGE ( 'NONE', *, *, #329, .F. ) ;
#14 = DIRECTION ( 'NONE',  ( 0.000000000000000000, 0.000000000000000000, -1.000000000000000000 ) ) ;
#15 = ORIENTED_EDGE ( 'NONE', *, *, #325, .F. ) ;
#16 = DIRECTION ( 'NONE',  ( 0.000000000000000000, 0.000000000000000000, -1.000000000000000000 ) ) ;
#17 = EDGE_CURVE ( 'NONE', #103, #60, #216, .T. ) ;
#18 = DIRECTION ( 'NONE',  ( 0.000000000000000000, 0.000000000000000000, 1.000000000000000000 ) ) ;
#19 = CARTESIAN_POINT ( 'NONE',  ( 0.000000000000000000, 169.0000000000000000, 0.000000000000000000 ) ) ;
#20 = CLOSED_SHELL ( 'NONE', ( #260, #408, #293, #370, #183, #391, #300, #540, #460, #337, #413, #456, #74, #501, #281, #203, #88, #85 ) ) ;
#21 = DIRECTION ( 'NONE',  ( 0.000000000000000000, 0.000000000000000000, -1.000000000000000000 ) ) ;
#22 = FACE_OUTER_BOUND ( 'NONE', #334, .T. ) ;
#23 = CARTESIAN_POINT ( 'NONE',  ( 6.749999999999999112, 170.0000000000000284, -3.499999999999999112 ) ) ;
#24 = EDGE_CURVE ( 'NONE', #100, #63, #543, .T. ) ;
#25 = AXIS2_PLACEMENT_3D ( 'NONE', #242, #339, #271 ) ;
#26 = AXIS2_PLACEMENT_3D ( 'NONE', #404, #267, #588 ) ;
#27 = CARTESIAN_POINT ( 'NONE',  ( 30.00000000000000000, 169.0000000000000000, -0.9999999999999995559 ) ) ;
#28 = PRODUCT_DEFINITION ( 'UNKNOWN', '', #286, #333 ) ;
#29 = EDGE_LOOP ( 'NONE', ( #327, #124, #230, #71 ) ) ;
#30 = CARTESIAN_POINT ( 'NONE',  ( 3.000000000000000000, 169.0000250000000221, -7.000000000000000000 ) ) ;
#31 = EDGE_CURVE ( 'NONE', #50, #336, #78, .T. ) ;
#32 = DIRECTION ( 'NONE',  ( 0.000000000000000000, 0.000000000000000000, -1.000000000000000000 ) ) ;
#33 = AXIS2_PLACEMENT_3D ( 'NONE', #275, #56, #326 ) ;
#34 = VECTOR ( 'NONE', #123, 1000.000000000000000 ) ;
#35 = DIRECTION ( 'NONE',  ( 0.000000000000000000, -1.000000000000000000, 0.000000000000000000 ) ) ;
#36 = DIRECTION ( 'NONE',  ( 0.000000000000000000, -1.000000000000000000, 0.000000000000000000 ) ) ;
#37 = DIRECTION ( 'NONE',  ( -0.000000000000000000, -0.000000000000000000, 1.000000000000000000 ) ) ;
#38 = EDGE_CURVE ( 'NONE', #196, #277, #82, .T. ) ;
#39 = CARTESIAN_POINT ( 'NONE',  ( 3.000000000000000000, 169.0000000000000000, -7.000000000000000000 ) ) ;
#40 = CYLINDRICAL_SURFACE ( 'NONE', #315, 1.100000000000000311 ) ;
#41 = VERTEX_POINT ( 'NONE', #443 ) ;
#42 = FACE_OUTER_BOUND ( 'NONE', #469, .T. ) ;
#43 = AXIS2_PLACEMENT_3D ( 'NONE', #164, #389, #115 ) ;
#44 = DIRECTION ( 'NONE',  ( -0.000000000000000000, -1.000000000000000000, -0.000000000000000000 ) ) ;
#45 = ORIENTED_EDGE ( 'NONE', *, *, #156, .F. ) ;
#46 = EDGE_CURVE ( 'NONE', #587, #238, #173, .T. ) ;
#47 = PLANE ( 'NONE',  #33 ) ;
#48 = VERTEX_POINT ( 'NONE', #39 ) ;
#49 = EDGE_CURVE ( 'NONE', #41, #48, #487, .T. ) ;
#50 = VERTEX_POINT ( 'NONE', #257 ) ;
#51 = CARTESIAN_POINT ( 'NONE',  ( 24.35000000000000497, 170.0000000000000284, -6.999999999999999112 ) ) ;
#52 = ORIENTED_EDGE ( 'NONE', *, *, #449, .F. ) ;
#53 = UNCERTAINTY_MEASURE_WITH_UNIT (LENGTH_MEASURE( 1.000000000000000082E-05 ), #444, 'distance_accuracy_value', 'NONE');
#54 = ORIENTED_EDGE ( 'NONE', *, *, #514, .F. ) ;
#55 = CIRCLE ( 'NONE', #208, 1.000000000000000000 ) ;
#56 = DIRECTION ( 'NONE',  ( 1.000000000000000000, -0.000000000000000000, 0.000000000000000000 ) ) ;
#57 = EDGE_LOOP ( 'NONE', ( #168, #8, #155, #212 ) ) ;
#58 = VECTOR ( 'NONE', #313, 1000.000000000000000 ) ;
#59 = APPLICATION_CONTEXT ( 'automotive_design' ) ;
#60 = VERTEX_POINT ( 'NONE', #541 ) ;
#61 = EDGE_CURVE ( 'NONE', #517, #103, #584, .T. ) ;
#62 = DIRECTION ( 'NONE',  ( -1.445602896647338424E-16, 0.000000000000000000, 1.000000000000000000 ) ) ;
#63 = VERTEX_POINT ( 'NONE', #120 ) ;
#64 = ORIENTED_EDGE ( 'NONE', *, *, #566, .T. ) ;
#65 = DIRECTION ( 'NONE',  ( 1.000000000000000000, 0.000000000000000000, -0.000000000000000000 ) ) ;
#66 = LINE ( 'NONE', #294, #263 ) ;
#67 = AXIS2_PLACEMENT_3D ( 'NONE', #409, #35, #1 ) ;
#68 = LINE ( 'NONE', #461, #119 ) ;
#69 = LINE ( 'NONE', #386, #482 ) ;
#70 = CARTESIAN_POINT ( 'NONE',  ( 24.35000000000000142, 170.0000000000000284, -4.599999999999998757 ) ) ;
#71 = ORIENTED_EDGE ( 'NONE', *, *, #96, .T. ) ;
#72 = FACE_OUTER_BOUND ( 'NONE', #332, .T. ) ;
#73 = PRESENTATION_LAYER_ASSIGNMENT (  '', '', ( #411 ) ) ;
#74 = ADVANCED_FACE ( 'NONE', ( #265 ), #535, .F. ) ;
#75 = CARTESIAN_POINT ( 'NONE',  ( 30.00000000000000000, 169.0000000000000284, -3.999999999999999112 ) ) ;
#76 = LINE ( 'NONE', #251, #201 ) ;
#77 = EDGE_CURVE ( 'NONE', #50, #426, #359, .T. ) ;
#78 = LINE ( 'NONE', #122, #544 ) ;
#79 = LINE ( 'NONE', #266, #374 ) ;
#80 = ORIENTED_EDGE ( 'NONE', *, *, #31, .F. ) ;
#81 = CARTESIAN_POINT ( 'NONE',  ( 2.999999999999999556, 0.000000000000000000, -3.999999999999998224 ) ) ;
#82 = CIRCLE ( 'NONE', #392, 1.100000000000000311 ) ;
#83 = FACE_OUTER_BOUND ( 'NONE', #244, .T. ) ;
#84 = DIRECTION ( 'NONE',  ( 0.000000000000000000, 0.000000000000000000, -1.000000000000000000 ) ) ;
#85 = ADVANCED_FACE ( 'NONE', ( #83 ), #316, .T. ) ;
#86 = DIRECTION ( 'NONE',  ( -0.000000000000000000, -1.000000000000000000, -0.000000000000000000 ) ) ;
#87 = CARTESIAN_POINT ( 'NONE',  ( 23.25000000000000000, 170.0000000000000284, -3.499999999999999112 ) ) ;
#88 = ADVANCED_FACE ( 'NONE', ( #445 ), #499, .T. ) ;
#89 = PLANE ( 'NONE',  #25 ) ;
#90 = PRESENTATION_STYLE_ASSIGNMENT (( #503 ) ) ;
#91 = ORIENTED_EDGE ( 'NONE', *, *, #31, .T. ) ;
#92 = VECTOR ( 'NONE', #522, 1000.000000000000000 ) ;
#93 = LINE ( 'NONE', #184, #153 ) ;
#94 = LINE ( 'NONE', #51, #314 ) ;
#95 = ORIENTED_EDGE ( 'NONE', *, *, #434, .F. ) ;
#96 = EDGE_CURVE ( 'NONE', #142, #283, #350, .T. ) ;
#97 = VERTEX_POINT ( 'NONE', #134 ) ;
#98 = DIRECTION ( 'NONE',  ( -0.000000000000000000, -1.000000000000000000, -0.000000000000000000 ) ) ;
#99 = ORIENTED_EDGE ( 'NONE', *, *, #481, .F. ) ;
#100 = VERTEX_POINT ( 'NONE', #179 ) ;
#101 = FACE_OUTER_BOUND ( 'NONE', #57, .T. ) ;
#102 = ORIENTED_EDGE ( 'NONE', *, *, #309, .F. ) ;
#103 = VERTEX_POINT ( 'NONE', #457 ) ;
#104 = VECTOR ( 'NONE', #427, 1000.000000000000000 ) ;
#105 = DIRECTION ( 'NONE',  ( 0.000000000000000000, 0.000000000000000000, -1.000000000000000000 ) ) ;
#106 = ORIENTED_EDGE ( 'NONE', *, *, #362, .F. ) ;
#107 = ORIENTED_EDGE ( 'NONE', *, *, #116, .T. ) ;
#108 = CARTESIAN_POINT ( 'NONE',  ( 27.00000000000000000, 169.0000250000000221, -3.999999999999998224 ) ) ;
#109 = ORIENTED_EDGE ( 'NONE', *, *, #491, .T. ) ;
#110 = LINE ( 'NONE', #70, #458 ) ;
#111 = FACE_OUTER_BOUND ( 'NONE', #471, .T. ) ;
#112 = PLANE ( 'NONE',  #420 ) ;
#113 = VECTOR ( 'NONE', #125, 1000.000000000000000 ) ;
#114 = DIRECTION ( 'NONE',  ( 0.000000000000000000, -1.000000000000000000, 0.000000000000000000 ) ) ;
#115 = DIRECTION ( 'NONE',  ( 0.000000000000000000, 0.000000000000000000, -1.000000000000000000 ) ) ;
#116 = EDGE_CURVE ( 'NONE', #227, #238, #68, .T. ) ;
#117 = CARTESIAN_POINT ( 'NONE',  ( 2.999999999999999556, 169.0000250000000221, -3.999999999999998224 ) ) ;
#118 = DIRECTION ( 'NONE',  ( 0.000000000000000000, 0.000000000000000000, -1.000000000000000000 ) ) ;
#119 = VECTOR ( 'NONE', #245, 1000.000000000000000 ) ;
#120 = CARTESIAN_POINT ( 'NONE',  ( 3.000000000000000000, 0.000000000000000000, -7.000000000000000000 ) ) ;
#121 = CARTESIAN_POINT ( 'NONE',  ( 3.673940397442059868E-16, 169.0000000000000284, -3.999999999999999112 ) ) ;
#122 = CARTESIAN_POINT ( 'NONE',  ( 27.00000000000000000, 169.0000250000000221, -6.999999999999999112 ) ) ;
#123 = DIRECTION ( 'NONE',  ( -0.000000000000000000, 1.000000000000000000, -0.000000000000000000 ) ) ;
#124 = ORIENTED_EDGE ( 'NONE', *, *, #159, .F. ) ;
#125 = DIRECTION ( 'NONE',  ( -0.000000000000000000, 1.000000000000000000, -0.000000000000000000 ) ) ;
#126 = VECTOR ( 'NONE', #152, 1000.000000000000000 ) ;
#127 = VECTOR ( 'NONE', #224, 1000.000000000000000 ) ;
#128 = DIRECTION ( 'NONE',  ( -1.000000000000000000, -0.000000000000000000, -0.000000000000000000 ) ) ;
#129 = LINE ( 'NONE', #547, #234 ) ;
#130 = DIRECTION ( 'NONE',  ( 0.000000000000000000, 0.000000000000000000, 1.000000000000000000 ) ) ;
#131 = DIRECTION ( 'NONE',  ( -1.000000000000000000, 0.000000000000000000, -0.000000000000000000 ) ) ;
#132 = EDGE_CURVE ( 'NONE', #508, #467, #55, .T. ) ;
#133 = ORIENTED_EDGE ( 'NONE', *, *, #46, .T. ) ;
#134 = CARTESIAN_POINT ( 'NONE',  ( 24.35000000000000142, 0.000000000000000000, -4.599999999999998757 ) ) ;
#135 = LINE ( 'NONE', #505, #127 ) ;
#136 = FACE_OUTER_BOUND ( 'NONE', #550, .T. ) ;
#137 = EDGE_CURVE ( 'NONE', #328, #186, #249, .T. ) ;
#138 = ORIENTED_EDGE ( 'NONE', *, *, #325, .T. ) ;
#139 = AXIS2_PLACEMENT_3D ( 'NONE', #520, #140, #376 ) ;
#140 = DIRECTION ( 'NONE',  ( -0.000000000000000000, -1.000000000000000000, -0.000000000000000000 ) ) ;
#141 = ORIENTED_EDGE ( 'NONE', *, *, #578, .F. ) ;
#142 = VERTEX_POINT ( 'NONE', #382 ) ;
#143 = LINE ( 'NONE', #421, #274 ) ;
#144 = EDGE_LOOP ( 'NONE', ( #377, #516, #4, #323 ) ) ;
#145 = ORIENTED_EDGE ( 'NONE', *, *, #434, .T. ) ;
#146 = PLANE ( 'NONE',  #189 ) ;
#147 = EDGE_LOOP ( 'NONE', ( #182, #512, #559, #133 ) ) ;
#148 = UNCERTAINTY_MEASURE_WITH_UNIT (LENGTH_MEASURE( 1.000000000000000082E-05 ), #366, 'distance_accuracy_value', 'NONE');
#149 = EDGE_LOOP ( 'NONE', ( #7, #138, #188, #95 ) ) ;
#150 = CARTESIAN_POINT ( 'NONE',  ( 3.673940397442059868E-16, 169.0000000000000284, -3.999999999999999112 ) ) ;
#151 = AXIS2_PLACEMENT_3D ( 'NONE', #363, #526, #130 ) ;
#152 = DIRECTION ( 'NONE',  ( 0.000000000000000000, -1.000000000000000000, 0.000000000000000000 ) ) ;
#153 = VECTOR ( 'NONE', #44, 1000.000000000000000 ) ;
#154 = CARTESIAN_POINT ( 'NONE',  ( 30.00000000000000000, 169.0000000000000000, 0.000000000000000000 ) ) ;
#155 = ORIENTED_EDGE ( 'NONE', *, *, #61, .T. ) ;
#156 = EDGE_CURVE ( 'NONE', #422, #508, #571, .T. ) ;
#157 = LINE ( 'NONE', #150, #437 ) ;
#158 = DIRECTION ( 'NONE',  ( -1.000000000000000000, 0.000000000000000000, 0.000000000000000000 ) ) ;
#159 = EDGE_CURVE ( 'NONE', #5, #241, #157, .T. ) ;
#160 = APPLICATION_CONTEXT ( 'automotive_design' ) ;
#161 = DIRECTION ( 'NONE',  ( 0.000000000000000000, 0.000000000000000000, 1.000000000000000000 ) ) ;
#162 = CIRCLE ( 'NONE', #151, 1.100000000000000311 ) ;
#163 = VECTOR ( 'NONE', #269, 1000.000000000000000 ) ;
#164 = CARTESIAN_POINT ( 'NONE',  ( 28.99999999999999645, 169.0000000000000000, -1.000000000000000000 ) ) ;
#165 =( NAMED_UNIT ( * ) PLANE_ANGLE_UNIT ( ) SI_UNIT ( $, .RADIAN. ) );
#166 = ORIENTED_EDGE ( 'NONE', *, *, #174, .T. ) ;
#167 = CARTESIAN_POINT ( 'NONE',  ( 24.35000000000000142, 169.0000000000000000, 0.000000000000000000 ) ) ;
#168 = ORIENTED_EDGE ( 'NONE', *, *, #197, .F. ) ;
#169 = LINE ( 'NONE', #81, #438 ) ;
#170 = AXIS2_PLACEMENT_3D ( 'NONE', #287, #462, #239 ) ;
#171 = CARTESIAN_POINT ( 'NONE',  ( 28.99999999999999645, 169.0000000000000000, -1.000000000000000000 ) ) ;
#172 =( NAMED_UNIT ( * ) PLANE_ANGLE_UNIT ( ) SI_UNIT ( $, .RADIAN. ) );
#173 = LINE ( 'NONE', #75, #418 ) ;
#174 = EDGE_CURVE ( 'NONE', #97, #186, #162, .T. ) ;
#175 = CARTESIAN_POINT ( 'NONE',  ( 0.000000000000000000, 0.000000000000000000, 0.000000000000000000 ) ) ;
#176 = CARTESIAN_POINT ( 'NONE',  ( 1.000000000000000000, 0.000000000000000000, 0.000000000000000000 ) ) ;
#177 = AXIS2_PLACEMENT_3D ( 'NONE', #488, #342, #435 ) ;
#178 = VECTOR ( 'NONE', #447, 1000.000000000000000 ) ;
#179 = CARTESIAN_POINT ( 'NONE',  ( 5.649999999999998579, 1.387778780781445676E-14, -7.000000000000000000 ) ) ;
#180 = LINE ( 'NONE', #364, #113 ) ;
#181 = PRODUCT_CONTEXT ( 'NONE', #59, 'mechanical' ) ;
#182 = ORIENTED_EDGE ( 'NONE', *, *, #358, .F. ) ;
#183 = ADVANCED_FACE ( 'NONE', ( #111 ), #89, .F. ) ;
#184 = CARTESIAN_POINT ( 'NONE',  ( 5.650000000000000355, 170.0000000000000284, -7.000000000000000000 ) ) ;
#185 = APPLICATION_PROTOCOL_DEFINITION ( 'draft international standard', 'automotive_design', 1998, #160 ) ;
#186 = VERTEX_POINT ( 'NONE', #318 ) ;
#187 = LINE ( 'NONE', #564, #496 ) ;
#188 = ORIENTED_EDGE ( 'NONE', *, *, #560, .T. ) ;
#189 = AXIS2_PLACEMENT_3D ( 'NONE', #515, #204, #21 ) ;
#190 = ORIENTED_EDGE ( 'NONE', *, *, #491, .F. ) ;
#191 = CARTESIAN_POINT ( 'NONE',  ( 5.649999999999998579, 169.0000000000000000, -4.599999999999998757 ) ) ;
#192 = ORIENTED_EDGE ( 'NONE', *, *, #254, .F. ) ;
#193 = ORIENTED_EDGE ( 'NONE', *, *, #132, .T. ) ;
#194 = DIRECTION ( 'NONE',  ( 1.000000000000000000, 0.000000000000000000, 0.000000000000000000 ) ) ;
#195 = ORIENTED_EDGE ( 'NONE', *, *, #231, .F. ) ;
#196 = VERTEX_POINT ( 'NONE', #502 ) ;
#197 = EDGE_CURVE ( 'NONE', #467, #60, #519, .T. ) ;
#198 = DIRECTION ( 'NONE',  ( 1.000000000000000000, 0.000000000000000000, 0.000000000000000000 ) ) ;
#199 = CARTESIAN_POINT ( 'NONE',  ( 30.00000000000000000, 169.0000000000000000, -1.000000000000000000 ) ) ;
#200 = EDGE_LOOP ( 'NONE', ( #288, #439, #80, #52 ) ) ;
#201 = VECTOR ( 'NONE', #302, 1000.000000000000000 ) ;
#202 = DIRECTION ( 'NONE',  ( 0.000000000000000000, -1.000000000000000000, 0.000000000000000000 ) ) ;
#203 = ADVANCED_FACE ( 'NONE', ( #42 ), #335, .F. ) ;
#204 = DIRECTION ( 'NONE',  ( 1.000000000000000000, 0.000000000000000000, 0.000000000000000000 ) ) ;
#205 = ORIENTED_EDGE ( 'NONE', *, *, #49, .F. ) ;
#206 = FACE_OUTER_BOUND ( 'NONE', #147, .T. ) ;
#207 = FACE_OUTER_BOUND ( 'NONE', #144, .T. ) ;
#208 = AXIS2_PLACEMENT_3D ( 'NONE', #478, #424, #16 ) ;
#209 = CARTESIAN_POINT ( 'NONE',  ( 24.35000000000000142, 169.0000000000000284, -6.999999999999999112 ) ) ;
#210 = CARTESIAN_POINT ( 'NONE',  ( 1.000000000000000000, 0.000000000000000000, -1.000000000000000000 ) ) ;
#211 = CARTESIAN_POINT ( 'NONE',  ( 27.00000000000000000, 0.000000000000000000, -3.999999999999998224 ) ) ;
#212 = ORIENTED_EDGE ( 'NONE', *, *, #17, .T. ) ;
#213 = CARTESIAN_POINT ( 'NONE',  ( 0.000000000000000000, 169.0000000000000000, -0.9999999999999995559 ) ) ;
#214 = AXIS2_PLACEMENT_3D ( 'NONE', #210, #36, #357 ) ;
#215 = CIRCLE ( 'NONE', #480, 1.100000000000000311 ) ;
#216 = LINE ( 'NONE', #453, #430 ) ;
#217 = EDGE_CURVE ( 'NONE', #579, #473, #243, .T. ) ;
#218 = ORIENTED_EDGE ( 'NONE', *, *, #525, .T. ) ;
#219 = DIRECTION ( 'NONE',  ( -1.000000000000000000, -0.000000000000000000, -0.000000000000000000 ) ) ;
#220 = DIRECTION ( 'NONE',  ( 1.000000000000000000, 0.000000000000000000, 0.000000000000000000 ) ) ;
#221 = DIRECTION ( 'NONE',  ( 0.000000000000000000, 0.000000000000000000, -1.000000000000000000 ) ) ;
#222 = CARTESIAN_POINT ( 'NONE',  ( 27.00000000000000000, 169.0000000000000000, -3.999999999999998224 ) ) ;
#223 = VECTOR ( 'NONE', #14, 1000.000000000000000 ) ;
#224 = DIRECTION ( 'NONE',  ( 1.000000000000000000, -0.000000000000000000, -1.495451272393799296E-16 ) ) ;
#225 = VERTEX_POINT ( 'NONE', #291 ) ;
#226 = CARTESIAN_POINT ( 'NONE',  ( 30.00000000000000000, 169.0000000000000000, 0.000000000000000000 ) ) ;
#227 = VERTEX_POINT ( 'NONE', #10 ) ;
#228 = ORIENTED_EDGE ( 'NONE', *, *, #231, .T. ) ;
#229 = DIRECTION ( 'NONE',  ( -1.000000000000000000, 0.000000000000000000, -0.000000000000000000 ) ) ;
#230 = ORIENTED_EDGE ( 'NONE', *, *, #555, .T. ) ;
#231 = EDGE_CURVE ( 'NONE', #48, #142, #331, .T. ) ;
#232 = ORIENTED_EDGE ( 'NONE', *, *, #362, .T. ) ;
#233 = VECTOR ( 'NONE', #425, 1000.000000000000000 ) ;
#234 = VECTOR ( 'NONE', #220, 1000.000000000000000 ) ;
#235 = CARTESIAN_POINT ( 'NONE',  ( 2.999999999999999112, 169.0000000000000000, 4.336808689942013792E-16 ) ) ;
#236 = ORIENTED_EDGE ( 'NONE', *, *, #24, .F. ) ;
#237 = EDGE_CURVE ( 'NONE', #473, #336, #187, .T. ) ;
#238 = VERTEX_POINT ( 'NONE', #428 ) ;
#239 = DIRECTION ( 'NONE',  ( 1.445602896647338424E-16, 0.000000000000000000, -1.000000000000000000 ) ) ;
#240 = ORIENTED_EDGE ( 'NONE', *, *, #49, .T. ) ;
#241 = VERTEX_POINT ( 'NONE', #279 ) ;
#242 = CARTESIAN_POINT ( 'NONE',  ( 0.000000000000000000, 169.0000000000000000, 0.000000000000000000 ) ) ;
#243 = LINE ( 'NONE', #108, #507 ) ;
#244 = EDGE_LOOP ( 'NONE', ( #106, #365, #330, #524 ) ) ;
#245 = DIRECTION ( 'NONE',  ( 0.000000000000000000, 0.000000000000000000, -1.000000000000000000 ) ) ;
#246 = VECTOR ( 'NONE', #580, 1000.000000000000000 ) ;
#247 = DIRECTION ( 'NONE',  ( 0.000000000000000000, 0.000000000000000000, -1.000000000000000000 ) ) ;
#248 = VERTEX_POINT ( 'NONE', #191 ) ;
#249 = LINE ( 'NONE', #546, #401 ) ;
#250 = FACE_OUTER_BOUND ( 'NONE', #375, .T. ) ;
#251 = CARTESIAN_POINT ( 'NONE',  ( 24.35000000000000142, 1.387778780781445676E-14, -3.499999999999999112 ) ) ;
#252 = EDGE_CURVE ( 'NONE', #41, #248, #369, .T. ) ;
#253 = PLANE ( 'NONE',  #177 ) ;
#254 = EDGE_CURVE ( 'NONE', #416, #587, #340, .T. ) ;
#255 = CARTESIAN_POINT ( 'NONE',  ( 0.000000000000000000, 169.0000000000000000, -6.999999999999999112 ) ) ;
#256 = DIRECTION ( 'NONE',  ( -1.000000000000000000, 0.000000000000000000, -0.000000000000000000 ) ) ;
#257 = CARTESIAN_POINT ( 'NONE',  ( 27.00000000000000000, 169.0000000000000000, -6.999999999999999112 ) ) ;
#258 = CARTESIAN_POINT ( 'NONE',  ( 28.99999999999999645, 0.000000000000000000, -1.000000000000000000 ) ) ;
#259 = ADVANCED_BREP_SHAPE_REPRESENTATION ( 'Bladder_Mold_Top', ( #574, #26 ), #518 ) ;
#260 = ADVANCED_FACE ( 'NONE', ( #136 ), #47, .F. ) ;
#261 = DIRECTION ( 'NONE',  ( 0.000000000000000000, -1.000000000000000000, 0.000000000000000000 ) ) ;
#262 = FILL_AREA_STYLE ('',( #319 ) ) ;
#263 = VECTOR ( 'NONE', #344, 1000.000000000000000 ) ;
#264 = AXIS2_PLACEMENT_3D ( 'NONE', #258, #451, #585 ) ;
#265 = FACE_OUTER_BOUND ( 'NONE', #149, .T. ) ;
#266 = CARTESIAN_POINT ( 'NONE',  ( 3.673940397442059868E-16, 169.0000000000000284, -3.999999999999999112 ) ) ;
#267 = DIRECTION ( 'NONE',  ( 0.000000000000000000, 0.000000000000000000, 1.000000000000000000 ) ) ;
#268 = ORIENTED_EDGE ( 'NONE', *, *, #77, .T. ) ;
#269 = DIRECTION ( 'NONE',  ( 0.000000000000000000, 0.000000000000000000, 1.000000000000000000 ) ) ;
#270 = ORIENTED_EDGE ( 'NONE', *, *, #405, .T. ) ;
#271 = DIRECTION ( 'NONE',  ( 0.000000000000000000, -0.000000000000000000, -1.000000000000000000 ) ) ;
#272 = LINE ( 'NONE', #30, #178 ) ;
#273 = ORIENTED_EDGE ( 'NONE', *, *, #24, .T. ) ;
#274 = VECTOR ( 'NONE', #194, 1000.000000000000000 ) ;
#275 = CARTESIAN_POINT ( 'NONE',  ( 0.000000000000000000, 169.0000000000000000, 0.000000000000000000 ) ) ;
#276 = SHAPE_DEFINITION_REPRESENTATION ( #485, #259 ) ;
#277 = VERTEX_POINT ( 'NONE', #322 ) ;
#278 = ORIENTED_EDGE ( 'NONE', *, *, #156, .T. ) ;
#279 = CARTESIAN_POINT ( 'NONE',  ( 0.000000000000000000, 1.387778780781445676E-14, -4.000000000000012434 ) ) ;
#280 = ORIENTED_EDGE ( 'NONE', *, *, #197, .T. ) ;
#281 = ADVANCED_FACE ( 'NONE', ( #6 ), #282, .F. ) ;
#282 = PLANE ( 'NONE',  #576 ) ;
#283 = VERTEX_POINT ( 'NONE', #468 ) ;
#284 = ORIENTED_EDGE ( 'NONE', *, *, #379, .T. ) ;
#285 = CIRCLE ( 'NONE', #43, 1.000000000000000000 ) ;
#286 = PRODUCT_DEFINITION_FORMATION_WITH_SPECIFIED_SOURCE ( 'ANY', '', #589, .NOT_KNOWN. ) ;
#287 = CARTESIAN_POINT ( 'NONE',  ( 2.999999999999999556, 169.0000250000000221, -3.999999999999998224 ) ) ;
#288 = ORIENTED_EDGE ( 'NONE', *, *, #217, .T. ) ;
#289 = ORIENTED_EDGE ( 'NONE', *, *, #537, .F. ) ;
#290 = CARTESIAN_POINT ( 'NONE',  ( 0.000000000000000000, 169.0000000000000000, 0.000000000000000000 ) ) ;
#291 = CARTESIAN_POINT ( 'NONE',  ( 24.35000000000000142, 1.387778780781445676E-14, -6.999999999999999112 ) ) ;
#292 = VERTEX_POINT ( 'NONE', #465 ) ;
#293 = ADVANCED_FACE ( 'NONE', ( #511 ), #552, .F. ) ;
#294 = CARTESIAN_POINT ( 'NONE',  ( 27.00000000000000000, 169.0000000000000000, 0.000000000000000000 ) ) ;
#295 = EDGE_LOOP ( 'NONE', ( #412, #466, #504, #556 ) ) ;
#296 = AXIS2_PLACEMENT_3D ( 'NONE', #19, #367, #229 ) ;
#297 = AXIS2_PLACEMENT_3D ( 'NONE', #121, #84, #131 ) ;
#298 = DIRECTION ( 'NONE',  ( -1.000000000000000000, 0.000000000000000000, 0.000000000000000000 ) ) ;
#299 = LINE ( 'NONE', #23, #9 ) ;
#300 = ADVANCED_FACE ( 'NONE', ( #101 ), #476, .F. ) ;
#301 = EDGE_CURVE ( 'NONE', #416, #227, #383, .T. ) ;
#302 = DIRECTION ( 'NONE',  ( 0.000000000000000000, 0.000000000000000000, -1.000000000000000000 ) ) ;
#303 = DIRECTION ( 'NONE',  ( -0.000000000000000000, -1.000000000000000000, -0.000000000000000000 ) ) ;
#304 = FACE_OUTER_BOUND ( 'NONE', #429, .T. ) ;
#305 = AXIS2_PLACEMENT_3D ( 'NONE', #506, #18, #65 ) ;
#306 = PRODUCT_RELATED_PRODUCT_CATEGORY ( 'part', '', ( #589 ) ) ;
#307 = EDGE_LOOP ( 'NONE', ( #273, #338, #205, #510 ) ) ;
#308 = CARTESIAN_POINT ( 'NONE',  ( 23.25000000000000000, 170.0000000000000284, -4.599999999999998757 ) ) ;
#309 = EDGE_CURVE ( 'NONE', #426, #225, #94, .T. ) ;
#310 = DIRECTION ( 'NONE',  ( 0.000000000000000000, 0.000000000000000000, -1.000000000000000000 ) ) ;
#311 = DIRECTION ( 'NONE',  ( 0.000000000000000000, -1.000000000000000000, 0.000000000000000000 ) ) ;
#312 = ORIENTED_EDGE ( 'NONE', *, *, #61, .F. ) ;
#313 = DIRECTION ( 'NONE',  ( -0.000000000000000000, -0.000000000000000000, 1.000000000000000000 ) ) ;
#314 = VECTOR ( 'NONE', #417, 1000.000000000000000 ) ;
#315 = AXIS2_PLACEMENT_3D ( 'NONE', #308, #3, #490 ) ;
#316 = CYLINDRICAL_SURFACE ( 'NONE', #567, 1.000000000000000000 ) ;
#317 = CARTESIAN_POINT ( 'NONE',  ( 1.000000000000000000, 169.0000000000000000, 0.000000000000000000 ) ) ;
#318 = CARTESIAN_POINT ( 'NONE',  ( 23.25000000000000000, 0.000000000000000000, -3.499999999999998668 ) ) ;
#319 = FILL_AREA_STYLE_COLOUR ( '', #12 ) ;
#320 = ORIENTED_EDGE ( 'NONE', *, *, #77, .F. ) ;
#321 = CARTESIAN_POINT ( 'NONE',  ( 30.00000000000000000, 169.0000000000000284, -3.999999999999999112 ) ) ;
#322 = CARTESIAN_POINT ( 'NONE',  ( 23.25000000000000000, 169.0000000000000000, -3.499999999999999112 ) ) ;
#323 = ORIENTED_EDGE ( 'NONE', *, *, #379, .F. ) ;
#324 = CIRCLE ( 'NONE', #139, 1.100000000000000311 ) ;
#325 = EDGE_CURVE ( 'NONE', #328, #292, #324, .T. ) ;
#326 = DIRECTION ( 'NONE',  ( 0.000000000000000000, 0.000000000000000000, -1.000000000000000000 ) ) ;
#327 = ORIENTED_EDGE ( 'NONE', *, *, #568, .F. ) ;
#328 = VERTEX_POINT ( 'NONE', #557 ) ;
#329 = EDGE_CURVE ( 'NONE', #378, #277, #143, .T. ) ;
#330 = ORIENTED_EDGE ( 'NONE', *, *, #566, .F. ) ;
#331 = LINE ( 'NONE', #235, #372 ) ;
#332 = EDGE_LOOP ( 'NONE', ( #192, #532, #107, #399 ) ) ;
#333 = PRODUCT_DEFINITION_CONTEXT ( 'detailed design', #160, 'design' ) ;
#334 = EDGE_LOOP ( 'NONE', ( #573, #463, #548, #341 ) ) ;
#335 = PLANE ( 'NONE',  #170 ) ;
#336 = VERTEX_POINT ( 'NONE', #380 ) ;
#337 = ADVANCED_FACE ( 'NONE', ( #561 ), #146, .T. ) ;
#338 = ORIENTED_EDGE ( 'NONE', *, *, #525, .F. ) ;
#339 = DIRECTION ( 'NONE',  ( 0.000000000000000000, -1.000000000000000000, 0.000000000000000000 ) ) ;
#340 = LINE ( 'NONE', #226, #223 ) ;
#341 = ORIENTED_EDGE ( 'NONE', *, *, #452, .F. ) ;
#342 = DIRECTION ( 'NONE',  ( 0.000000000000000000, 0.000000000000000000, 1.000000000000000000 ) ) ;
#343 = DIRECTION ( 'NONE',  ( -0.000000000000000000, -1.000000000000000000, -0.000000000000000000 ) ) ;
#344 = DIRECTION ( 'NONE',  ( 0.000000000000000000, 0.000000000000000000, -1.000000000000000000 ) ) ;
#345 = CIRCLE ( 'NONE', #214, 1.000000000000000000 ) ;
#346 = CIRCLE ( 'NONE', #264, 1.000000000000000000 ) ;
#347 = CARTESIAN_POINT ( 'NONE',  ( 0.000000000000000000, 0.000000000000000000, 0.000000000000000000 ) ) ;
#348 = ORIENTED_EDGE ( 'NONE', *, *, #474, .T. ) ;
#349 = DIRECTION ( 'NONE',  ( 0.000000000000000000, 0.000000000000000000, 1.000000000000000000 ) ) ;
#350 = LINE ( 'NONE', #117, #470 ) ;
#351 = CARTESIAN_POINT ( 'NONE',  ( 0.000000000000000000, 0.000000000000000000, -0.9999999999999995559 ) ) ;
#352 =( NAMED_UNIT ( * ) SI_UNIT ( $, .STERADIAN. ) SOLID_ANGLE_UNIT ( ) );
#353 = DIRECTION ( 'NONE',  ( 1.000000000000000000, 0.000000000000000000, 0.000000000000000000 ) ) ;
#354 = EDGE_CURVE ( 'NONE', #196, #426, #530, .T. ) ;
#355 = AXIS2_PLACEMENT_3D ( 'NONE', #495, #261, #32 ) ;
#356 = ORIENTED_EDGE ( 'NONE', *, *, #116, .F. ) ;
#357 = DIRECTION ( 'NONE',  ( 0.000000000000000000, 0.000000000000000000, -1.000000000000000000 ) ) ;
#358 = EDGE_CURVE ( 'NONE', #473, #238, #69, .T. ) ;
#359 = LINE ( 'NONE', #450, #446 ) ;
#360 = CARTESIAN_POINT ( 'NONE',  ( 5.649999999999998579, 1.387778780781445676E-14, -7.000000000000000000 ) ) ;
#361 = AXIS2_PLACEMENT_3D ( 'NONE', #347, #569, #486 ) ;
#362 = EDGE_CURVE ( 'NONE', #60, #416, #285, .T. ) ;
#363 = CARTESIAN_POINT ( 'NONE',  ( 23.25000000000000000, 1.387778780781445676E-14, -4.599999999999998757 ) ) ;
#364 = CARTESIAN_POINT ( 'NONE',  ( 5.649999999999998579, 170.0000000000000284, -4.599999999999998757 ) ) ;
#365 = ORIENTED_EDGE ( 'NONE', *, *, #17, .F. ) ;
#366 =( LENGTH_UNIT ( ) NAMED_UNIT ( * ) SI_UNIT ( .MILLI., .METRE. ) );
#367 = DIRECTION ( 'NONE',  ( 0.000000000000000000, 0.000000000000000000, -1.000000000000000000 ) ) ;
#368 = ORIENTED_EDGE ( 'NONE', *, *, #555, .F. ) ;
#369 = LINE ( 'NONE', #549, #233 ) ;
#370 = ADVANCED_FACE ( 'NONE', ( #304 ), #253, .F. ) ;
#371 = APPLICATION_PROTOCOL_DEFINITION ( 'draft international standard', 'automotive_design', 1998, #59 ) ;
#372 = VECTOR ( 'NONE', #62, 1000.000000000000000 ) ;
#373 = ORIENTED_EDGE ( 'NONE', *, *, #537, .T. ) ;
#374 = VECTOR ( 'NONE', #500, 1000.000000000000000 ) ;
#375 = EDGE_LOOP ( 'NONE', ( #312, #558, #190, #388, #54, #236, #387, #15, #570, #432, #270, #455, #398, #477, #356, #64 ) ) ;
#376 = DIRECTION ( 'NONE',  ( 0.000000000000000000, 0.000000000000000000, 1.000000000000000000 ) ) ;
#377 = ORIENTED_EDGE ( 'NONE', *, *, #354, .T. ) ;
#378 = VERTEX_POINT ( 'NONE', #395 ) ;
#379 = EDGE_CURVE ( 'NONE', #196, #97, #110, .T. ) ;
#380 = CARTESIAN_POINT ( 'NONE',  ( 27.00000000000000000, 0.000000000000000000, -6.999999999999999112 ) ) ;
#381 = ORIENTED_EDGE ( 'NONE', *, *, #159, .T. ) ;
#382 = CARTESIAN_POINT ( 'NONE',  ( 2.999999999999999556, 169.0000000000000000, -3.999999999999998224 ) ) ;
#383 = LINE ( 'NONE', #199, #126 ) ;
#384 = ORIENTED_EDGE ( 'NONE', *, *, #354, .F. ) ;
#385 = VECTOR ( 'NONE', #219, 1000.000000000000000 ) ;
#386 = CARTESIAN_POINT ( 'NONE',  ( 30.00000000000000000, 1.387778780781445676E-14, -3.999999999999999112 ) ) ;
#387 = ORIENTED_EDGE ( 'NONE', *, *, #494, .T. ) ;
#388 = ORIENTED_EDGE ( 'NONE', *, *, #568, .T. ) ;
#389 = DIRECTION ( 'NONE',  ( -0.000000000000000000, 1.000000000000000000, -0.000000000000000000 ) ) ;
#390 = CARTESIAN_POINT ( 'NONE',  ( 30.00000000000000000, 169.0000000000000284, -3.999999999999999112 ) ) ;
#391 = ADVANCED_FACE ( 'NONE', ( #250 ), #527, .T. ) ;
#392 = AXIS2_PLACEMENT_3D ( 'NONE', #406, #489, #310 ) ;
#393 =( GEOMETRIC_REPRESENTATION_CONTEXT ( 3 ) GLOBAL_UNCERTAINTY_ASSIGNED_CONTEXT ( ( #53 ) ) GLOBAL_UNIT_ASSIGNED_CONTEXT ( ( #444, #172, #539 ) ) REPRESENTATION_CONTEXT ( 'NONE', 'WORKASPACE' ) );
#394 = PLANE ( 'NONE',  #551 ) ;
#395 = CARTESIAN_POINT ( 'NONE',  ( 6.749999999999999112, 169.0000000000000000, -3.499999999999999112 ) ) ;
#396 = DIRECTION ( 'NONE',  ( -0.000000000000000000, -1.000000000000000000, -0.000000000000000000 ) ) ;
#397 = PLANE ( 'NONE',  #297 ) ;
#398 = ORIENTED_EDGE ( 'NONE', *, *, #237, .F. ) ;
#399 = ORIENTED_EDGE ( 'NONE', *, *, #46, .F. ) ;
#400 = FACE_OUTER_BOUND ( 'NONE', #475, .T. ) ;
#401 = VECTOR ( 'NONE', #198, 1000.000000000000000 ) ;
#402 = CARTESIAN_POINT ( 'NONE',  ( 3.673940397442059868E-16, 169.0000000000000284, -3.999999999999999112 ) ) ;
#403 = FACE_OUTER_BOUND ( 'NONE', #29, .T. ) ;
#404 = CARTESIAN_POINT ( 'NONE',  ( 0.000000000000000000, 0.000000000000000000, 0.000000000000000000 ) ) ;
#405 = EDGE_CURVE ( 'NONE', #97, #225, #76, .T. ) ;
#406 = CARTESIAN_POINT ( 'NONE',  ( 23.25000000000000000, 169.0000000000000000, -4.599999999999998757 ) ) ;
#407 = CARTESIAN_POINT ( 'NONE',  ( 0.000000000000000000, 0.000000000000000000, 0.000000000000000000 ) ) ;
#408 = ADVANCED_FACE ( 'NONE', ( #72 ), #394, .F. ) ;
#409 = CARTESIAN_POINT ( 'NONE',  ( 1.000000000000000000, 169.0000000000000000, -1.000000000000000000 ) ) ;
#410 = SURFACE_STYLE_FILL_AREA ( #262 ) ;
#411 = STYLED_ITEM ( 'NONE', ( #90 ), #574 ) ;
#412 = ORIENTED_EDGE ( 'NONE', *, *, #252, .T. ) ;
#413 = ADVANCED_FACE ( 'NONE', ( #22 ), #440, .T. ) ;
#414 = DIRECTION ( 'NONE',  ( -1.000000000000000000, 0.000000000000000000, 0.000000000000000000 ) ) ;
#415 = ORIENTED_EDGE ( 'NONE', *, *, #96, .F. ) ;
#416 = VERTEX_POINT ( 'NONE', #27 ) ;
#417 = DIRECTION ( 'NONE',  ( -0.000000000000000000, -1.000000000000000000, -0.000000000000000000 ) ) ;
#418 = VECTOR ( 'NONE', #86, 1000.000000000000000 ) ;
#419 = ORIENTED_EDGE ( 'NONE', *, *, #132, .F. ) ;
#420 = AXIS2_PLACEMENT_3D ( 'NONE', #431, #298, #161 ) ;
#421 = CARTESIAN_POINT ( 'NONE',  ( 0.000000000000000000, 169.0000000000000000, -3.499999999999999112 ) ) ;
#422 = VERTEX_POINT ( 'NONE', #351 ) ;
#423 = ORIENTED_EDGE ( 'NONE', *, *, #252, .F. ) ;
#424 = DIRECTION ( 'NONE',  ( -0.000000000000000000, 1.000000000000000000, -0.000000000000000000 ) ) ;
#425 = DIRECTION ( 'NONE',  ( -0.000000000000000000, 0.000000000000000000, 1.000000000000000000 ) ) ;
#426 = VERTEX_POINT ( 'NONE', #209 ) ;
#427 = DIRECTION ( 'NONE',  ( 1.000000000000000000, 0.000000000000000000, 0.000000000000000000 ) ) ;
#428 = CARTESIAN_POINT ( 'NONE',  ( 30.00000000000000000, 1.387778780781445676E-14, -4.000000000000012434 ) ) ;
#429 = EDGE_LOOP ( 'NONE', ( #320, #91, #521, #102 ) ) ;
#430 = VECTOR ( 'NONE', #581, 1000.000000000000000 ) ;
#431 = CARTESIAN_POINT ( 'NONE',  ( 24.35000000000000142, 170.0000000000000284, -3.499999999999999112 ) ) ;
#432 = ORIENTED_EDGE ( 'NONE', *, *, #174, .F. ) ;
#433 = EDGE_CURVE ( 'NONE', #336, #225, #436, .T. ) ;
#434 = EDGE_CURVE ( 'NONE', #378, #248, #215, .T. ) ;
#435 = DIRECTION ( 'NONE',  ( 1.000000000000000000, 0.000000000000000000, -0.000000000000000000 ) ) ;
#436 = LINE ( 'NONE', #442, #246 ) ;
#437 = VECTOR ( 'NONE', #343, 1000.000000000000000 ) ;
#438 = VECTOR ( 'NONE', #591, 1000.000000000000000 ) ;
#439 = ORIENTED_EDGE ( 'NONE', *, *, #237, .T. ) ;
#440 = PLANE ( 'NONE',  #534 ) ;
#441 = ORIENTED_EDGE ( 'NONE', *, *, #11, .F. ) ;
#442 = CARTESIAN_POINT ( 'NONE',  ( 0.000000000000000000, 0.000000000000000000, -6.999999999999999112 ) ) ;
#443 = CARTESIAN_POINT ( 'NONE',  ( 5.649999999999998579, 169.0000000000000284, -7.000000000000000000 ) ) ;
#444 =( LENGTH_UNIT ( ) NAMED_UNIT ( * ) SI_UNIT ( .MILLI., .METRE. ) );
#445 = FACE_OUTER_BOUND ( 'NONE', #554, .T. ) ;
#446 = VECTOR ( 'NONE', #128, 1000.000000000000000 ) ;
#447 = DIRECTION ( 'NONE',  ( -0.000000000000000000, -1.000000000000000000, -0.000000000000000000 ) ) ;
#448 = VECTOR ( 'NONE', #311, 1000.000000000000000 ) ;
#449 = EDGE_CURVE ( 'NONE', #579, #50, #66, .T. ) ;
#450 = CARTESIAN_POINT ( 'NONE',  ( 0.000000000000000000, 169.0000000000000000, -6.999999999999999112 ) ) ;
#451 = DIRECTION ( 'NONE',  ( 0.000000000000000000, -1.000000000000000000, 0.000000000000000000 ) ) ;
#452 = EDGE_CURVE ( 'NONE', #378, #328, #299, .T. ) ;
#453 = CARTESIAN_POINT ( 'NONE',  ( 28.99999999999999645, 169.0000000000000000, 0.000000000000000000 ) ) ;
#454 = LINE ( 'NONE', #407, #58 ) ;
#455 = ORIENTED_EDGE ( 'NONE', *, *, #433, .F. ) ;
#456 = ADVANCED_FACE ( 'NONE', ( #207 ), #112, .T. ) ;
#457 = CARTESIAN_POINT ( 'NONE',  ( 28.99999999999999645, 0.000000000000000000, 0.000000000000000000 ) ) ;
#458 = VECTOR ( 'NONE', #114, 1000.000000000000000 ) ;
#459 = ORIENTED_EDGE ( 'NONE', *, *, #449, .T. ) ;
#460 = ADVANCED_FACE ( 'NONE', ( #206 ), #483, .T. ) ;
#461 = CARTESIAN_POINT ( 'NONE',  ( 30.00000000000000000, 0.000000000000000000, 0.000000000000000000 ) ) ;
#462 = DIRECTION ( 'NONE',  ( 1.000000000000000000, -0.000000000000000000, 1.445602896647338424E-16 ) ) ;
#463 = ORIENTED_EDGE ( 'NONE', *, *, #474, .F. ) ;
#464 = ORIENTED_EDGE ( 'NONE', *, *, #38, .F. ) ;
#465 = CARTESIAN_POINT ( 'NONE',  ( 5.649999999999998579, 1.387778780781445676E-14, -4.599999999999998757 ) ) ;
#466 = ORIENTED_EDGE ( 'NONE', *, *, #560, .F. ) ;
#467 = VERTEX_POINT ( 'NONE', #531 ) ;
#468 = CARTESIAN_POINT ( 'NONE',  ( 2.999999999999999556, 0.000000000000000000, -3.999999999999998224 ) ) ;
#469 = EDGE_LOOP ( 'NONE', ( #218, #513, #415, #195 ) ) ;
#470 = VECTOR ( 'NONE', #303, 1000.000000000000000 ) ;
#471 = EDGE_LOOP ( 'NONE', ( #373, #193, #280, #232, #565, #141, #459, #268, #384, #562, #13, #145, #423, #240, #228, #368 ) ) ;
#472 = CARTESIAN_POINT ( 'NONE',  ( 27.00000000000000000, 169.0000250000000221, -3.999999999999998224 ) ) ;
#473 = VERTEX_POINT ( 'NONE', #211 ) ;
#474 = EDGE_CURVE ( 'NONE', #186, #277, #493, .T. ) ;
#475 = EDGE_LOOP ( 'NONE', ( #284, #166, #348, #464 ) ) ;
#476 = PLANE ( 'NONE',  #296 ) ;
#477 = ORIENTED_EDGE ( 'NONE', *, *, #358, .T. ) ;
#478 = CARTESIAN_POINT ( 'NONE',  ( 1.000000000000000000, 169.0000000000000000, -1.000000000000000000 ) ) ;
#479 = DIRECTION ( 'NONE',  ( 0.000000000000000000, -1.000000000000000000, 0.000000000000000000 ) ) ;
#480 = AXIS2_PLACEMENT_3D ( 'NONE', #572, #202, #523 ) ;
#481 = EDGE_CURVE ( 'NONE', #467, #517, #497, .T. ) ;
#482 = VECTOR ( 'NONE', #484, 1000.000000000000000 ) ;
#483 = PLANE ( 'NONE',  #553 ) ;
#484 = DIRECTION ( 'NONE',  ( 1.000000000000000000, -0.000000000000000000, -1.495451272393799296E-16 ) ) ;
#485 = PRODUCT_DEFINITION_SHAPE ( 'NONE', 'NONE',  #28 ) ;
#486 = DIRECTION ( 'NONE',  ( 0.000000000000000000, -0.000000000000000000, -1.000000000000000000 ) ) ;
#487 = LINE ( 'NONE', #255, #2 ) ;
#488 = CARTESIAN_POINT ( 'NONE',  ( 0.000000000000000000, 169.0000000000000000, -6.999999999999999112 ) ) ;
#489 = DIRECTION ( 'NONE',  ( 0.000000000000000000, -1.000000000000000000, 0.000000000000000000 ) ) ;
#490 = DIRECTION ( 'NONE',  ( 0.000000000000000000, 0.000000000000000000, -1.000000000000000000 ) ) ;
#491 = EDGE_CURVE ( 'NONE', #241, #422, #454, .T. ) ;
#492 = DIRECTION ( 'NONE',  ( 0.000000000000000000, -1.000000000000000000, 0.000000000000000000 ) ) ;
#493 = LINE ( 'NONE', #87, #34 ) ;
#494 = EDGE_CURVE ( 'NONE', #100, #292, #545, .T. ) ;
#495 = CARTESIAN_POINT ( 'NONE',  ( 6.749999999999999112, 170.0000000000000284, -4.599999999999998757 ) ) ;
#496 = VECTOR ( 'NONE', #105, 1000.000000000000000 ) ;
#497 = LINE ( 'NONE', #317, #448 ) ;
#498 = MECHANICAL_DESIGN_GEOMETRIC_PRESENTATION_REPRESENTATION (  '', ( #411 ), #393 ) ;
#499 = CYLINDRICAL_SURFACE ( 'NONE', #67, 1.000000000000000000 ) ;
#500 = DIRECTION ( 'NONE',  ( 1.000000000000000000, 0.000000000000000000, 0.000000000000000000 ) ) ;
#501 = ADVANCED_FACE ( 'NONE', ( #400 ), #40, .F. ) ;
#502 = CARTESIAN_POINT ( 'NONE',  ( 24.35000000000000142, 169.0000000000000000, -4.599999999999998757 ) ) ;
#503 = SURFACE_STYLE_USAGE ( .BOTH. , #582 ) ;
#504 = ORIENTED_EDGE ( 'NONE', *, *, #494, .F. ) ;
#505 = CARTESIAN_POINT ( 'NONE',  ( 30.00000000000000000, 169.0000000000000284, -3.999999999999999112 ) ) ;
#506 = CARTESIAN_POINT ( 'NONE',  ( 0.000000000000000000, 169.0000000000000000, -6.999999999999999112 ) ) ;
#507 = VECTOR ( 'NONE', #98, 1000.000000000000000 ) ;
#508 = VERTEX_POINT ( 'NONE', #213 ) ;
#509 = DIRECTION ( 'NONE',  ( 0.000000000000000000, 0.000000000000000000, 1.000000000000000000 ) ) ;
#510 = ORIENTED_EDGE ( 'NONE', *, *, #586, .T. ) ;
#511 = FACE_OUTER_BOUND ( 'NONE', #307, .T. ) ;
#512 = ORIENTED_EDGE ( 'NONE', *, *, #217, .F. ) ;
#513 = ORIENTED_EDGE ( 'NONE', *, *, #514, .T. ) ;
#514 = EDGE_CURVE ( 'NONE', #63, #283, #169, .T. ) ;
#515 = CARTESIAN_POINT ( 'NONE',  ( 5.649999999999998579, 170.0000000000000284, -7.000000000000000000 ) ) ;
#516 = ORIENTED_EDGE ( 'NONE', *, *, #309, .T. ) ;
#517 = VERTEX_POINT ( 'NONE', #176 ) ;
#518 =( GEOMETRIC_REPRESENTATION_CONTEXT ( 3 ) GLOBAL_UNCERTAINTY_ASSIGNED_CONTEXT ( ( #148 ) ) GLOBAL_UNIT_ASSIGNED_CONTEXT ( ( #366, #165, #352 ) ) REPRESENTATION_CONTEXT ( 'NONE', 'WORKASPACE' ) );
#519 = LINE ( 'NONE', #290, #104 ) ;
#520 = CARTESIAN_POINT ( 'NONE',  ( 6.749999999999999112, 1.387778780781445676E-14, -4.599999999999998757 ) ) ;
#521 = ORIENTED_EDGE ( 'NONE', *, *, #433, .T. ) ;
#522 = DIRECTION ( 'NONE',  ( 0.000000000000000000, 1.000000000000000000, -0.000000000000000000 ) ) ;
#523 = DIRECTION ( 'NONE',  ( 0.000000000000000000, 0.000000000000000000, -1.000000000000000000 ) ) ;
#524 = ORIENTED_EDGE ( 'NONE', *, *, #301, .F. ) ;
#525 = EDGE_CURVE ( 'NONE', #48, #63, #272, .T. ) ;
#526 = DIRECTION ( 'NONE',  ( -0.000000000000000000, -1.000000000000000000, -0.000000000000000000 ) ) ;
#527 = PLANE ( 'NONE',  #361 ) ;
#528 = VECTOR ( 'NONE', #118, 1000.000000000000000 ) ;
#529 = VECTOR ( 'NONE', #37, 1000.000000000000000 ) ;
#530 = LINE ( 'NONE', #167, #528 ) ;
#531 = CARTESIAN_POINT ( 'NONE',  ( 1.000000000000000000, 169.0000000000000000, 0.000000000000000000 ) ) ;
#532 = ORIENTED_EDGE ( 'NONE', *, *, #301, .T. ) ;
#533 = CARTESIAN_POINT ( 'NONE',  ( 5.649999999999998579, 170.0000000000000284, -3.499999999999999112 ) ) ;
#534 = AXIS2_PLACEMENT_3D ( 'NONE', #533, #247, #256 ) ;
#535 = CYLINDRICAL_SURFACE ( 'NONE', #355, 1.100000000000000311 ) ;
#536 = CARTESIAN_POINT ( 'NONE',  ( 0.000000000000000000, 169.0000000000000000, 0.000000000000000000 ) ) ;
#537 = EDGE_CURVE ( 'NONE', #5, #508, #542, .T. ) ;
#538 = CARTESIAN_POINT ( 'NONE',  ( 0.000000000000000000, 0.000000000000000000, -6.999999999999999112 ) ) ;
#539 =( NAMED_UNIT ( * ) SI_UNIT ( $, .STERADIAN. ) SOLID_ANGLE_UNIT ( ) );
#540 = ADVANCED_FACE ( 'NONE', ( #403 ), #397, .T. ) ;
#541 = CARTESIAN_POINT ( 'NONE',  ( 28.99999999999999645, 169.0000000000000000, 0.000000000000000000 ) ) ;
#542 = LINE ( 'NONE', #536, #529 ) ;
#543 = LINE ( 'NONE', #538, #385 ) ;
#544 = VECTOR ( 'NONE', #396, 1000.000000000000000 ) ;
#545 = LINE ( 'NONE', #360, #163 ) ;
#546 = CARTESIAN_POINT ( 'NONE',  ( 5.649999999999998579, 1.387778780781445676E-14, -3.499999999999999112 ) ) ;
#547 = CARTESIAN_POINT ( 'NONE',  ( 3.673940397442059868E-16, 1.387778780781445676E-14, -3.999999999999999112 ) ) ;
#548 = ORIENTED_EDGE ( 'NONE', *, *, #137, .F. ) ;
#549 = CARTESIAN_POINT ( 'NONE',  ( 5.649999999999998579, 169.0000000000000000, 0.000000000000000000 ) ) ;
#550 = EDGE_LOOP ( 'NONE', ( #109, #278, #289, #381 ) ) ;
#551 = AXIS2_PLACEMENT_3D ( 'NONE', #154, #158, #349 ) ;
#552 = PLANE ( 'NONE',  #305 ) ;
#553 = AXIS2_PLACEMENT_3D ( 'NONE', #390, #575, #577 ) ;
#554 = EDGE_LOOP ( 'NONE', ( #419, #45, #441, #99 ) ) ;
#555 = EDGE_CURVE ( 'NONE', #5, #142, #79, .T. ) ;
#556 = ORIENTED_EDGE ( 'NONE', *, *, #586, .F. ) ;
#557 = CARTESIAN_POINT ( 'NONE',  ( 6.749999999999999112, 1.387778780781445676E-14, -3.499999999999999112 ) ) ;
#558 = ORIENTED_EDGE ( 'NONE', *, *, #11, .T. ) ;
#559 = ORIENTED_EDGE ( 'NONE', *, *, #578, .T. ) ;
#560 = EDGE_CURVE ( 'NONE', #292, #248, #180, .T. ) ;
#561 = FACE_OUTER_BOUND ( 'NONE', #295, .T. ) ;
#562 = ORIENTED_EDGE ( 'NONE', *, *, #38, .T. ) ;
#563 = CARTESIAN_POINT ( 'NONE',  ( 0.000000000000000000, 169.0000000000000000, -1.000000000000000000 ) ) ;
#564 = CARTESIAN_POINT ( 'NONE',  ( 27.00000000000000000, 0.000000000000000000, -3.999999999999998224 ) ) ;
#565 = ORIENTED_EDGE ( 'NONE', *, *, #254, .T. ) ;
#566 = EDGE_CURVE ( 'NONE', #227, #103, #346, .T. ) ;
#567 = AXIS2_PLACEMENT_3D ( 'NONE', #171, #492, #221 ) ;
#568 = EDGE_CURVE ( 'NONE', #241, #283, #129, .T. ) ;
#569 = DIRECTION ( 'NONE',  ( 0.000000000000000000, -1.000000000000000000, 0.000000000000000000 ) ) ;
#570 = ORIENTED_EDGE ( 'NONE', *, *, #137, .T. ) ;
#571 = LINE ( 'NONE', #563, #92 ) ;
#572 = CARTESIAN_POINT ( 'NONE',  ( 6.749999999999999112, 169.0000000000000000, -4.599999999999998757 ) ) ;
#573 = ORIENTED_EDGE ( 'NONE', *, *, #329, .T. ) ;
#574 = MANIFOLD_SOLID_BREP ( 'Fillet1', #20 ) ;
#575 = DIRECTION ( 'NONE',  ( -1.495451272393799296E-16, 0.000000000000000000, -1.000000000000000000 ) ) ;
#576 = AXIS2_PLACEMENT_3D ( 'NONE', #472, #414, #509 ) ;
#577 = DIRECTION ( 'NONE',  ( -1.000000000000000000, 0.000000000000000000, 1.495451272393799296E-16 ) ) ;
#578 = EDGE_CURVE ( 'NONE', #579, #587, #135, .T. ) ;
#579 = VERTEX_POINT ( 'NONE', #222 ) ;
#580 = DIRECTION ( 'NONE',  ( -1.000000000000000000, -0.000000000000000000, -0.000000000000000000 ) ) ;
#581 = DIRECTION ( 'NONE',  ( -0.000000000000000000, 1.000000000000000000, -0.000000000000000000 ) ) ;
#582 = SURFACE_SIDE_STYLE ('',( #410 ) ) ;
#583 = VECTOR ( 'NONE', #353, 1000.000000000000000 ) ;
#584 = LINE ( 'NONE', #175, #583 ) ;
#585 = DIRECTION ( 'NONE',  ( 0.000000000000000000, 0.000000000000000000, -1.000000000000000000 ) ) ;
#586 = EDGE_CURVE ( 'NONE', #41, #100, #93, .T. ) ;
#587 = VERTEX_POINT ( 'NONE', #321 ) ;
#588 = DIRECTION ( 'NONE',  ( 1.000000000000000000, 0.000000000000000000, 0.000000000000000000 ) ) ;
#589 = PRODUCT ( 'Bladder_Mold_Top', 'Bladder_Mold_Top', '', ( #181 ) ) ;
#590 = DIRECTION ( 'NONE',  ( -1.000000000000000000, -0.000000000000000000, -0.000000000000000000 ) ) ;
#591 = DIRECTION ( 'NONE',  ( -1.445602896647338424E-16, -0.000000000000000000, 1.000000000000000000 ) ) ;
ENDSEC;
END-ISO-10303-21;
