ISO-10303-21;
HEADER;
FILE_DESCRIPTION (( 'STEP AP214' ),
    '1' );
FILE_NAME ('TPU_Prism.STEP',
    '2025-10-13T15:58:33',
    ( '' ),
    ( '' ),
    'SwSTEP 2.0',
    'SolidWorks 2025',
    '' );
FILE_SCHEMA (( 'AUTOMOTIVE_DESIGN' ));
ENDSEC;

DATA;
#1 = CARTESIAN_POINT ( 'NONE',  ( 1.224646799147356350E-17, 1.449999999999999956, -2.899999999999999911 ) ) ;
#2 = CYLINDRICAL_SURFACE ( 'NONE', #87, 0.4000000000000000222 ) ;
#3 = CARTESIAN_POINT ( 'NONE',  ( 0.000000000000000000, 1.050000000000000044, 0.000000000000000000 ) ) ;
#4 = VECTOR ( 'NONE', #95, 1000.000000000000000 ) ;
#5 = FACE_OUTER_BOUND ( 'NONE', #66, .T. ) ;
#6 = CARTESIAN_POINT ( 'NONE',  ( 0.000000000000000000, -1.249999999999999778, 0.000000000000000000 ) ) ;
#7 = ORIENTED_EDGE ( 'NONE', *, *, #228, .T. ) ;
#8 = CARTESIAN_POINT ( 'NONE',  ( 2.899999999999999911, -1.249999999999999778, 0.000000000000000000 ) ) ;
#9 = EDGE_CURVE ( 'NONE', #267, #102, #180, .T. ) ;
#10 = CARTESIAN_POINT ( 'NONE',  ( 0.4000000000000000222, 1.449999999999999956, -1.934314575050761764 ) ) ;
#11 = CLOSED_SHELL ( 'NONE', ( #130, #260, #133, #64, #252, #193, #270, #93, #90, #282, #158 ) ) ;
#12 = ORIENTED_EDGE ( 'NONE', *, *, #184, .T. ) ;
#13 = PRODUCT_CONTEXT ( 'NONE', #303, 'mechanical' ) ;
#14 = ORIENTED_EDGE ( 'NONE', *, *, #23, .F. ) ;
#15 = ORIENTED_EDGE ( 'NONE', *, *, #81, .F. ) ;
#16 =( NAMED_UNIT ( * ) SI_UNIT ( $, .STERADIAN. ) SOLID_ANGLE_UNIT ( ) );
#17 = ORIENTED_EDGE ( 'NONE', *, *, #291, .T. ) ;
#18 = AXIS2_PLACEMENT_3D ( 'NONE', #77, #79, #137 ) ;
#19 = FACE_OUTER_BOUND ( 'NONE', #223, .T. ) ;
#20 = CARTESIAN_POINT ( 'NONE',  ( 0.000000000000000000, -1.249999999999999778, 0.000000000000000000 ) ) ;
#21 = CARTESIAN_POINT ( 'NONE',  ( 2.899999999999999911, 1.050000000000000044, 0.000000000000000000 ) ) ;
#22 = PRESENTATION_STYLE_ASSIGNMENT (( #237 ) ) ;
#23 = EDGE_CURVE ( 'NONE', #168, #120, #255, .T. ) ;
#24 = CARTESIAN_POINT ( 'NONE',  ( 0.4000000000000000222, 1.449999999999999956, -0.4000000000000000222 ) ) ;
#25 = VECTOR ( 'NONE', #213, 1000.000000000000114 ) ;
#26 = DIRECTION ( 'NONE',  ( 4.222919997059849484E-18, 0.000000000000000000, -1.000000000000000000 ) ) ;
#27 = CARTESIAN_POINT ( 'NONE',  ( 1.224646799147356350E-17, 1.050000000000000044, -2.899999999999999911 ) ) ;
#28 = LINE ( 'NONE', #118, #47 ) ;
#29 = AXIS2_PLACEMENT_3D ( 'NONE', #114, #217, #51 ) ;
#30 = CARTESIAN_POINT ( 'NONE',  ( 2.710505431213761085E-17, -1.367157287525380793, -5.421010862427522170E-17 ) ) ;
#31 = ORIENTED_EDGE ( 'NONE', *, *, #61, .F. ) ;
#32 = DIRECTION ( 'NONE',  ( -0.7071067811865475727, 0.000000000000000000, 0.7071067811865475727 ) ) ;
#33 = ORIENTED_EDGE ( 'NONE', *, *, #199, .T. ) ;
#34 = DIRECTION ( 'NONE',  ( -0.7071067811865475727, 0.000000000000000000, 0.7071067811865475727 ) ) ;
#35 = ORIENTED_EDGE ( 'NONE', *, *, #216, .F. ) ;
#36 = EDGE_LOOP ( 'NONE', ( #250, #35, #227, #247 ) ) ;
#37 = AXIS2_PLACEMENT_3D ( 'NONE', #226, #123, #249 ) ;
#38 = EDGE_LOOP ( 'NONE', ( #83, #73, #122, #205 ) ) ;
#39 = EDGE_LOOP ( 'NONE', ( #204, #15, #271, #31 ) ) ;
#40 = CARTESIAN_POINT ( 'NONE',  ( 0.4000000000000000222, 1.449999999999999956, 1.689167998823939794E-18 ) ) ;
#41 = DIRECTION ( 'NONE',  ( 4.222919997059849484E-18, -0.000000000000000000, -1.000000000000000000 ) ) ;
#42 = CARTESIAN_POINT ( 'NONE',  ( 1.934314575050761764, 1.449999999999999956, -0.4000000000000000222 ) ) ;
#43 = CARTESIAN_POINT ( 'NONE',  ( 0.2000000000000000111, -1.449999999999999956, -2.417157287525379949 ) ) ;
#44 = DIRECTION ( 'NONE',  ( 0.7071067811865474617, -0.000000000000000000, 0.7071067811865474617 ) ) ;
#45 = PLANE ( 'NONE',  #202 ) ;
#46 = PRODUCT_DEFINITION_SHAPE ( 'NONE', 'NONE',  #156 ) ;
#47 = VECTOR ( 'NONE', #263, 1000.000000000000000 ) ;
#48 = FACE_OUTER_BOUND ( 'NONE', #221, .T. ) ;
#49 = EDGE_CURVE ( 'NONE', #63, #84, #62, .T. ) ;
#50 = PRODUCT_RELATED_PRODUCT_CATEGORY ( 'part', '', ( #67 ) ) ;
#51 = DIRECTION ( 'NONE',  ( -1.000000000000000000, 0.000000000000000000, 0.000000000000000000 ) ) ;
#52 = ADVANCED_BREP_SHAPE_REPRESENTATION ( 'TPU_Prism', ( #165, #37 ), #152 ) ;
#53 = CARTESIAN_POINT ( 'NONE',  ( 2.499999999999998224, 1.449999999999999734, -0.1656854249492380471 ) ) ;
#54 = VERTEX_POINT ( 'NONE', #231 ) ;
#55 = EDGE_CURVE ( 'NONE', #276, #63, #104, .T. ) ;
#56 = CYLINDRICAL_SURFACE ( 'NONE', #132, 0.3999999999999999112 ) ;
#57 = DIRECTION ( 'NONE',  ( -0.000000000000000000, -1.000000000000000000, -0.000000000000000000 ) ) ;
#58 = ORIENTED_EDGE ( 'NONE', *, *, #61, .T. ) ;
#59 = MECHANICAL_DESIGN_GEOMETRIC_PRESENTATION_REPRESENTATION (  '', ( #147 ), #235 ) ;
#60 = EDGE_LOOP ( 'NONE', ( #140, #286, #218 ) ) ;
#61 = EDGE_CURVE ( 'NONE', #244, #168, #151, .T. ) ;
#62 = LINE ( 'NONE', #251, #299 ) ;
#63 = VERTEX_POINT ( 'NONE', #232 ) ;
#64 = ADVANCED_FACE ( 'NONE', ( #19 ), #105, .F. ) ;
#65 = ORIENTED_EDGE ( 'NONE', *, *, #107, .F. ) ;
#66 = EDGE_LOOP ( 'NONE', ( #155, #121, #170, #106 ) ) ;
#67 = PRODUCT ( 'TPU_Prism', 'TPU_Prism', '', ( #13 ) ) ;
#68 = DIRECTION ( 'NONE',  ( -4.222919997059849484E-18, 0.000000000000000000, 1.000000000000000000 ) ) ;
#69 = CARTESIAN_POINT ( 'NONE',  ( 2.417157287525380394, -1.449999999999999956, -0.2000000000000000111 ) ) ;
#70 = DIRECTION ( 'NONE',  ( -1.000000000000000000, 0.000000000000000000, -0.000000000000000000 ) ) ;
#71 = VECTOR ( 'NONE', #41, 1000.000000000000000 ) ;
#72 = CARTESIAN_POINT ( 'NONE',  ( 0.2000000000000000111, -1.449999999999999956, -2.417157287525379949 ) ) ;
#73 = ORIENTED_EDGE ( 'NONE', *, *, #103, .T. ) ;
#74 = CARTESIAN_POINT ( 'NONE',  ( 0.1656854249492380471, 1.449999999999999734, -2.499999999999998224 ) ) ;
#75 = EDGE_LOOP ( 'NONE', ( #272, #176, #82, #288 ) ) ;
#76 = EDGE_CURVE ( 'NONE', #150, #267, #86, .T. ) ;
#77 = CARTESIAN_POINT ( 'NONE',  ( 0.000000000000000000, 1.050000000000000044, -0.4000000000000000222 ) ) ;
#78 = AXIS2_PLACEMENT_3D ( 'NONE', #88, #302, #70 ) ;
#79 = DIRECTION ( 'NONE',  ( 1.000000000000000000, 0.000000000000000000, 0.000000000000000000 ) ) ;
#80 = ORIENTED_EDGE ( 'NONE', *, *, #167, .T. ) ;
#81 = EDGE_CURVE ( 'NONE', #265, #276, #153, .T. ) ;
#82 = ORIENTED_EDGE ( 'NONE', *, *, #279, .F. ) ;
#83 = ORIENTED_EDGE ( 'NONE', *, *, #107, .T. ) ;
#84 = VERTEX_POINT ( 'NONE', #20 ) ;
#85 = CARTESIAN_POINT ( 'NONE',  ( 0.000000000000000000, -1.449999999999999956, -0.2000000000000000111 ) ) ;
#86 = LINE ( 'NONE', #85, #239 ) ;
#87 = AXIS2_PLACEMENT_3D ( 'NONE', #94, #68, #212 ) ;
#88 = CARTESIAN_POINT ( 'NONE',  ( 0.000000000000000000, 1.449999999999999956, 0.000000000000000000 ) ) ;
#89 = CARTESIAN_POINT ( 'NONE',  ( 0.1656854249492379361, 1.449999999999999734, -0.1656854249492379361 ) ) ;
#90 = ADVANCED_FACE ( 'NONE', ( #209 ), #298, .T. ) ;
#91 = FACE_OUTER_BOUND ( 'NONE', #206, .T. ) ;
#92 = CARTESIAN_POINT ( 'NONE',  ( 2.551484919132643354E-17, 1.284314575050762075, -2.551484919132643354E-17 ) ) ;
#93 = ADVANCED_FACE ( 'NONE', ( #214 ), #2, .T. ) ;
#94 = CARTESIAN_POINT ( 'NONE',  ( 0.4000000000000000222, 1.050000000000000044, 1.689167998823939794E-18 ) ) ;
#95 = DIRECTION ( 'NONE',  ( 1.000000000000000000, 0.000000000000000000, 0.000000000000000000 ) ) ;
#96 = CARTESIAN_POINT ( 'NONE',  ( 0.08284271247461900967, -1.450000000000000400, -2.699999999999999734 ) ) ;
#97 = EDGE_LOOP ( 'NONE', ( #253, #269, #33, #229 ) ) ;
#98 =( BOUNDED_CURVE ( )  B_SPLINE_CURVE ( 3, ( #159, #92, #89, #211 ),
 .UNSPECIFIED., .F., .F. ) 
 B_SPLINE_CURVE_WITH_KNOTS ( ( 4, 4 ),
 ( 3.141592653589793116, 4.712388980384689674 ),
 .UNSPECIFIED. ) 
 CURVE ( )  GEOMETRIC_REPRESENTATION_ITEM ( )  RATIONAL_B_SPLINE_CURVE ( ( 1.000000000000000000, 0.8047378541243649375, 0.8047378541243649375, 1.000000000000000000 ) ) 
 REPRESENTATION_ITEM ( '' )  );
#99 = CARTESIAN_POINT ( 'NONE',  ( 0.2000000000000000111, -1.449999999999999956, -0.2000000000000000111 ) ) ;
#100 = CARTESIAN_POINT ( 'NONE',  ( 0.4000000000000000222, 1.449999999999999956, -1.934314575050761764 ) ) ;
#101 = VERTEX_POINT ( 'NONE', #21 ) ;
#102 = VERTEX_POINT ( 'NONE', #43 ) ;
#103 = EDGE_CURVE ( 'NONE', #54, #63, #283, .T. ) ;
#104 = LINE ( 'NONE', #128, #210 ) ;
#105 = PLANE ( 'NONE',  #164 ) ;
#106 = ORIENTED_EDGE ( 'NONE', *, *, #300, .F. ) ;
#107 = EDGE_CURVE ( 'NONE', #101, #54, #131, .T. ) ;
#108 =( LENGTH_UNIT ( ) NAMED_UNIT ( * ) SI_UNIT ( .MILLI., .METRE. ) );
#109 = UNCERTAINTY_MEASURE_WITH_UNIT (LENGTH_MEASURE( 1.000000000000000082E-05 ), #108, 'distance_accuracy_value', 'NONE');
#110 =( NAMED_UNIT ( * ) PLANE_ANGLE_UNIT ( ) SI_UNIT ( $, .RADIAN. ) );
#111 = EDGE_CURVE ( 'NONE', #54, #150, #200, .T. ) ;
#112 = VECTOR ( 'NONE', #183, 1000.000000000000000 ) ;
#113 = PLANE ( 'NONE',  #78 ) ;
#114 = CARTESIAN_POINT ( 'NONE',  ( 0.2000000000000000111, -1.249999999999999778, -2.899999999999999911 ) ) ;
#115 = DIRECTION ( 'NONE',  ( -0.7071067811865474617, 0.000000000000000000, -0.7071067811865474617 ) ) ;
#116 = CARTESIAN_POINT ( 'NONE',  ( 0.08284271247461903742, -1.449999999999999734, -0.08284271247461907905 ) ) ;
#117 = ORIENTED_EDGE ( 'NONE', *, *, #199, .F. ) ;
#118 = CARTESIAN_POINT ( 'NONE',  ( 0.000000000000000000, 1.050000000000000044, 0.000000000000000000 ) ) ;
#119 = CARTESIAN_POINT ( 'NONE',  ( 2.899999999999999911, 1.449999999999999956, 0.000000000000000000 ) ) ;
#120 = VERTEX_POINT ( 'NONE', #42 ) ;
#121 = ORIENTED_EDGE ( 'NONE', *, *, #184, .F. ) ;
#122 = ORIENTED_EDGE ( 'NONE', *, *, #55, .F. ) ;
#123 = DIRECTION ( 'NONE',  ( 0.000000000000000000, 0.000000000000000000, 1.000000000000000000 ) ) ;
#124 = DIRECTION ( 'NONE',  ( -4.222919997059849484E-18, 0.000000000000000000, 1.000000000000000000 ) ) ;
#125 =( BOUNDED_CURVE ( )  B_SPLINE_CURVE ( 3, ( #72, #96, #266, #142 ),
 .UNSPECIFIED., .F., .F. ) 
 B_SPLINE_CURVE_WITH_KNOTS ( ( 4, 4 ),
 ( 4.712388980384686121, 6.283185307179586232 ),
 .UNSPECIFIED. ) 
 CURVE ( )  GEOMETRIC_REPRESENTATION_ITEM ( )  RATIONAL_B_SPLINE_CURVE ( ( 1.000000000000000000, 0.8047378541243641603, 0.8047378541243641603, 1.000000000000000000 ) ) 
 REPRESENTATION_ITEM ( '' )  );
#126 = VECTOR ( 'NONE', #182, 1000.000000000000114 ) ;
#127 = DIRECTION ( 'NONE',  ( -4.222919997059849484E-18, 0.000000000000000000, 1.000000000000000000 ) ) ;
#128 = CARTESIAN_POINT ( 'NONE',  ( 1.224646799147356350E-17, 1.449999999999999956, -2.899999999999999911 ) ) ;
#129 = CYLINDRICAL_SURFACE ( 'NONE', #284, 0.2000000000000001499 ) ;
#130 = ADVANCED_FACE ( 'NONE', ( #91 ), #113, .F. ) ;
#131 = LINE ( 'NONE', #161, #290 ) ;
#132 = AXIS2_PLACEMENT_3D ( 'NONE', #248, #197, #34 ) ;
#133 = ADVANCED_FACE ( 'NONE', ( #215 ), #45, .F. ) ;
#134 =( NAMED_UNIT ( * ) SI_UNIT ( $, .STERADIAN. ) SOLID_ANGLE_UNIT ( ) );
#135 = CARTESIAN_POINT ( 'NONE',  ( 2.699999999999999289, -1.449999999999999734, -0.08284271247461913457 ) ) ;
#136 = VECTOR ( 'NONE', #127, 1000.000000000000000 ) ;
#137 = DIRECTION ( 'NONE',  ( 0.000000000000000000, 0.000000000000000000, -1.000000000000000000 ) ) ;
#138 = CARTESIAN_POINT ( 'NONE',  ( 2.899999999999999911, 1.050000000000000044, 0.000000000000000000 ) ) ;
#139 = CARTESIAN_POINT ( 'NONE',  ( 1.934314575050761764, 1.449999999999999956, -0.4000000000000000222 ) ) ;
#140 = ORIENTED_EDGE ( 'NONE', *, *, #9, .T. ) ;
#141 = VECTOR ( 'NONE', #296, 1000.000000000000000 ) ;
#142 = CARTESIAN_POINT ( 'NONE',  ( 1.224646799147356350E-17, -1.249999999999999778, -2.899999999999999911 ) ) ;
#143 = ORIENTED_EDGE ( 'NONE', *, *, #167, .F. ) ;
#144 = EDGE_CURVE ( 'NONE', #102, #150, #190, .T. ) ;
#145 = FACE_OUTER_BOUND ( 'NONE', #149, .T. ) ;
#146 = CARTESIAN_POINT ( 'NONE',  ( 2.899999999999999911, 1.050000000000000044, 0.000000000000000000 ) ) ;
#147 = STYLED_ITEM ( 'NONE', ( #22 ), #165 ) ;
#148 =( LENGTH_UNIT ( ) NAMED_UNIT ( * ) SI_UNIT ( .MILLI., .METRE. ) );
#149 = EDGE_LOOP ( 'NONE', ( #7, #177, #117, #174 ) ) ;
#150 = VERTEX_POINT ( 'NONE', #69 ) ;
#151 = LINE ( 'NONE', #40, #136 ) ;
#152 =( GEOMETRIC_REPRESENTATION_CONTEXT ( 3 ) GLOBAL_UNCERTAINTY_ASSIGNED_CONTEXT ( ( #258 ) ) GLOBAL_UNIT_ASSIGNED_CONTEXT ( ( #148, #179, #16 ) ) REPRESENTATION_CONTEXT ( 'NONE', 'WORKASPACE' ) );
#153 = LINE ( 'NONE', #233, #71 ) ;
#154 = EDGE_CURVE ( 'NONE', #265, #168, #98, .T. ) ;
#155 = ORIENTED_EDGE ( 'NONE', *, *, #208, .F. ) ;
#156 = PRODUCT_DEFINITION ( 'UNKNOWN', '', #186, #162 ) ;
#157 = FACE_OUTER_BOUND ( 'NONE', #97, .T. ) ;
#158 = ADVANCED_FACE ( 'NONE', ( #157 ), #129, .T. ) ;
#159 = CARTESIAN_POINT ( 'NONE',  ( 0.000000000000000000, 1.050000000000000044, 0.000000000000000000 ) ) ;
#160 =( BOUNDED_CURVE ( )  B_SPLINE_CURVE ( 3, ( #100, #74, #224, #220 ),
 .UNSPECIFIED., .F., .F. ) 
 B_SPLINE_CURVE_WITH_KNOTS ( ( 4, 4 ),
 ( 4.712388980384689674, 6.283185307179586232 ),
 .UNSPECIFIED. ) 
 CURVE ( )  GEOMETRIC_REPRESENTATION_ITEM ( )  RATIONAL_B_SPLINE_CURVE ( ( 1.000000000000000000, 0.8047378541243649375, 0.8047378541243649375, 1.000000000000000000 ) ) 
 REPRESENTATION_ITEM ( '' )  );
#161 = CARTESIAN_POINT ( 'NONE',  ( 2.899999999999999911, 1.449999999999999956, 0.000000000000000000 ) ) ;
#162 = PRODUCT_DEFINITION_CONTEXT ( 'detailed design', #222, 'design' ) ;
#163 = LINE ( 'NONE', #8, #4 ) ;
#164 = AXIS2_PLACEMENT_3D ( 'NONE', #207, #278, #297 ) ;
#165 = MANIFOLD_SOLID_BREP ( 'Fillet2', #11 ) ;
#166 = LINE ( 'NONE', #146, #126 ) ;
#167 = EDGE_CURVE ( 'NONE', #101, #265, #28, .T. ) ;
#168 = VERTEX_POINT ( 'NONE', #24 ) ;
#169 = CARTESIAN_POINT ( 'NONE',  ( 2.899999999999999467, 1.284314575050762075, 1.084202172485504434E-16 ) ) ;
#170 = ORIENTED_EDGE ( 'NONE', *, *, #291, .F. ) ;
#171 =( BOUNDED_CURVE ( )  B_SPLINE_CURVE ( 3, ( #196, #116, #30, #6 ),
 .UNSPECIFIED., .F., .F. ) 
 B_SPLINE_CURVE_WITH_KNOTS ( ( 4, 4 ),
 ( 4.712388980384689674, 6.283185307179586232 ),
 .UNSPECIFIED. ) 
 CURVE ( )  GEOMETRIC_REPRESENTATION_ITEM ( )  RATIONAL_B_SPLINE_CURVE ( ( 1.000000000000000000, 0.8047378541243649375, 0.8047378541243649375, 1.000000000000000000 ) ) 
 REPRESENTATION_ITEM ( '' )  );
#172 = CARTESIAN_POINT ( 'NONE',  ( 0.000000000000000000, -1.449999999999999956, 0.000000000000000000 ) ) ;
#173 = FACE_OUTER_BOUND ( 'NONE', #38, .T. ) ;
#174 = ORIENTED_EDGE ( 'NONE', *, *, #9, .F. ) ;
#175 = SHAPE_DEFINITION_REPRESENTATION ( #46, #52 ) ;
#176 = ORIENTED_EDGE ( 'NONE', *, *, #49, .T. ) ;
#177 = ORIENTED_EDGE ( 'NONE', *, *, #49, .F. ) ;
#178 = AXIS2_PLACEMENT_3D ( 'NONE', #172, #292, #262 ) ;
#179 =( NAMED_UNIT ( * ) PLANE_ANGLE_UNIT ( ) SI_UNIT ( $, .RADIAN. ) );
#180 = LINE ( 'NONE', #294, #141 ) ;
#181 = DIRECTION ( 'NONE',  ( -0.000000000000000000, -1.000000000000000000, -0.000000000000000000 ) ) ;
#182 = DIRECTION ( 'NONE',  ( 0.7071067811865474617, -0.000000000000000000, 0.7071067811865474617 ) ) ;
#183 = DIRECTION ( 'NONE',  ( 1.000000000000000000, 0.000000000000000000, 0.000000000000000000 ) ) ;
#184 = EDGE_CURVE ( 'NONE', #120, #244, #201, .T. ) ;
#185 = AXIS2_PLACEMENT_3D ( 'NONE', #187, #238, #192 ) ;
#186 = PRODUCT_DEFINITION_FORMATION_WITH_SPECIFIED_SOURCE ( 'ANY', '', #67, .NOT_KNOWN. ) ;
#187 = CARTESIAN_POINT ( 'NONE',  ( 0.000000000000000000, -1.249999999999999778, -0.2000000000000000111 ) ) ;
#188 = FILL_AREA_STYLE_COLOUR ( '', #245 ) ;
#189 = DIRECTION ( 'NONE',  ( 0.7071067811865479058, 0.000000000000000000, -0.7071067811865470176 ) ) ;
#190 = LINE ( 'NONE', #281, #254 ) ;
#191 = FILL_AREA_STYLE ('',( #188 ) ) ;
#192 = DIRECTION ( 'NONE',  ( 0.000000000000000000, 0.000000000000000000, 1.000000000000000000 ) ) ;
#193 = ADVANCED_FACE ( 'NONE', ( #5 ), #56, .T. ) ;
#194 = ORIENTED_EDGE ( 'NONE', *, *, #279, .T. ) ;
#195 =( BOUNDED_CURVE ( )  B_SPLINE_CURVE ( 3, ( #138, #169, #53, #139 ),
 .UNSPECIFIED., .F., .F. ) 
 B_SPLINE_CURVE_WITH_KNOTS ( ( 4, 4 ),
 ( 0.000000000000000000, 1.570796326794896780 ),
 .UNSPECIFIED. ) 
 CURVE ( )  GEOMETRIC_REPRESENTATION_ITEM ( )  RATIONAL_B_SPLINE_CURVE ( ( 1.000000000000000000, 0.8047378541243649375, 0.8047378541243649375, 1.000000000000000000 ) ) 
 REPRESENTATION_ITEM ( '' )  );
#196 = CARTESIAN_POINT ( 'NONE',  ( 0.2000000000000000111, -1.449999999999999956, -0.2000000000000000111 ) ) ;
#197 = DIRECTION ( 'NONE',  ( -0.7071067811865475727, 0.000000000000000000, -0.7071067811865475727 ) ) ;
#198 = ORIENTED_EDGE ( 'NONE', *, *, #216, .T. ) ;
#199 = EDGE_CURVE ( 'NONE', #102, #63, #125, .T. ) ;
#200 =( BOUNDED_CURVE ( )  B_SPLINE_CURVE ( 3, ( #301, #304, #135, #261 ),
 .UNSPECIFIED., .F., .F. ) 
 B_SPLINE_CURVE_WITH_KNOTS ( ( 4, 4 ),
 ( 3.141592653589793116, 4.712388980384688786 ),
 .UNSPECIFIED. ) 
 CURVE ( )  GEOMETRIC_REPRESENTATION_ITEM ( )  RATIONAL_B_SPLINE_CURVE ( ( 1.000000000000000000, 0.8047378541243652705, 0.8047378541243652705, 1.000000000000000000 ) ) 
 REPRESENTATION_ITEM ( '' )  );
#201 = LINE ( 'NONE', #242, #273 ) ;
#202 = AXIS2_PLACEMENT_3D ( 'NONE', #1, #240, #26 ) ;
#203 = ORIENTED_EDGE ( 'NONE', *, *, #23, .T. ) ;
#204 = ORIENTED_EDGE ( 'NONE', *, *, #208, .T. ) ;
#205 = ORIENTED_EDGE ( 'NONE', *, *, #300, .T. ) ;
#206 = EDGE_LOOP ( 'NONE', ( #194, #198, #65, #80 ) ) ;
#207 = CARTESIAN_POINT ( 'NONE',  ( 0.000000000000000000, 1.449999999999999956, 0.000000000000000000 ) ) ;
#208 = EDGE_CURVE ( 'NONE', #244, #276, #160, .T. ) ;
#209 = FACE_OUTER_BOUND ( 'NONE', #36, .T. ) ;
#210 = VECTOR ( 'NONE', #181, 1000.000000000000000 ) ;
#211 = CARTESIAN_POINT ( 'NONE',  ( 0.4000000000000000222, 1.449999999999999956, -0.4000000000000000222 ) ) ;
#212 = DIRECTION ( 'NONE',  ( 1.000000000000000000, 0.000000000000000000, 4.222919997059849484E-18 ) ) ;
#213 = DIRECTION ( 'NONE',  ( -0.7071067811865474617, 0.000000000000000000, -0.7071067811865474617 ) ) ;
#214 = FACE_OUTER_BOUND ( 'NONE', #39, .T. ) ;
#215 = FACE_OUTER_BOUND ( 'NONE', #75, .T. ) ;
#216 = EDGE_CURVE ( 'NONE', #84, #54, #163, .T. ) ;
#217 = DIRECTION ( 'NONE',  ( 4.222919997059849484E-18, 0.000000000000000000, -1.000000000000000000 ) ) ;
#218 = ORIENTED_EDGE ( 'NONE', *, *, #76, .T. ) ;
#219 = AXIS2_PLACEMENT_3D ( 'NONE', #119, #32, #287 ) ;
#220 = CARTESIAN_POINT ( 'NONE',  ( 1.224646799147356350E-17, 1.050000000000000044, -2.899999999999999911 ) ) ;
#221 = EDGE_LOOP ( 'NONE', ( #17, #14, #293, #143 ) ) ;
#222 = APPLICATION_CONTEXT ( 'automotive_design' ) ;
#223 = EDGE_LOOP ( 'NONE', ( #12, #58, #203 ) ) ;
#224 = CARTESIAN_POINT ( 'NONE',  ( -1.084202172485504434E-16, 1.284314575050762075, -2.899999999999999467 ) ) ;
#225 = PRESENTATION_LAYER_ASSIGNMENT (  '', '', ( #147 ) ) ;
#226 = CARTESIAN_POINT ( 'NONE',  ( 0.000000000000000000, 0.000000000000000000, 0.000000000000000000 ) ) ;
#227 = ORIENTED_EDGE ( 'NONE', *, *, #228, .F. ) ;
#228 = EDGE_CURVE ( 'NONE', #267, #84, #171, .T. ) ;
#229 = ORIENTED_EDGE ( 'NONE', *, *, #103, .F. ) ;
#230 = APPLICATION_PROTOCOL_DEFINITION ( 'draft international standard', 'automotive_design', 1998, #222 ) ;
#231 = CARTESIAN_POINT ( 'NONE',  ( 2.899999999999999911, -1.249999999999999778, 0.000000000000000000 ) ) ;
#232 = CARTESIAN_POINT ( 'NONE',  ( 1.224646799147356350E-17, -1.249999999999999778, -2.899999999999999911 ) ) ;
#233 = CARTESIAN_POINT ( 'NONE',  ( 1.224646799147356350E-17, 1.050000000000000044, -2.899999999999999911 ) ) ;
#234 = CARTESIAN_POINT ( 'NONE',  ( 2.758578643762690241, -1.249999999999999778, 0.1414213562373095034 ) ) ;
#235 =( GEOMETRIC_REPRESENTATION_CONTEXT ( 3 ) GLOBAL_UNCERTAINTY_ASSIGNED_CONTEXT ( ( #109 ) ) GLOBAL_UNIT_ASSIGNED_CONTEXT ( ( #108, #110, #134 ) ) REPRESENTATION_CONTEXT ( 'NONE', 'WORKASPACE' ) );
#236 = SURFACE_SIDE_STYLE ('',( #259 ) ) ;
#237 = SURFACE_STYLE_USAGE ( .BOTH. , #236 ) ;
#238 = DIRECTION ( 'NONE',  ( -1.000000000000000000, 0.000000000000000000, 0.000000000000000000 ) ) ;
#239 = VECTOR ( 'NONE', #277, 1000.000000000000000 ) ;
#240 = DIRECTION ( 'NONE',  ( 1.000000000000000000, -0.000000000000000000, 4.222919997059849484E-18 ) ) ;
#241 = PLANE ( 'NONE',  #219 ) ;
#242 = CARTESIAN_POINT ( 'NONE',  ( 1.167157287525380616, 1.449999999999999956, -1.167157287525380616 ) ) ;
#243 = PLANE ( 'NONE',  #178 ) ;
#244 = VERTEX_POINT ( 'NONE', #10 ) ;
#245 = COLOUR_RGB ( '',0.7921568627450980005, 0.8196078431372548767, 0.9333333333333333481 ) ;
#246 = FACE_OUTER_BOUND ( 'NONE', #60, .T. ) ;
#247 = ORIENTED_EDGE ( 'NONE', *, *, #76, .F. ) ;
#248 = CARTESIAN_POINT ( 'NONE',  ( 1.167157287525380616, 1.050000000000000044, -1.167157287525380616 ) ) ;
#249 = DIRECTION ( 'NONE',  ( 1.000000000000000000, 0.000000000000000000, 0.000000000000000000 ) ) ;
#250 = ORIENTED_EDGE ( 'NONE', *, *, #111, .F. ) ;
#251 = CARTESIAN_POINT ( 'NONE',  ( 0.000000000000000000, -1.249999999999999778, -8.445839994119698968E-19 ) ) ;
#252 = ADVANCED_FACE ( 'NONE', ( #246 ), #243, .T. ) ;
#253 = ORIENTED_EDGE ( 'NONE', *, *, #111, .T. ) ;
#254 = VECTOR ( 'NONE', #44, 1000.000000000000114 ) ;
#255 = LINE ( 'NONE', #275, #112 ) ;
#256 = DIRECTION ( 'NONE',  ( -0.000000000000000000, -1.000000000000000000, -0.000000000000000000 ) ) ;
#257 = DIRECTION ( 'NONE',  ( 0.7071067811865475727, 0.000000000000000000, 0.7071067811865475727 ) ) ;
#258 = UNCERTAINTY_MEASURE_WITH_UNIT (LENGTH_MEASURE( 1.000000000000000082E-05 ), #148, 'distance_accuracy_value', 'NONE');
#259 = SURFACE_STYLE_FILL_AREA ( #191 ) ;
#260 = ADVANCED_FACE ( 'NONE', ( #173 ), #241, .F. ) ;
#261 = CARTESIAN_POINT ( 'NONE',  ( 2.417157287525380394, -1.449999999999999956, -0.2000000000000000111 ) ) ;
#262 = DIRECTION ( 'NONE',  ( 0.000000000000000000, -0.000000000000000000, -1.000000000000000000 ) ) ;
#263 = DIRECTION ( 'NONE',  ( -1.000000000000000000, -0.000000000000000000, -0.000000000000000000 ) ) ;
#264 = CYLINDRICAL_SURFACE ( 'NONE', #29, 0.2000000000000000111 ) ;
#265 = VERTEX_POINT ( 'NONE', #3 ) ;
#266 = CARTESIAN_POINT ( 'NONE',  ( -4.878909776184769953E-16, -1.367157287525381681, -2.900000000000000799 ) ) ;
#267 = VERTEX_POINT ( 'NONE', #99 ) ;
#268 = LINE ( 'NONE', #285, #295 ) ;
#269 = ORIENTED_EDGE ( 'NONE', *, *, #144, .F. ) ;
#270 = ADVANCED_FACE ( 'NONE', ( #48 ), #289, .T. ) ;
#271 = ORIENTED_EDGE ( 'NONE', *, *, #154, .T. ) ;
#272 = ORIENTED_EDGE ( 'NONE', *, *, #55, .T. ) ;
#273 = VECTOR ( 'NONE', #115, 1000.000000000000114 ) ;
#274 = APPLICATION_PROTOCOL_DEFINITION ( 'draft international standard', 'automotive_design', 1998, #303 ) ;
#275 = CARTESIAN_POINT ( 'NONE',  ( 0.000000000000000000, 1.449999999999999956, -0.4000000000000000222 ) ) ;
#276 = VERTEX_POINT ( 'NONE', #27 ) ;
#277 = DIRECTION ( 'NONE',  ( -1.000000000000000000, -0.000000000000000000, 0.000000000000000000 ) ) ;
#278 = DIRECTION ( 'NONE',  ( 0.000000000000000000, -1.000000000000000000, 0.000000000000000000 ) ) ;
#279 = EDGE_CURVE ( 'NONE', #265, #84, #268, .T. ) ;
#280 = CARTESIAN_POINT ( 'NONE',  ( -8.673617379884035472E-16, -1.249999999999999778, -2.900000000000000799 ) ) ;
#281 = CARTESIAN_POINT ( 'NONE',  ( 2.758578643762690241, -1.449999999999999956, 0.1414213562373096145 ) ) ;
#282 = ADVANCED_FACE ( 'NONE', ( #145 ), #264, .T. ) ;
#283 = LINE ( 'NONE', #280, #25 ) ;
#284 = AXIS2_PLACEMENT_3D ( 'NONE', #234, #257, #189 ) ;
#285 = CARTESIAN_POINT ( 'NONE',  ( 0.000000000000000000, 1.449999999999999956, 0.000000000000000000 ) ) ;
#286 = ORIENTED_EDGE ( 'NONE', *, *, #144, .T. ) ;
#287 = DIRECTION ( 'NONE',  ( 0.7071067811865474617, 0.000000000000000000, 0.7071067811865474617 ) ) ;
#288 = ORIENTED_EDGE ( 'NONE', *, *, #81, .T. ) ;
#289 = CYLINDRICAL_SURFACE ( 'NONE', #18, 0.4000000000000000222 ) ;
#290 = VECTOR ( 'NONE', #256, 1000.000000000000000 ) ;
#291 = EDGE_CURVE ( 'NONE', #101, #120, #195, .T. ) ;
#292 = DIRECTION ( 'NONE',  ( 0.000000000000000000, -1.000000000000000000, 0.000000000000000000 ) ) ;
#293 = ORIENTED_EDGE ( 'NONE', *, *, #154, .F. ) ;
#294 = CARTESIAN_POINT ( 'NONE',  ( 0.2000000000000000111, -1.449999999999999956, -2.899999999999999911 ) ) ;
#295 = VECTOR ( 'NONE', #57, 1000.000000000000000 ) ;
#296 = DIRECTION ( 'NONE',  ( 4.222919997059849484E-18, -0.000000000000000000, -1.000000000000000000 ) ) ;
#297 = DIRECTION ( 'NONE',  ( 0.000000000000000000, -0.000000000000000000, -1.000000000000000000 ) ) ;
#298 = CYLINDRICAL_SURFACE ( 'NONE', #185, 0.2000000000000000111 ) ;
#299 = VECTOR ( 'NONE', #124, 1000.000000000000000 ) ;
#300 = EDGE_CURVE ( 'NONE', #276, #101, #166, .T. ) ;
#301 = CARTESIAN_POINT ( 'NONE',  ( 2.899999999999999911, -1.249999999999999778, 0.000000000000000000 ) ) ;
#302 = DIRECTION ( 'NONE',  ( 0.000000000000000000, 0.000000000000000000, -1.000000000000000000 ) ) ;
#303 = APPLICATION_CONTEXT ( 'automotive_design' ) ;
#304 = CARTESIAN_POINT ( 'NONE',  ( 2.899999999999999467, -1.367157287525380793, -2.024928047806265097E-16 ) ) ;
ENDSEC;
END-ISO-10303-21;
