ISO-10303-21;
HEADER;
FILE_DESCRIPTION (( 'STEP AP214' ),
    '1' );
FILE_NAME ('Bladder_Mold_Cap.STEP',
    '2025-10-13T15:18:25',
    ( '' ),
    ( '' ),
    'SwSTEP 2.0',
    'SolidWorks 2025',
    '' );
FILE_SCHEMA (( 'AUTOMOTIVE_DESIGN' ));
ENDSEC;

DATA;
#1 = AXIS2_PLACEMENT_3D ( 'NONE', #641, #260, #803 ) ;
#2 = EDGE_LOOP ( 'NONE', ( #354, #724, #409, #607 ) ) ;
#3 = CARTESIAN_POINT ( 'NONE',  ( -7.350000000000002309, 3.500000000000000000, 1.500000000000000000 ) ) ;
#4 = EDGE_CURVE ( 'NONE', #429, #304, #800, .T. ) ;
#5 = CARTESIAN_POINT ( 'NONE',  ( -14.00000000000000000, 20.00000000000000355, -3.500000000000000000 ) ) ;
#6 = DIRECTION ( 'NONE',  ( -0.000000000000000000, 0.000000000000000000, 1.000000000000000000 ) ) ;
#7 = AXIS2_PLACEMENT_3D ( 'NONE', #49, #887, #191 ) ;
#8 = ORIENTED_EDGE ( 'NONE', *, *, #509, .F. ) ;
#9 = SURFACE_SIDE_STYLE ('',( #970 ) ) ;
#10 = DIRECTION ( 'NONE',  ( 1.000000000000000000, -2.312964634635742957E-16, 0.000000000000000000 ) ) ;
#11 = STYLED_ITEM ( 'NONE', ( #833 ), #126 ) ;
#12 = DIRECTION ( 'NONE',  ( 2.478176394252581141E-16, 1.000000000000000000, -0.000000000000000000 ) ) ;
#13 = ORIENTED_EDGE ( 'NONE', *, *, #271, .T. ) ;
#14 =( NAMED_UNIT ( * ) PLANE_ANGLE_UNIT ( ) SI_UNIT ( $, .RADIAN. ) );
#15 = DIRECTION ( 'NONE',  ( 1.000000000000000000, 0.000000000000000000, 0.000000000000000000 ) ) ;
#16 = FACE_OUTER_BOUND ( 'NONE', #2, .T. ) ;
#17 = CIRCLE ( 'NONE', #467, 6.349999999999998757 ) ;
#18 = ORIENTED_EDGE ( 'NONE', *, *, #382, .T. ) ;
#19 = DIRECTION ( 'NONE',  ( -1.000000000000000000, 0.000000000000000000, 0.000000000000000000 ) ) ;
#20 = DIRECTION ( 'NONE',  ( -1.000000000000000000, 2.478176394252581141E-16, 0.000000000000000000 ) ) ;
#21 = EDGE_CURVE ( 'NONE', #356, #155, #704, .T. ) ;
#22 = FACE_OUTER_BOUND ( 'NONE', #510, .T. ) ;
#23 = AXIS2_PLACEMENT_3D ( 'NONE', #393, #162, #469 ) ;
#24 = AXIS2_PLACEMENT_3D ( 'NONE', #247, #576, #790 ) ;
#25 = VECTOR ( 'NONE', #79, 1000.000000000000000 ) ;
#26 = PLANE ( 'NONE',  #345 ) ;
#27 = CARTESIAN_POINT ( 'NONE',  ( -9.350000000000003197, 5.499999999999998224, 1.500000000000000000 ) ) ;
#28 = CARTESIAN_POINT ( 'NONE',  ( -9.350000000000003197, 5.499999999999998224, 1.500000000000000000 ) ) ;
#29 = FACE_OUTER_BOUND ( 'NONE', #39, .T. ) ;
#30 = DIRECTION ( 'NONE',  ( 0.000000000000000000, 0.000000000000000000, 1.000000000000000000 ) ) ;
#31 = FACE_OUTER_BOUND ( 'NONE', #294, .T. ) ;
#32 = CARTESIAN_POINT ( 'NONE',  ( 9.350000000000003197, 5.499999999999998224, 1.500000000000000000 ) ) ;
#33 = ADVANCED_FACE ( 'NONE', ( #269 ), #581, .T. ) ;
#34 = AXIS2_PLACEMENT_3D ( 'NONE', #547, #30, #568 ) ;
#35 = CARTESIAN_POINT ( 'NONE',  ( 6.349999999999998757, 6.999999999999999112, -2.657593708528022347 ) ) ;
#36 = CIRCLE ( 'NONE', #629, 1.000000000000000888 ) ;
#37 = DIRECTION ( 'NONE',  ( 1.000000000000000000, 0.000000000000000000, 0.000000000000000000 ) ) ;
#38 = VECTOR ( 'NONE', #475, 1000.000000000000000 ) ;
#39 = EDGE_LOOP ( 'NONE', ( #418, #958, #670, #580 ) ) ;
#40 = ORIENTED_EDGE ( 'NONE', *, *, #973, .F. ) ;
#41 = LINE ( 'NONE', #45, #397 ) ;
#42 = ADVANCED_FACE ( 'NONE', ( #657 ), #117, .F. ) ;
#43 = CARTESIAN_POINT ( 'NONE',  ( -14.00000000000000000, 20.00000000000000355, -2.500000000000000000 ) ) ;
#44 = ORIENTED_EDGE ( 'NONE', *, *, #689, .F. ) ;
#45 = CARTESIAN_POINT ( 'NONE',  ( 7.350000000000002309, 3.500000000000000000, 1.500000000000000000 ) ) ;
#46 = FACE_OUTER_BOUND ( 'NONE', #969, .T. ) ;
#47 = ORIENTED_EDGE ( 'NONE', *, *, #560, .F. ) ;
#48 = AXIS2_PLACEMENT_3D ( 'NONE', #922, #853, #688 ) ;
#49 = CARTESIAN_POINT ( 'NONE',  ( 0.000000000000000000, 7.000000000000000000, -2.500000000000000000 ) ) ;
#50 = EDGE_CURVE ( 'NONE', #722, #793, #976, .T. ) ;
#51 = AXIS2_PLACEMENT_3D ( 'NONE', #601, #752, #740 ) ;
#52 = CYLINDRICAL_SURFACE ( 'NONE', #528, 0.9999999999999991118 ) ;
#53 = AXIS2_PLACEMENT_3D ( 'NONE', #434, #806, #963 ) ;
#54 = LINE ( 'NONE', #218, #810 ) ;
#55 = CARTESIAN_POINT ( 'NONE',  ( 13.99999999999999822, 20.99999999999999645, 0.000000000000000000 ) ) ;
#56 = CYLINDRICAL_SURFACE ( 'NONE', #381, 2.000000000000000000 ) ;
#57 = EDGE_CURVE ( 'NONE', #361, #472, #592, .T. ) ;
#58 = PLANE ( 'NONE',  #196 ) ;
#59 = CARTESIAN_POINT ( 'NONE',  ( 15.00000000000000533, 9.184850993605253208E-17, -2.500000000000000000 ) ) ;
#60 = ADVANCED_FACE ( 'NONE', ( #285 ), #52, .T. ) ;
#61 = CYLINDRICAL_SURFACE ( 'NONE', #851, 1.000000000000000888 ) ;
#62 = CARTESIAN_POINT ( 'NONE',  ( -7.076034034420497498, 6.233267437050257875, -3.479603649423729461 ) ) ;
#63 = EDGE_CURVE ( 'NONE', #278, #643, #477, .T. ) ;
#64 = CIRCLE ( 'NONE', #124, 1.000000000000000000 ) ;
#65 = EDGE_LOOP ( 'NONE', ( #875, #249, #47, #355 ) ) ;
#66 = VERTEX_POINT ( 'NONE', #205 ) ;
#67 = LINE ( 'NONE', #514, #179 ) ;
#68 = VECTOR ( 'NONE', #588, 1000.000000000000000 ) ;
#69 = CARTESIAN_POINT ( 'NONE',  ( -7.281655031653174071, 5.999999999999999112, -3.500000000000000000 ) ) ;
#70 = AXIS2_PLACEMENT_3D ( 'NONE', #867, #113, #329 ) ;
#71 = DIRECTION ( 'NONE',  ( -0.000000000000000000, 0.000000000000000000, 1.000000000000000000 ) ) ;
#72 = ORIENTED_EDGE ( 'NONE', *, *, #719, .F. ) ;
#73 = VERTEX_POINT ( 'NONE', #55 ) ;
#74 = EDGE_CURVE ( 'NONE', #674, #941, #67, .T. ) ;
#75 = ORIENTED_EDGE ( 'NONE', *, *, #4, .F. ) ;
#76 = DIRECTION ( 'NONE',  ( 0.000000000000000000, 0.000000000000000000, -1.000000000000000000 ) ) ;
#77 = CARTESIAN_POINT ( 'NONE',  ( -15.00000000000000533, 1.000000000000000222, -3.500000000000000000 ) ) ;
#78 = VERTEX_POINT ( 'NONE', #820 ) ;
#79 = DIRECTION ( 'NONE',  ( -0.000000000000000000, -0.000000000000000000, -1.000000000000000000 ) ) ;
#80 = CIRCLE ( 'NONE', #894, 9.350000000000004974 ) ;
#81 = CARTESIAN_POINT ( 'NONE',  ( -14.00000000000000533, 1.000000000000000000, -3.500000000000000000 ) ) ;
#82 = AXIS2_PLACEMENT_3D ( 'NONE', #920, #916, #235 ) ;
#83 = DIRECTION ( 'NONE',  ( 1.000000000000000000, 0.000000000000000000, 0.000000000000000000 ) ) ;
#84 = ORIENTED_EDGE ( 'NONE', *, *, #553, .T. ) ;
#85 = CARTESIAN_POINT ( 'NONE',  ( 6.349999999999998757, 6.999999999999999112, 0.000000000000000000 ) ) ;
#86 = CARTESIAN_POINT ( 'NONE',  ( -7.350000000000002309, 5.500000000000000000, 0.000000000000000000 ) ) ;
#87 = AXIS2_PLACEMENT_3D ( 'NONE', #519, #653, #351 ) ;
#88 = DIRECTION ( 'NONE',  ( 0.000000000000000000, -0.000000000000000000, 1.000000000000000000 ) ) ;
#89 = ADVANCED_FACE ( 'NONE', ( #141 ), #884, .T. ) ;
#90 = CYLINDRICAL_SURFACE ( 'NONE', #458, 1.000000000000000888 ) ;
#91 = ADVANCED_FACE ( 'NONE', ( #813 ), #61, .T. ) ;
#92 = CARTESIAN_POINT ( 'NONE',  ( 14.00000000000000533, 9.184850993605253208E-17, 0.000000000000000000 ) ) ;
#93 = AXIS2_PLACEMENT_3D ( 'NONE', #705, #101, #563 ) ;
#94 = DIRECTION ( 'NONE',  ( 0.000000000000000000, 0.000000000000000000, -1.000000000000000000 ) ) ;
#95 = LINE ( 'NONE', #395, #744 ) ;
#96 = LINE ( 'NONE', #28, #537 ) ;
#97 = ORIENTED_EDGE ( 'NONE', *, *, #506, .T. ) ;
#98 = AXIS2_PLACEMENT_3D ( 'NONE', #715, #721, #343 ) ;
#99 = VECTOR ( 'NONE', #386, 1000.000000000000000 ) ;
#100 = DIRECTION ( 'NONE',  ( 1.000000000000000000, 0.000000000000000000, 0.000000000000000000 ) ) ;
#101 = DIRECTION ( 'NONE',  ( -0.000000000000000000, 0.000000000000000000, 1.000000000000000000 ) ) ;
#102 = VECTOR ( 'NONE', #620, 1000.000000000000000 ) ;
#103 = ADVANCED_FACE ( 'NONE', ( #906 ), #671, .F. ) ;
#104 = CARTESIAN_POINT ( 'NONE',  ( -15.00000000000000533, 9.185108056716019460E-17, -2.500000000000000000 ) ) ;
#105 = CARTESIAN_POINT ( 'NONE',  ( -7.281655031653174071, 5.999999999999999112, -3.500000000000000000 ) ) ;
#106 = AXIS2_PLACEMENT_3D ( 'NONE', #489, #327, #797 ) ;
#107 = DIRECTION ( 'NONE',  ( -2.478176394252581141E-16, -1.000000000000000000, 0.000000000000000000 ) ) ;
#108 = ORIENTED_EDGE ( 'NONE', *, *, #4, .T. ) ;
#109 = ADVANCED_FACE ( 'NONE', ( #46 ), #340, .F. ) ;
#110 = LINE ( 'NONE', #956, #523 ) ;
#111 = ORIENTED_EDGE ( 'NONE', *, *, #584, .T. ) ;
#112 = VECTOR ( 'NONE', #399, 1000.000000000000000 ) ;
#113 = DIRECTION ( 'NONE',  ( -0.000000000000000000, 0.000000000000000000, 1.000000000000000000 ) ) ;
#114 = EDGE_LOOP ( 'NONE', ( #139, #298, #253 ) ) ;
#115 = EDGE_LOOP ( 'NONE', ( #267, #283, #567, #258 ) ) ;
#116 = CYLINDRICAL_SURFACE ( 'NONE', #546, 1.000000000000000888 ) ;
#117 = PLANE ( 'NONE',  #720 ) ;
#118 = ORIENTED_EDGE ( 'NONE', *, *, #74, .F. ) ;
#119 = ADVANCED_FACE ( 'NONE', ( #807 ), #961, .T. ) ;
#120 = DIRECTION ( 'NONE',  ( 0.000000000000000000, 0.000000000000000000, 1.000000000000000000 ) ) ;
#121 = ORIENTED_EDGE ( 'NONE', *, *, #389, .F. ) ;
#122 = FILL_AREA_STYLE ('',( #738 ) ) ;
#123 = DIRECTION ( 'NONE',  ( -0.000000000000000000, -0.000000000000000000, -1.000000000000000000 ) ) ;
#124 = AXIS2_PLACEMENT_3D ( 'NONE', #699, #237, #539 ) ;
#125 =( NAMED_UNIT ( * ) SI_UNIT ( $, .STERADIAN. ) SOLID_ANGLE_UNIT ( ) );
#126 = MANIFOLD_SOLID_BREP ( 'Fillet1', #350 ) ;
#127 = ORIENTED_EDGE ( 'NONE', *, *, #256, .F. ) ;
#128 = DIRECTION ( 'NONE',  ( 1.000000000000000000, 0.000000000000000000, 0.000000000000000000 ) ) ;
#129 = CARTESIAN_POINT ( 'NONE',  ( -14.00000000000000533, 1.000000000000000000, -2.500000000000000000 ) ) ;
#130 = SURFACE_SIDE_STYLE ('',( #907 ) ) ;
#131 = EDGE_CURVE ( 'NONE', #511, #818, #387, .T. ) ;
#132 = ORIENTED_EDGE ( 'NONE', *, *, #320, .T. ) ;
#133 = EDGE_CURVE ( 'NONE', #812, #566, #372, .T. ) ;
#134 = CARTESIAN_POINT ( 'NONE',  ( 0.000000000000000000, 6.999999999999999112, 1.500000000000000000 ) ) ;
#135 = VECTOR ( 'NONE', #246, 1000.000000000000000 ) ;
#136 = LINE ( 'NONE', #444, #609 ) ;
#137 =( LENGTH_UNIT ( ) NAMED_UNIT ( * ) SI_UNIT ( .MILLI., .METRE. ) );
#138 = ORIENTED_EDGE ( 'NONE', *, *, #480, .T. ) ;
#139 = ORIENTED_EDGE ( 'NONE', *, *, #411, .T. ) ;
#140 = ORIENTED_EDGE ( 'NONE', *, *, #599, .T. ) ;
#141 = FACE_OUTER_BOUND ( 'NONE', #114, .T. ) ;
#142 = CARTESIAN_POINT ( 'NONE',  ( 4.857225732735060653E-15, 21.00000000000000000, -2.500000000000000000 ) ) ;
#143 =( NAMED_UNIT ( * ) PLANE_ANGLE_UNIT ( ) SI_UNIT ( $, .RADIAN. ) );
#144 = EDGE_CURVE ( 'NONE', #362, #66, #613, .T. ) ;
#145 = EDGE_LOOP ( 'NONE', ( #252, #662, #491, #228, #646, #500 ) ) ;
#146 = ORIENTED_EDGE ( 'NONE', *, *, #584, .F. ) ;
#147 = VECTOR ( 'NONE', #120, 1000.000000000000000 ) ;
#148 = AXIS2_PLACEMENT_3D ( 'NONE', #43, #642, #251 ) ;
#149 = ADVANCED_FACE ( 'NONE', ( #223 ), #926, .T. ) ;
#150 = EDGE_CURVE ( 'NONE', #219, #986, #531, .T. ) ;
#151 = ORIENTED_EDGE ( 'NONE', *, *, #133, .F. ) ;
#152 = FACE_OUTER_BOUND ( 'NONE', #316, .T. ) ;
#153 = ADVANCED_FACE ( 'NONE', ( #152 ), #667, .T. ) ;
#154 = CARTESIAN_POINT ( 'NONE',  ( -0.000000000000000000, 3.500000000000000000, 0.000000000000000000 ) ) ;
#155 = VERTEX_POINT ( 'NONE', #85 ) ;
#156 = PLANE ( 'NONE',  #589 ) ;
#157 = FACE_OUTER_BOUND ( 'NONE', #439, .T. ) ;
#158 = CYLINDRICAL_SURFACE ( 'NONE', #23, 6.349999999999998757 ) ;
#159 = CARTESIAN_POINT ( 'NONE',  ( 0.000000000000000000, 7.000000000000000000, -2.500000000000000000 ) ) ;
#160 = FACE_BOUND ( 'NONE', #376, .T. ) ;
#161 = VECTOR ( 'NONE', #335, 1000.000000000000000 ) ;
#162 = DIRECTION ( 'NONE',  ( 0.000000000000000000, 0.000000000000000000, 1.000000000000000000 ) ) ;
#163 = ADVANCED_FACE ( 'NONE', ( #837 ), #156, .T. ) ;
#164 = EDGE_CURVE ( 'NONE', #325, #832, #452, .T. ) ;
#165 = DIRECTION ( 'NONE',  ( 0.000000000000000000, -0.000000000000000000, -1.000000000000000000 ) ) ;
#166 = CARTESIAN_POINT ( 'NONE',  ( 14.00000000000000533, 1.000000000000000000, -3.500000000000000000 ) ) ;
#167 = CARTESIAN_POINT ( 'NONE',  ( -9.350000000000004974, 7.000000000000002665, 1.500000000000000000 ) ) ;
#168 = LINE ( 'NONE', #685, #310 ) ;
#169 = DIRECTION ( 'NONE',  ( -0.000000000000000000, 0.000000000000000000, 1.000000000000000000 ) ) ;
#170 = AXIS2_PLACEMENT_3D ( 'NONE', #231, #20, #453 ) ;
#171 = ORIENTED_EDGE ( 'NONE', *, *, #741, .F. ) ;
#172 = CIRCLE ( 'NONE', #326, 6.349999999999998757 ) ;
#173 = DIRECTION ( 'NONE',  ( 1.000000000000000000, 0.000000000000000000, 0.000000000000000000 ) ) ;
#174 = B_SPLINE_CURVE_WITH_KNOTS ( 'NONE', 3,
 ( #637, #35, #254, #876, #425, #570, #865, #630, #402, #178 ),
 .UNSPECIFIED., .F., .F.,
 ( 4, 2, 2, 2, 4 ),
 ( 0.000000000000000000, 0.0004645345649724972876, 0.0009290691299449945753, 0.001393603694917491809, 0.001858138259889989151 ),
 .UNSPECIFIED. ) ;
#175 = ORIENTED_EDGE ( 'NONE', *, *, #840, .F. ) ;
#176 = DIRECTION ( 'NONE',  ( -1.000000000000000000, -0.000000000000000000, -0.000000000000000000 ) ) ;
#177 = SHAPE_DEFINITION_REPRESENTATION ( #412, #414 ) ;
#178 = CARTESIAN_POINT ( 'NONE',  ( 7.281655031653174071, 5.999999999999999112, -3.500000000000000000 ) ) ;
#179 = VECTOR ( 'NONE', #982, 1000.000000000000000 ) ;
#180 = CARTESIAN_POINT ( 'NONE',  ( -14.00000000000000533, 1.000000000000000000, -3.500000000000000000 ) ) ;
#181 = CARTESIAN_POINT ( 'NONE',  ( -9.350000000000004974, 7.000000000000002665, 1.500000000000000000 ) ) ;
#182 = CARTESIAN_POINT ( 'NONE',  ( 0.000000000000000000, 3.500000000000000000, 1.500000000000000000 ) ) ;
#183 = ORIENTED_EDGE ( 'NONE', *, *, #702, .F. ) ;
#184 = EDGE_LOOP ( 'NONE', ( #616, #877, #118, #485 ) ) ;
#185 = ORIENTED_EDGE ( 'NONE', *, *, #227, .T. ) ;
#186 = CIRCLE ( 'NONE', #939, 6.349999999999998757 ) ;
#187 = ORIENTED_EDGE ( 'NONE', *, *, #144, .F. ) ;
#188 = ADVANCED_FACE ( 'NONE', ( #757 ), #229, .T. ) ;
#189 = ORIENTED_EDGE ( 'NONE', *, *, #302, .F. ) ;
#190 = ORIENTED_EDGE ( 'NONE', *, *, #572, .F. ) ;
#191 = DIRECTION ( 'NONE',  ( 1.000000000000000000, 0.000000000000000000, 0.000000000000000000 ) ) ;
#192 = DIRECTION ( 'NONE',  ( 0.000000000000000000, -0.000000000000000000, 1.000000000000000000 ) ) ;
#193 = DIRECTION ( 'NONE',  ( -0.000000000000000000, -0.000000000000000000, -1.000000000000000000 ) ) ;
#194 = CIRCLE ( 'NONE', #427, 0.9999999999999991118 ) ;
#195 = CARTESIAN_POINT ( 'NONE',  ( -14.00000000000000000, 20.00000000000000355, -3.500000000000000000 ) ) ;
#196 = AXIS2_PLACEMENT_3D ( 'NONE', #736, #353, #585 ) ;
#197 = DIRECTION ( 'NONE',  ( 0.000000000000000000, 0.000000000000000000, 1.000000000000000000 ) ) ;
#198 = EDGE_CURVE ( 'NONE', #799, #915, #536, .T. ) ;
#199 = VECTOR ( 'NONE', #784, 1000.000000000000000 ) ;
#200 = DIRECTION ( 'NONE',  ( -1.000000000000000000, 0.000000000000000000, 0.000000000000000000 ) ) ;
#201 = CIRCLE ( 'NONE', #765, 6.349999999999998757 ) ;
#202 = FACE_OUTER_BOUND ( 'NONE', #145, .T. ) ;
#203 = VERTEX_POINT ( 'NONE', #380 ) ;
#204 = ORIENTED_EDGE ( 'NONE', *, *, #695, .T. ) ;
#205 = CARTESIAN_POINT ( 'NONE',  ( -7.350000000000002309, 3.500000000000000000, 0.000000000000000000 ) ) ;
#206 = AXIS2_PLACEMENT_3D ( 'NONE', #134, #436, #192 ) ;
#207 = CARTESIAN_POINT ( 'NONE',  ( -0.000000000000000000, 5.999999999999999112, -2.500000000000000000 ) ) ;
#208 = ORIENTED_EDGE ( 'NONE', *, *, #333, .T. ) ;
#209 = ORIENTED_EDGE ( 'NONE', *, *, #479, .F. ) ;
#210 = DIRECTION ( 'NONE',  ( 1.000000000000000000, -2.168404344971006896E-16, 0.000000000000000000 ) ) ;
#211 = CARTESIAN_POINT ( 'NONE',  ( 7.349999999999998757, 7.000000000000000000, -3.500000000000000000 ) ) ;
#212 = VECTOR ( 'NONE', #614, 1000.000000000000000 ) ;
#213 = ORIENTED_EDGE ( 'NONE', *, *, #315, .F. ) ;
#214 = EDGE_CURVE ( 'NONE', #883, #948, #925, .T. ) ;
#215 = DIRECTION ( 'NONE',  ( 0.000000000000000000, -1.000000000000000000, 0.000000000000000000 ) ) ;
#216 = AXIS2_PLACEMENT_3D ( 'NONE', #979, #288, #730 ) ;
#217 = VECTOR ( 'NONE', #971, 1000.000000000000000 ) ;
#218 = CARTESIAN_POINT ( 'NONE',  ( -15.00000000000000000, 20.00000000000000355, -3.500000000000000000 ) ) ;
#219 = VERTEX_POINT ( 'NONE', #627 ) ;
#220 = VECTOR ( 'NONE', #197, 1000.000000000000000 ) ;
#221 = CARTESIAN_POINT ( 'NONE',  ( 7.350000000000002309, 5.500000000000000000, 0.000000000000000000 ) ) ;
#222 = CARTESIAN_POINT ( 'NONE',  ( 0.000000000000000000, 7.000000000000000000, 1.500000000000000000 ) ) ;
#223 = FACE_OUTER_BOUND ( 'NONE', #115, .T. ) ;
#224 = LINE ( 'NONE', #77, #212 ) ;
#225 = EDGE_CURVE ( 'NONE', #728, #511, #785, .T. ) ;
#226 = CYLINDRICAL_SURFACE ( 'NONE', #960, 9.350000000000004974 ) ;
#227 = EDGE_CURVE ( 'NONE', #742, #908, #931, .T. ) ;
#228 = ORIENTED_EDGE ( 'NONE', *, *, #506, .F. ) ;
#229 = SPHERICAL_SURFACE ( 'NONE', #366, 1.000000000000000000 ) ;
#230 = AXIS2_PLACEMENT_3D ( 'NONE', #207, #672, #287 ) ;
#231 = CARTESIAN_POINT ( 'NONE',  ( -15.00000000000000533, 3.717264591378872796E-15, -3.500000000000000000 ) ) ;
#232 = AXIS2_PLACEMENT_3D ( 'NONE', #159, #291, #305 ) ;
#233 = DIRECTION ( 'NONE',  ( -0.000000000000000000, 0.000000000000000000, 1.000000000000000000 ) ) ;
#234 = ORIENTED_EDGE ( 'NONE', *, *, #63, .T. ) ;
#235 = DIRECTION ( 'NONE',  ( 0.000000000000000000, 0.000000000000000000, 1.000000000000000000 ) ) ;
#236 = ADVANCED_FACE ( 'NONE', ( #792, #633 ), #26, .T. ) ;
#237 = DIRECTION ( 'NONE',  ( -0.000000000000000000, 1.000000000000000000, 0.000000000000000000 ) ) ;
#238 = AXIS2_PLACEMENT_3D ( 'NONE', #357, #507, #442 ) ;
#239 = DIRECTION ( 'NONE',  ( 9.912705577010326536E-16, 1.000000000000000000, 0.000000000000000000 ) ) ;
#240 = DIRECTION ( 'NONE',  ( -1.000000000000000000, 0.000000000000000000, 0.000000000000000000 ) ) ;
#241 = CARTESIAN_POINT ( 'NONE',  ( 6.349999999999998757, 6.999999999999999112, 1.500000000000000000 ) ) ;
#242 = EDGE_CURVE ( 'NONE', #325, #344, #872, .T. ) ;
#243 = CARTESIAN_POINT ( 'NONE',  ( 14.00000000000000533, 1.000000000000000000, 0.000000000000000000 ) ) ;
#244 = AXIS2_PLACEMENT_3D ( 'NONE', #726, #478, #415 ) ;
#245 = DIRECTION ( 'NONE',  ( -1.000000000000000000, -3.304235192336776498E-16, 0.000000000000000000 ) ) ;
#246 = DIRECTION ( 'NONE',  ( -0.000000000000000000, -0.000000000000000000, -1.000000000000000000 ) ) ;
#247 = CARTESIAN_POINT ( 'NONE',  ( 13.99999999999999822, 19.99999999999999645, -2.500000000000000000 ) ) ;
#248 = DIRECTION ( 'NONE',  ( -4.336808689942021680E-16, 1.000000000000000000, -0.000000000000000000 ) ) ;
#249 = ORIENTED_EDGE ( 'NONE', *, *, #420, .T. ) ;
#250 = FACE_OUTER_BOUND ( 'NONE', #403, .T. ) ;
#251 = DIRECTION ( 'NONE',  ( 0.000000000000000000, 0.000000000000000000, 1.000000000000000000 ) ) ;
#252 = ORIENTED_EDGE ( 'NONE', *, *, #959, .F. ) ;
#253 = ORIENTED_EDGE ( 'NONE', *, *, #63, .F. ) ;
#254 = CARTESIAN_POINT ( 'NONE',  ( 6.388457774167651593, 6.961725441628641597, -2.809143311000480647 ) ) ;
#255 = EDGE_CURVE ( 'NONE', #362, #798, #555, .T. ) ;
#256 = EDGE_CURVE ( 'NONE', #640, #643, #936, .T. ) ;
#257 = ORIENTED_EDGE ( 'NONE', *, *, #953, .T. ) ;
#258 = ORIENTED_EDGE ( 'NONE', *, *, #978, .F. ) ;
#259 = ORIENTED_EDGE ( 'NONE', *, *, #225, .T. ) ;
#260 = DIRECTION ( 'NONE',  ( 3.304235192336776498E-16, -1.000000000000000000, 0.000000000000000000 ) ) ;
#261 = ORIENTED_EDGE ( 'NONE', *, *, #689, .T. ) ;
#262 = CIRCLE ( 'NONE', #830, 1.000000000000000888 ) ;
#263 = AXIS2_PLACEMENT_3D ( 'NONE', #856, #94, #466 ) ;
#264 = DIRECTION ( 'NONE',  ( 1.000000000000000000, 0.000000000000000000, 0.000000000000000000 ) ) ;
#265 = CARTESIAN_POINT ( 'NONE',  ( -7.179648247977034714, 6.116939397140663814, -3.500000000000000000 ) ) ;
#266 = FACE_OUTER_BOUND ( 'NONE', #639, .T. ) ;
#267 = ORIENTED_EDGE ( 'NONE', *, *, #980, .F. ) ;
#268 = ORIENTED_EDGE ( 'NONE', *, *, #783, .T. ) ;
#269 = FACE_OUTER_BOUND ( 'NONE', #836, .T. ) ;
#270 = DIRECTION ( 'NONE',  ( 0.000000000000000000, 0.000000000000000000, -1.000000000000000000 ) ) ;
#271 = EDGE_CURVE ( 'NONE', #753, #304, #636, .T. ) ;
#272 = CARTESIAN_POINT ( 'NONE',  ( 14.99999999999999822, 19.99999999999999645, -3.500000000000000000 ) ) ;
#273 = EDGE_LOOP ( 'NONE', ( #713, #590, #108, #487 ) ) ;
#274 = CARTESIAN_POINT ( 'NONE',  ( -7.350000000000002309, 3.500000000000000000, 1.500000000000000000 ) ) ;
#275 = FACE_OUTER_BOUND ( 'NONE', #289, .T. ) ;
#276 = STYLED_ITEM ( 'NONE', ( #815 ), #778 ) ;
#277 = ADVANCED_FACE ( 'NONE', ( #940, #416 ), #789, .F. ) ;
#278 = VERTEX_POINT ( 'NONE', #180 ) ;
#279 = CIRCLE ( 'NONE', #808, 1.000000000000000000 ) ;
#280 = ORIENTED_EDGE ( 'NONE', *, *, #827, .F. ) ;
#281 = CARTESIAN_POINT ( 'NONE',  ( -0.000000000000000000, 5.999999999999999112, -3.500000000000000000 ) ) ;
#282 = FACE_OUTER_BOUND ( 'NONE', #981, .T. ) ;
#283 = ORIENTED_EDGE ( 'NONE', *, *, #441, .F. ) ;
#284 = ORIENTED_EDGE ( 'NONE', *, *, #953, .F. ) ;
#285 = FACE_OUTER_BOUND ( 'NONE', #686, .T. ) ;
#286 = PRODUCT_DEFINITION_CONTEXT ( 'detailed design', #321, 'design' ) ;
#287 = DIRECTION ( 'NONE',  ( 0.000000000000000000, 0.000000000000000000, -1.000000000000000000 ) ) ;
#288 = DIRECTION ( 'NONE',  ( -2.312964634635742957E-16, -1.000000000000000000, 0.000000000000000000 ) ) ;
#289 = EDGE_LOOP ( 'NONE', ( #701, #952, #364, #204 ) ) ;
#290 = ORIENTED_EDGE ( 'NONE', *, *, #256, .T. ) ;
#291 = DIRECTION ( 'NONE',  ( -0.000000000000000000, 0.000000000000000000, 1.000000000000000000 ) ) ;
#292 = DIRECTION ( 'NONE',  ( 1.000000000000000000, -2.312964634635742957E-16, 0.000000000000000000 ) ) ;
#293 = PRODUCT_DEFINITION_FORMATION_WITH_SPECIFIED_SOURCE ( 'ANY', '', #770, .NOT_KNOWN. ) ;
#294 = EDGE_LOOP ( 'NONE', ( #401, #175, #451, #718 ) ) ;
#295 = TOROIDAL_SURFACE ( 'NONE', #7, 7.349999999999998757, 1.000000000000000000 ) ;
#296 = DIRECTION ( 'NONE',  ( -1.000000000000000000, 0.000000000000000000, 0.000000000000000000 ) ) ;
#297 = DIRECTION ( 'NONE',  ( 0.000000000000000000, -0.000000000000000000, -1.000000000000000000 ) ) ;
#298 = ORIENTED_EDGE ( 'NONE', *, *, #741, .T. ) ;
#299 = CARTESIAN_POINT ( 'NONE',  ( -14.00000000000000533, 9.184850993605253208E-17, -3.500000000000000000 ) ) ;
#300 = EDGE_CURVE ( 'NONE', #811, #818, #895, .T. ) ;
#301 = DIRECTION ( 'NONE',  ( 2.312964634635740492E-16, 1.000000000000000000, 0.000000000000000000 ) ) ;
#302 = EDGE_CURVE ( 'NONE', #640, #948, #846, .T. ) ;
#303 = CARTESIAN_POINT ( 'NONE',  ( -14.00000000000000000, 20.00000000000000355, 0.000000000000000000 ) ) ;
#304 = VERTEX_POINT ( 'NONE', #166 ) ;
#305 = DIRECTION ( 'NONE',  ( 1.000000000000000000, 0.000000000000000000, 0.000000000000000000 ) ) ;
#306 = DIRECTION ( 'NONE',  ( 0.000000000000000000, -0.000000000000000000, -1.000000000000000000 ) ) ;
#307 = CARTESIAN_POINT ( 'NONE',  ( 0.000000000000000000, 7.000000000000000000, -2.500000000000000000 ) ) ;
#308 = CIRCLE ( 'NONE', #582, 2.000000000000000000 ) ;
#309 = EDGE_CURVE ( 'NONE', #883, #640, #312, .T. ) ;
#310 = VECTOR ( 'NONE', #12, 1000.000000000000000 ) ;
#311 = DIRECTION ( 'NONE',  ( 1.000000000000000000, 0.000000000000000000, 0.000000000000000000 ) ) ;
#312 = CIRCLE ( 'NONE', #148, 1.000000000000000000 ) ;
#313 = FACE_OUTER_BOUND ( 'NONE', #562, .T. ) ;
#314 = DIRECTION ( 'NONE',  ( 1.000000000000000000, 4.336808689942013792E-16, 0.000000000000000000 ) ) ;
#315 = EDGE_CURVE ( 'NONE', #883, #429, #545, .T. ) ;
#316 = EDGE_LOOP ( 'NONE', ( #732, #417, #924 ) ) ;
#317 = CARTESIAN_POINT ( 'NONE',  ( 0.000000000000000000, 0.000000000000000000, 0.000000000000000000 ) ) ;
#318 = CARTESIAN_POINT ( 'NONE',  ( -9.350000000000003197, 5.499999999999998224, 0.000000000000000000 ) ) ;
#319 = ORIENTED_EDGE ( 'NONE', *, *, #929, .T. ) ;
#320 = EDGE_CURVE ( 'NONE', #728, #811, #880, .T. ) ;
#321 = APPLICATION_CONTEXT ( 'automotive_design' ) ;
#322 = CARTESIAN_POINT ( 'NONE',  ( 15.00000000000000533, 4.956352788505165832E-15, -3.500000000000000000 ) ) ;
#323 = CARTESIAN_POINT ( 'NONE',  ( -7.350000000000002309, 5.500000000000000000, 1.500000000000000000 ) ) ;
#324 = CARTESIAN_POINT ( 'NONE',  ( -0.000000000000000000, 6.999999999999999112, -2.500000000000000000 ) ) ;
#325 = VERTEX_POINT ( 'NONE', #32 ) ;
#326 = AXIS2_PLACEMENT_3D ( 'NONE', #972, #375, #809 ) ;
#327 = DIRECTION ( 'NONE',  ( -0.000000000000000000, 0.000000000000000000, 1.000000000000000000 ) ) ;
#328 = ORIENTED_EDGE ( 'NONE', *, *, #677, .F. ) ;
#329 = DIRECTION ( 'NONE',  ( 1.000000000000000000, 0.000000000000000000, 0.000000000000000000 ) ) ;
#330 = EDGE_LOOP ( 'NONE', ( #13, #75, #379, #516 ) ) ;
#331 = ORIENTED_EDGE ( 'NONE', *, *, #827, .T. ) ;
#332 = EDGE_CURVE ( 'NONE', #338, #825, #698, .T. ) ;
#333 = EDGE_CURVE ( 'NONE', #915, #155, #711, .T. ) ;
#334 = CARTESIAN_POINT ( 'NONE',  ( -15.00000000000000533, 1.000000000000000222, -2.500000000000000000 ) ) ;
#335 = DIRECTION ( 'NONE',  ( 9.912705577010326536E-16, 1.000000000000000000, 0.000000000000000000 ) ) ;
#336 = ORIENTED_EDGE ( 'NONE', *, *, #870, .T. ) ;
#337 = LINE ( 'NONE', #644, #697 ) ;
#338 = VERTEX_POINT ( 'NONE', #400 ) ;
#339 = ORIENTED_EDGE ( 'NONE', *, *, #776, .F. ) ;
#340 = PLANE ( 'NONE',  #421 ) ;
#341 = AXIS2_PLACEMENT_3D ( 'NONE', #377, #680, #296 ) ;
#342 =( LENGTH_UNIT ( ) NAMED_UNIT ( * ) SI_UNIT ( .MILLI., .METRE. ) );
#343 = DIRECTION ( 'NONE',  ( -9.912705577010318647E-16, 1.000000000000000000, 0.000000000000000000 ) ) ;
#344 = VERTEX_POINT ( 'NONE', #951 ) ;
#345 = AXIS2_PLACEMENT_3D ( 'NONE', #780, #169, #861 ) ;
#346 = ADVANCED_FACE ( 'NONE', ( #29 ), #542, .F. ) ;
#347 = CARTESIAN_POINT ( 'NONE',  ( 14.00000000000000533, 1.000000000000000000, -3.500000000000000000 ) ) ;
#348 = FACE_OUTER_BOUND ( 'NONE', #826, .T. ) ;
#349 = CARTESIAN_POINT ( 'NONE',  ( -6.349999999999998757, 6.999999999999999112, 0.000000000000000000 ) ) ;
#350 = CLOSED_SHELL ( 'NONE', ( #521, #683, #526, #346, #163, #942, #764, #42, #277, #943, #153, #431, #866, #149, #91, #89, #33, #60, #659, #605, #668, #445, #188, #903 ) ) ;
#351 = DIRECTION ( 'NONE',  ( -1.000000000000000000, 0.000000000000000000, 0.000000000000000000 ) ) ;
#352 = DIRECTION ( 'NONE',  ( -1.000000000000000000, 0.000000000000000000, 0.000000000000000000 ) ) ;
#353 = DIRECTION ( 'NONE',  ( 0.000000000000000000, 1.000000000000000000, 0.000000000000000000 ) ) ;
#354 = ORIENTED_EDGE ( 'NONE', *, *, #587, .F. ) ;
#355 = ORIENTED_EDGE ( 'NONE', *, *, #133, .T. ) ;
#356 = VERTEX_POINT ( 'NONE', #404 ) ;
#357 = CARTESIAN_POINT ( 'NONE',  ( 14.00000000000000533, 1.000000000000000000, -2.500000000000000000 ) ) ;
#358 = CARTESIAN_POINT ( 'NONE',  ( -6.511838611591831416, 6.836398711746399570, -3.066500074446528057 ) ) ;
#359 = VECTOR ( 'NONE', #759, 1000.000000000000000 ) ;
#360 = FILL_AREA_STYLE_COLOUR ( '', #712 ) ;
#361 = VERTEX_POINT ( 'NONE', #983 ) ;
#362 = VERTEX_POINT ( 'NONE', #274 ) ;
#363 = AXIS2_PLACEMENT_3D ( 'NONE', #307, #465, #934 ) ;
#364 = ORIENTED_EDGE ( 'NONE', *, *, #959, .T. ) ;
#365 = DIRECTION ( 'NONE',  ( 0.000000000000000000, 0.000000000000000000, -1.000000000000000000 ) ) ;
#366 = AXIS2_PLACEMENT_3D ( 'NONE', #828, #751, #679 ) ;
#367 = CARTESIAN_POINT ( 'NONE',  ( -6.776459269511865280, 6.559874202143172184, -3.338264975009820112 ) ) ;
#368 = EDGE_CURVE ( 'NONE', #338, #948, #374, .T. ) ;
#369 = CARTESIAN_POINT ( 'NONE',  ( 4.857225732735060653E-15, 21.00000000000000000, 0.000000000000000000 ) ) ;
#370 = ORIENTED_EDGE ( 'NONE', *, *, #227, .F. ) ;
#371 = ORIENTED_EDGE ( 'NONE', *, *, #980, .T. ) ;
#372 = LINE ( 'NONE', #299, #373 ) ;
#373 = VECTOR ( 'NONE', #391, 1000.000000000000000 ) ;
#374 = LINE ( 'NONE', #142, #217 ) ;
#375 = DIRECTION ( 'NONE',  ( -0.000000000000000000, 0.000000000000000000, 1.000000000000000000 ) ) ;
#376 = EDGE_LOOP ( 'NONE', ( #339, #72 ) ) ;
#377 = CARTESIAN_POINT ( 'NONE',  ( 14.00000000000000533, 1.000000000000000000, -2.500000000000000000 ) ) ;
#378 = CARTESIAN_POINT ( 'NONE',  ( 0.000000000000000000, 7.000000000000000000, -2.500000000000000000 ) ) ;
#379 = ORIENTED_EDGE ( 'NONE', *, *, #870, .F. ) ;
#380 = CARTESIAN_POINT ( 'NONE',  ( 14.00000000000000533, 9.184850993605253208E-17, -2.500000000000000000 ) ) ;
#381 = AXIS2_PLACEMENT_3D ( 'NONE', #739, #735, #352 ) ;
#382 = EDGE_CURVE ( 'NONE', #818, #722, #473, .T. ) ;
#383 = FACE_OUTER_BOUND ( 'NONE', #385, .T. ) ;
#384 = LINE ( 'NONE', #843, #112 ) ;
#385 = EDGE_LOOP ( 'NONE', ( #817, #975, #171, #151 ) ) ;
#386 = DIRECTION ( 'NONE',  ( 3.304235192336776005E-16, -1.000000000000000000, 0.000000000000000000 ) ) ;
#387 = CIRCLE ( 'NONE', #512, 1.000000000000000888 ) ;
#388 = CYLINDRICAL_SURFACE ( 'NONE', #631, 1.000000000000000888 ) ;
#389 = EDGE_CURVE ( 'NONE', #986, #753, #136, .T. ) ;
#390 = DIRECTION ( 'NONE',  ( -0.000000000000000000, -0.000000000000000000, -1.000000000000000000 ) ) ;
#391 = DIRECTION ( 'NONE',  ( -0.000000000000000000, -0.000000000000000000, -1.000000000000000000 ) ) ;
#392 = DIRECTION ( 'NONE',  ( 0.000000000000000000, 0.000000000000000000, 1.000000000000000000 ) ) ;
#393 = CARTESIAN_POINT ( 'NONE',  ( 0.000000000000000000, 7.000000000000000000, -3.500000000000000000 ) ) ;
#394 = CARTESIAN_POINT ( 'NONE',  ( 9.349999999999997868, -9.268379714504652343E-15, 1.500000000000000000 ) ) ;
#395 = CARTESIAN_POINT ( 'NONE',  ( -6.349999999999998757, 6.999999999999999112, -3.500000000000000000 ) ) ;
#396 = EDGE_CURVE ( 'NONE', #722, #511, #660, .T. ) ;
#397 = VECTOR ( 'NONE', #483, 1000.000000000000000 ) ;
#398 = VECTOR ( 'NONE', #37, 1000.000000000000000 ) ;
#399 = DIRECTION ( 'NONE',  ( 1.000000000000000000, 0.000000000000000000, 0.000000000000000000 ) ) ;
#400 = CARTESIAN_POINT ( 'NONE',  ( 13.99999999999999822, 20.99999999999999645, -2.500000000000000000 ) ) ;
#401 = ORIENTED_EDGE ( 'NONE', *, *, #771, .F. ) ;
#402 = CARTESIAN_POINT ( 'NONE',  ( 7.179867065389056613, 6.116688547390054076, -3.500000000000000444 ) ) ;
#403 = EDGE_LOOP ( 'NONE', ( #449, #132, #788 ) ) ;
#404 = CARTESIAN_POINT ( 'NONE',  ( 6.349999999999998757, 6.999999999999999112, 1.500000000000000000 ) ) ;
#405 = LINE ( 'NONE', #493, #147 ) ;
#406 = EDGE_LOOP ( 'NONE', ( #328, #190, #565, #187 ) ) ;
#407 = CARTESIAN_POINT ( 'NONE',  ( 14.00000000000000533, 1.000000000000000000, -2.500000000000000000 ) ) ;
#408 = ADVANCED_FACE ( 'NONE', ( #348 ), #654, .T. ) ;
#409 = ORIENTED_EDGE ( 'NONE', *, *, #300, .F. ) ;
#410 = ORIENTED_EDGE ( 'NONE', *, *, #255, .T. ) ;
#411 = EDGE_CURVE ( 'NONE', #278, #566, #279, .T. ) ;
#412 = PRODUCT_DEFINITION_SHAPE ( 'NONE', 'NONE',  #899 ) ;
#413 = DIRECTION ( 'NONE',  ( 0.000000000000000000, 0.000000000000000000, -1.000000000000000000 ) ) ;
#414 = ADVANCED_BREP_SHAPE_REPRESENTATION ( 'Bladder_Mold_Cap', ( #778, #126, #34 ), #727 ) ;
#415 = DIRECTION ( 'NONE',  ( 1.000000000000000000, 0.000000000000000000, 0.000000000000000000 ) ) ;
#416 = FACE_OUTER_BOUND ( 'NONE', #273, .T. ) ;
#417 = ORIENTED_EDGE ( 'NONE', *, *, #396, .F. ) ;
#418 = ORIENTED_EDGE ( 'NONE', *, *, #733, .T. ) ;
#419 = DIRECTION ( 'NONE',  ( 1.000000000000000000, 0.000000000000000000, 0.000000000000000000 ) ) ;
#420 = EDGE_CURVE ( 'NONE', #203, #482, #977, .T. ) ;
#421 = AXIS2_PLACEMENT_3D ( 'NONE', #889, #574, #648 ) ;
#422 = DIRECTION ( 'NONE',  ( 0.000000000000000000, 0.000000000000000000, -1.000000000000000000 ) ) ;
#423 = EDGE_LOOP ( 'NONE', ( #44, #259, #319, #888 ) ) ;
#424 =( NAMED_UNIT ( * ) PLANE_ANGLE_UNIT ( ) SI_UNIT ( $, .RADIAN. ) );
#425 = CARTESIAN_POINT ( 'NONE',  ( 6.594225246727460465, 6.751731980294243485, -3.171599944349445366 ) ) ;
#426 = ADVANCED_FACE ( 'NONE', ( #498 ), #56, .T. ) ;
#427 = AXIS2_PLACEMENT_3D ( 'NONE', #303, #615, #918 ) ;
#428 = ORIENTED_EDGE ( 'NONE', *, *, #21, .T. ) ;
#429 = VERTEX_POINT ( 'NONE', #658 ) ;
#430 = DIRECTION ( 'NONE',  ( -0.000000000000000000, 0.000000000000000000, -1.000000000000000000 ) ) ;
#431 = ADVANCED_FACE ( 'NONE', ( #282 ), #594, .T. ) ;
#432 = ORIENTED_EDGE ( 'NONE', *, *, #214, .T. ) ;
#433 = DIRECTION ( 'NONE',  ( 0.000000000000000000, -0.000000000000000000, -1.000000000000000000 ) ) ;
#434 = CARTESIAN_POINT ( 'NONE',  ( 0.000000000000000000, 7.000000000000000000, -3.500000000000000000 ) ) ;
#435 = CARTESIAN_POINT ( 'NONE',  ( 0.000000000000000000, 7.000000000000000000, 0.000000000000000000 ) ) ;
#436 = DIRECTION ( 'NONE',  ( 0.000000000000000000, 1.000000000000000000, 0.000000000000000000 ) ) ;
#437 = CARTESIAN_POINT ( 'NONE',  ( -6.594222077132613435, 6.751735259529794142, -3.171596151070970038 ) ) ;
#438 = PLANE ( 'NONE',  #48 ) ;
#439 = EDGE_LOOP ( 'NONE', ( #505, #455, #513, #140, #185, #737, #669, #111 ) ) ;
#440 = APPLICATION_CONTEXT ( 'automotive_design' ) ;
#441 = EDGE_CURVE ( 'NONE', #566, #203, #600, .T. ) ;
#442 = DIRECTION ( 'NONE',  ( 0.000000000000000000, 0.000000000000000000, -1.000000000000000000 ) ) ;
#443 = UNCERTAINTY_MEASURE_WITH_UNIT (LENGTH_MEASURE( 1.000000000000000082E-05 ), #342, 'distance_accuracy_value', 'NONE');
#444 = CARTESIAN_POINT ( 'NONE',  ( 15.00000000000000533, 1.000000000000000444, -3.500000000000000000 ) ) ;
#445 = ADVANCED_FACE ( 'NONE', ( #313 ), #914, .T. ) ;
#446 = PLANE ( 'NONE',  #216 ) ;
#447 = ORIENTED_EDGE ( 'NONE', *, *, #913, .F. ) ;
#448 = AXIS2_PLACEMENT_3D ( 'NONE', #928, #544, #850 ) ;
#449 = ORIENTED_EDGE ( 'NONE', *, *, #628, .F. ) ;
#450 =( LENGTH_UNIT ( ) NAMED_UNIT ( * ) SI_UNIT ( .MILLI., .METRE. ) );
#451 = ORIENTED_EDGE ( 'NONE', *, *, #332, .F. ) ;
#452 = LINE ( 'NONE', #754, #796 ) ;
#453 = DIRECTION ( 'NONE',  ( -2.478176394252581141E-16, -1.000000000000000000, 0.000000000000000000 ) ) ;
#454 = ADVANCED_FACE ( 'NONE', ( #548 ), #226, .T. ) ;
#455 = ORIENTED_EDGE ( 'NONE', *, *, #771, .T. ) ;
#456 = DIRECTION ( 'NONE',  ( 0.000000000000000000, -0.000000000000000000, -1.000000000000000000 ) ) ;
#457 = DIRECTION ( 'NONE',  ( 0.000000000000000000, 0.000000000000000000, 1.000000000000000000 ) ) ;
#458 = AXIS2_PLACEMENT_3D ( 'NONE', #81, #457, #15 ) ;
#459 = DIRECTION ( 'NONE',  ( 0.000000000000000000, 1.000000000000000000, -0.000000000000000000 ) ) ;
#460 = ORIENTED_EDGE ( 'NONE', *, *, #225, .F. ) ;
#461 = AXIS2_PLACEMENT_3D ( 'NONE', #407, #248, #314 ) ;
#462 = PLANE ( 'NONE',  #892 ) ;
#463 = FACE_OUTER_BOUND ( 'NONE', #330, .T. ) ;
#464 = PLANE ( 'NONE',  #170 ) ;
#465 = DIRECTION ( 'NONE',  ( -0.000000000000000000, 0.000000000000000000, 1.000000000000000000 ) ) ;
#466 = DIRECTION ( 'NONE',  ( -1.000000000000000000, 0.000000000000000000, 0.000000000000000000 ) ) ;
#467 = AXIS2_PLACEMENT_3D ( 'NONE', #378, #297, #83 ) ;
#468 = DIRECTION ( 'NONE',  ( 1.000000000000000000, 0.000000000000000000, 0.000000000000000000 ) ) ;
#469 = DIRECTION ( 'NONE',  ( 1.000000000000000000, 0.000000000000000000, 0.000000000000000000 ) ) ;
#470 = CARTESIAN_POINT ( 'NONE',  ( -0.000000000000000000, 6.999999999999999112, 0.000000000000000000 ) ) ;
#471 = CIRCLE ( 'NONE', #51, 1.000000000000000888 ) ;
#472 = VERTEX_POINT ( 'NONE', #318 ) ;
#473 = CIRCLE ( 'NONE', #53, 7.349999999999998757 ) ;
#474 = DIRECTION ( 'NONE',  ( -0.000000000000000000, 0.000000000000000000, 1.000000000000000000 ) ) ;
#475 = DIRECTION ( 'NONE',  ( 1.000000000000000000, -2.312964634635742957E-16, 0.000000000000000000 ) ) ;
#476 = ORIENTED_EDGE ( 'NONE', *, *, #368, .F. ) ;
#477 = CIRCLE ( 'NONE', #985, 1.000000000000000888 ) ;
#478 = DIRECTION ( 'NONE',  ( 0.000000000000000000, 0.000000000000000000, 1.000000000000000000 ) ) ;
#479 = EDGE_CURVE ( 'NONE', #356, #799, #186, .T. ) ;
#480 = EDGE_CURVE ( 'NONE', #832, #78, #839, .T. ) ;
#481 = CARTESIAN_POINT ( 'NONE',  ( 4.625929269271486111E-15, 20.00000000000000000, -3.500000000000000000 ) ) ;
#482 = VERTEX_POINT ( 'NONE', #92 ) ;
#483 = DIRECTION ( 'NONE',  ( -0.000000000000000000, -0.000000000000000000, 1.000000000000000000 ) ) ;
#484 = DIRECTION ( 'NONE',  ( -2.478176394252581141E-16, -1.000000000000000000, 0.000000000000000000 ) ) ;
#485 = ORIENTED_EDGE ( 'NONE', *, *, #871, .T. ) ;
#486 = AXIS2_PLACEMENT_3D ( 'NONE', #221, #165, #775 ) ;
#487 = ORIENTED_EDGE ( 'NONE', *, *, #978, .T. ) ;
#488 = EDGE_LOOP ( 'NONE', ( #432, #476, #756, #213 ) ) ;
#489 = CARTESIAN_POINT ( 'NONE',  ( 0.000000000000000000, 7.000000000000000000, 1.500000000000000000 ) ) ;
#490 = AXIS2_PLACEMENT_3D ( 'NONE', #682, #763, #696 ) ;
#491 = ORIENTED_EDGE ( 'NONE', *, *, #57, .F. ) ;
#492 = VERTEX_POINT ( 'NONE', #534 ) ;
#493 = CARTESIAN_POINT ( 'NONE',  ( 6.349999999999998757, 6.999999999999999112, -3.500000000000000000 ) ) ;
#494 = VECTOR ( 'NONE', #743, 1000.000000000000000 ) ;
#495 = ORIENTED_EDGE ( 'NONE', *, *, #929, .F. ) ;
#496 = CARTESIAN_POINT ( 'NONE',  ( -7.349999999999998757, 7.000000000000000888, -2.500000000000000000 ) ) ;
#497 = EDGE_CURVE ( 'NONE', #798, #325, #878, .T. ) ;
#498 = FACE_OUTER_BOUND ( 'NONE', #406, .T. ) ;
#499 = CARTESIAN_POINT ( 'NONE',  ( -15.00000000000000000, 20.00000000000000355, -2.500000000000000000 ) ) ;
#500 = ORIENTED_EDGE ( 'NONE', *, *, #913, .T. ) ;
#501 = CARTESIAN_POINT ( 'NONE',  ( -14.00000000000000533, 1.000000000000000000, -2.500000000000000000 ) ) ;
#502 = VECTOR ( 'NONE', #933, 1000.000000000000000 ) ;
#503 = LINE ( 'NONE', #579, #651 ) ;
#504 = VECTOR ( 'NONE', #239, 1000.000000000000000 ) ;
#505 = ORIENTED_EDGE ( 'NONE', *, *, #150, .F. ) ;
#506 = EDGE_CURVE ( 'NONE', #78, #361, #80, .T. ) ;
#507 = DIRECTION ( 'NONE',  ( 1.000000000000000000, 0.000000000000000000, 0.000000000000000000 ) ) ;
#508 = CARTESIAN_POINT ( 'NONE',  ( 7.350000000000002309, 3.500000000000000000, 1.500000000000000000 ) ) ;
#509 = EDGE_CURVE ( 'NONE', #278, #883, #168, .T. ) ;
#510 = EDGE_LOOP ( 'NONE', ( #495, #602, #261, #535 ) ) ;
#511 = VERTEX_POINT ( 'NONE', #690 ) ;
#512 = AXIS2_PLACEMENT_3D ( 'NONE', #496, #691, #19 ) ;
#513 = ORIENTED_EDGE ( 'NONE', *, *, #783, .F. ) ;
#514 = CARTESIAN_POINT ( 'NONE',  ( -9.349999999999997868, -9.268379714504644454E-15, 1.500000000000000000 ) ) ;
#515 = CARTESIAN_POINT ( 'NONE',  ( -6.349999999999998757, 6.999999999999999112, 1.500000000000000000 ) ) ;
#516 = ORIENTED_EDGE ( 'NONE', *, *, #733, .F. ) ;
#517 = ORIENTED_EDGE ( 'NONE', *, *, #541, .T. ) ;
#518 = CIRCLE ( 'NONE', #106, 9.350000000000004974 ) ;
#519 = CARTESIAN_POINT ( 'NONE',  ( 0.000000000000000000, 7.000000000000000000, 1.500000000000000000 ) ) ;
#520 = SURFACE_STYLE_USAGE ( .BOTH. , #130 ) ;
#521 = ADVANCED_FACE ( 'NONE', ( #16 ), #844, .T. ) ;
#522 = EDGE_LOOP ( 'NONE', ( #897, #336, #183 ) ) ;
#523 = VECTOR ( 'NONE', #650, 1000.000000000000000 ) ;
#524 =( GEOMETRIC_REPRESENTATION_CONTEXT ( 3 ) GLOBAL_UNCERTAINTY_ASSIGNED_CONTEXT ( ( #821 ) ) GLOBAL_UNIT_ASSIGNED_CONTEXT ( ( #137, #143, #125 ) ) REPRESENTATION_CONTEXT ( 'NONE', 'WORKASPACE' ) );
#525 = CARTESIAN_POINT ( 'NONE',  ( -14.00000000000000000, 21.00000000000000355, 0.000000000000000000 ) ) ;
#526 = ADVANCED_FACE ( 'NONE', ( #22 ), #158, .F. ) ;
#527 = EDGE_LOOP ( 'NONE', ( #97, #591, #874, #257 ) ) ;
#528 = AXIS2_PLACEMENT_3D ( 'NONE', #195, #734, #200 ) ;
#529 = CARTESIAN_POINT ( 'NONE',  ( -15.00000000000000533, 1.000000000000000000, -3.500000000000000000 ) ) ;
#530 = LINE ( 'NONE', #694, #199 ) ;
#531 = LINE ( 'NONE', #841, #99 ) ;
#532 = FACE_OUTER_BOUND ( 'NONE', #488, .T. ) ;
#533 = VECTOR ( 'NONE', #543, 1000.000000000000000 ) ;
#534 = CARTESIAN_POINT ( 'NONE',  ( 7.350000000000002309, 3.500000000000000000, 0.000000000000000000 ) ) ;
#535 = ORIENTED_EDGE ( 'NONE', *, *, #776, .T. ) ;
#536 = LINE ( 'NONE', #847, #25 ) ;
#537 = VECTOR ( 'NONE', #88, 1000.000000000000000 ) ;
#538 = PRODUCT_RELATED_PRODUCT_CATEGORY ( 'part', '', ( #770 ) ) ;
#539 = DIRECTION ( 'NONE',  ( 0.000000000000000000, 0.000000000000000000, 1.000000000000000000 ) ) ;
#540 = CARTESIAN_POINT ( 'NONE',  ( 9.349999999999997868, -9.268379714504652343E-15, 0.000000000000000000 ) ) ;
#541 = EDGE_CURVE ( 'NONE', #799, #356, #384, .T. ) ;
#542 = PLANE ( 'NONE',  #964 ) ;
#543 = DIRECTION ( 'NONE',  ( -0.000000000000000000, -0.000000000000000000, -1.000000000000000000 ) ) ;
#544 = DIRECTION ( 'NONE',  ( -0.000000000000000000, 0.000000000000000000, 1.000000000000000000 ) ) ;
#545 = LINE ( 'NONE', #481, #38 ) ;
#546 = AXIS2_PLACEMENT_3D ( 'NONE', #869, #882, #944 ) ;
#547 = CARTESIAN_POINT ( 'NONE',  ( 0.000000000000000000, 0.000000000000000000, 0.000000000000000000 ) ) ;
#548 = FACE_OUTER_BOUND ( 'NONE', #527, .T. ) ;
#549 = ORIENTED_EDGE ( 'NONE', *, *, #50, .T. ) ;
#550 = DIRECTION ( 'NONE',  ( 3.304235192336776498E-16, -1.000000000000000000, 0.000000000000000000 ) ) ;
#551 = ORIENTED_EDGE ( 'NONE', *, *, #695, .F. ) ;
#552 = APPLICATION_PROTOCOL_DEFINITION ( 'draft international standard', 'automotive_design', 1998, #321 ) ;
#553 = EDGE_CURVE ( 'NONE', #793, #811, #569, .T. ) ;
#554 = DIRECTION ( 'NONE',  ( 1.000000000000000000, 0.000000000000000000, 0.000000000000000000 ) ) ;
#555 = LINE ( 'NONE', #182, #398 ) ;
#556 = MECHANICAL_DESIGN_GEOMETRIC_PRESENTATION_REPRESENTATION (  '', ( #11 ), #816 ) ;
#557 = CARTESIAN_POINT ( 'NONE',  ( 6.349999999999998757, 6.999999999999999112, -2.500000000000000000 ) ) ;
#558 = DIRECTION ( 'NONE',  ( 0.000000000000000000, 0.000000000000000000, -1.000000000000000000 ) ) ;
#559 = EDGE_LOOP ( 'NONE', ( #209, #974 ) ) ;
#560 = EDGE_CURVE ( 'NONE', #812, #482, #530, .T. ) ;
#561 = ORIENTED_EDGE ( 'NONE', *, *, #214, .F. ) ;
#562 = EDGE_LOOP ( 'NONE', ( #845, #750, #561 ) ) ;
#563 = DIRECTION ( 'NONE',  ( 1.000000000000000000, 0.000000000000000000, 0.000000000000000000 ) ) ;
#564 = ORIENTED_EDGE ( 'NONE', *, *, #885, .T. ) ;
#565 = ORIENTED_EDGE ( 'NONE', *, *, #881, .F. ) ;
#566 = VERTEX_POINT ( 'NONE', #777 ) ;
#567 = ORIENTED_EDGE ( 'NONE', *, *, #411, .F. ) ;
#568 = DIRECTION ( 'NONE',  ( 1.000000000000000000, 0.000000000000000000, 0.000000000000000000 ) ) ;
#569 = CIRCLE ( 'NONE', #634, 7.349999999999998757 ) ;
#570 = CARTESIAN_POINT ( 'NONE',  ( 6.776464148334709670, 6.559869007925122730, -3.338268542540051786 ) ) ;
#571 = VECTOR ( 'NONE', #484, 1000.000000000000000 ) ;
#572 = EDGE_CURVE ( 'NONE', #472, #941, #96, .T. ) ;
#573 = EDGE_LOOP ( 'NONE', ( #717, #597, #410, #710, #905, #879 ) ) ;
#574 = DIRECTION ( 'NONE',  ( -1.000000000000000000, 9.912705577010326536E-16, 0.000000000000000000 ) ) ;
#575 = CARTESIAN_POINT ( 'NONE',  ( -6.388457209494411870, 6.961726001972923683, -2.809141127137970262 ) ) ;
#576 = DIRECTION ( 'NONE',  ( -1.000000000000000000, 0.000000000000000000, -0.000000000000000000 ) ) ;
#577 = ORIENTED_EDGE ( 'NONE', *, *, #497, .F. ) ;
#578 = DIRECTION ( 'NONE',  ( 0.000000000000000000, 0.000000000000000000, 1.000000000000000000 ) ) ;
#579 = CARTESIAN_POINT ( 'NONE',  ( 13.99999999999999822, 20.99999999999999645, -3.500000000000000000 ) ) ;
#580 = ORIENTED_EDGE ( 'NONE', *, *, #389, .T. ) ;
#581 = SPHERICAL_SURFACE ( 'NONE', #238, 1.000000000000000000 ) ;
#582 = AXIS2_PLACEMENT_3D ( 'NONE', #86, #306, #468 ) ;
#583 = CARTESIAN_POINT ( 'NONE',  ( 14.00000000000000533, 9.184850993605253208E-17, 0.000000000000000000 ) ) ;
#584 = EDGE_CURVE ( 'NONE', #482, #986, #36, .T. ) ;
#585 = DIRECTION ( 'NONE',  ( 0.000000000000000000, -0.000000000000000000, 1.000000000000000000 ) ) ;
#586 = AXIS2_PLACEMENT_3D ( 'NONE', #681, #459, #760 ) ;
#587 = EDGE_CURVE ( 'NONE', #511, #728, #17, .T. ) ;
#588 = DIRECTION ( 'NONE',  ( 1.000000000000000000, 0.000000000000000000, -0.000000000000000000 ) ) ;
#589 = AXIS2_PLACEMENT_3D ( 'NONE', #987, #215, #456 ) ;
#590 = ORIENTED_EDGE ( 'NONE', *, *, #315, .T. ) ;
#591 = ORIENTED_EDGE ( 'NONE', *, *, #871, .F. ) ;
#592 = LINE ( 'NONE', #893, #494 ) ;
#593 = UNCERTAINTY_MEASURE_WITH_UNIT (LENGTH_MEASURE( 1.000000000000000082E-05 ), #450, 'distance_accuracy_value', 'NONE');
#594 = CYLINDRICAL_SURFACE ( 'NONE', #230, 1.000000000000000000 ) ;
#595 = CARTESIAN_POINT ( 'NONE',  ( -7.349999999999998757, 7.000000000000000888, -3.500000000000000000 ) ) ;
#596 = EDGE_LOOP ( 'NONE', ( #947, #919, #517, #428 ) ) ;
#597 = ORIENTED_EDGE ( 'NONE', *, *, #677, .T. ) ;
#598 = DIRECTION ( 'NONE',  ( -1.000000000000000000, 0.000000000000000000, 0.000000000000000000 ) ) ;
#599 = EDGE_CURVE ( 'NONE', #957, #742, #194, .T. ) ;
#600 = LINE ( 'NONE', #59, #68 ) ;
#601 = CARTESIAN_POINT ( 'NONE',  ( 13.99999999999999822, 19.99999999999999645, 0.000000000000000000 ) ) ;
#602 = ORIENTED_EDGE ( 'NONE', *, *, #587, .T. ) ;
#603 = EDGE_LOOP ( 'NONE', ( #84, #675, #18, #549 ) ) ;
#604 =( NAMED_UNIT ( * ) SI_UNIT ( $, .STERADIAN. ) SOLID_ANGLE_UNIT ( ) );
#605 = ADVANCED_FACE ( 'NONE', ( #463 ), #767, .T. ) ;
#606 = CARTESIAN_POINT ( 'NONE',  ( 7.281655031653174071, 5.999999999999999112, -3.500000000000000000 ) ) ;
#607 = ORIENTED_EDGE ( 'NONE', *, *, #320, .F. ) ;
#608 = EDGE_CURVE ( 'NONE', #344, #674, #518, .T. ) ;
#609 = VECTOR ( 'NONE', #123, 1000.000000000000000 ) ;
#610 = LINE ( 'NONE', #529, #359 ) ;
#611 = CARTESIAN_POINT ( 'NONE',  ( 0.000000000000000000, 7.000000000000000000, 1.500000000000000000 ) ) ;
#612 = ORIENTED_EDGE ( 'NONE', *, *, #271, .F. ) ;
#613 = LINE ( 'NONE', #3, #102 ) ;
#614 = DIRECTION ( 'NONE',  ( 0.000000000000000000, 0.000000000000000000, 1.000000000000000000 ) ) ;
#615 = DIRECTION ( 'NONE',  ( -0.000000000000000000, 0.000000000000000000, 1.000000000000000000 ) ) ;
#616 = ORIENTED_EDGE ( 'NONE', *, *, #57, .T. ) ;
#617 = SURFACE_STYLE_USAGE ( .BOTH. , #9 ) ;
#618 = FACE_OUTER_BOUND ( 'NONE', #632, .T. ) ;
#619 = CARTESIAN_POINT ( 'NONE',  ( 0.000000000000000000, 7.000000000000000000, -3.500000000000000000 ) ) ;
#620 = DIRECTION ( 'NONE',  ( -0.000000000000000000, 0.000000000000000000, -1.000000000000000000 ) ) ;
#621 = AXIS2_PLACEMENT_3D ( 'NONE', #852, #623, #240 ) ;
#622 = CARTESIAN_POINT ( 'NONE',  ( -14.00000000000000000, 21.00000000000000355, -2.500000000000000000 ) ) ;
#623 = DIRECTION ( 'NONE',  ( 0.000000000000000000, 0.000000000000000000, -1.000000000000000000 ) ) ;
#624 = CARTESIAN_POINT ( 'NONE',  ( 14.00000000000000533, 4.625929269271489266E-15, -3.500000000000000000 ) ) ;
#625 = LINE ( 'NONE', #766, #502 ) ;
#626 = DIRECTION ( 'NONE',  ( -1.000000000000000000, 0.000000000000000000, 0.000000000000000000 ) ) ;
#627 = CARTESIAN_POINT ( 'NONE',  ( 14.99999999999999822, 19.99999999999999645, 0.000000000000000000 ) ) ;
#628 = EDGE_CURVE ( 'NONE', #728, #793, #174, .T. ) ;
#629 = AXIS2_PLACEMENT_3D ( 'NONE', #243, #6, #173 ) ;
#630 = CARTESIAN_POINT ( 'NONE',  ( 7.076041685327123965, 6.233258926395835786, -3.479605781872270764 ) ) ;
#631 = AXIS2_PLACEMENT_3D ( 'NONE', #849, #10, #301 ) ;
#632 = EDGE_LOOP ( 'NONE', ( #370, #635, #290, #564 ) ) ;
#633 = FACE_OUTER_BOUND ( 'NONE', #573, .T. ) ;
#634 = AXIS2_PLACEMENT_3D ( 'NONE', #619, #700, #772 ) ;
#635 = ORIENTED_EDGE ( 'NONE', *, *, #795, .T. ) ;
#636 = CIRCLE ( 'NONE', #461, 1.000000000000000888 ) ;
#637 = CARTESIAN_POINT ( 'NONE',  ( 6.349999999999998757, 6.999999999999999112, -2.500000000000000000 ) ) ;
#638 = DIRECTION ( 'NONE',  ( -0.000000000000000000, 0.000000000000000000, 1.000000000000000000 ) ) ;
#639 = EDGE_LOOP ( 'NONE', ( #234, #127, #779, #8 ) ) ;
#640 = VERTEX_POINT ( 'NONE', #499 ) ;
#641 = CARTESIAN_POINT ( 'NONE',  ( 14.00000000000000533, 4.625929269271489266E-15, -2.500000000000000000 ) ) ;
#642 = DIRECTION ( 'NONE',  ( 0.000000000000000000, 1.000000000000000000, 0.000000000000000000 ) ) ;
#643 = VERTEX_POINT ( 'NONE', #334 ) ;
#644 = CARTESIAN_POINT ( 'NONE',  ( -0.000000000000000000, 6.999999999999999112, 0.000000000000000000 ) ) ;
#645 = EDGE_CURVE ( 'NONE', #908, #812, #692, .T. ) ;
#646 = ORIENTED_EDGE ( 'NONE', *, *, #480, .F. ) ;
#647 = ORIENTED_EDGE ( 'NONE', *, *, #164, .T. ) ;
#648 = DIRECTION ( 'NONE',  ( -9.912705577010326536E-16, -1.000000000000000000, 0.000000000000000000 ) ) ;
#649 = DIRECTION ( 'NONE',  ( 1.000000000000000000, 0.000000000000000000, 0.000000000000000000 ) ) ;
#650 = DIRECTION ( 'NONE',  ( -3.304235192336776498E-16, 1.000000000000000000, -0.000000000000000000 ) ) ;
#651 = VECTOR ( 'NONE', #661, 1000.000000000000000 ) ;
#652 = AXIS2_PLACEMENT_3D ( 'NONE', #703, #773, #558 ) ;
#653 = DIRECTION ( 'NONE',  ( -0.000000000000000000, -0.000000000000000000, -1.000000000000000000 ) ) ;
#654 = CYLINDRICAL_SURFACE ( 'NONE', #829, 2.000000000000000000 ) ;
#655 = CARTESIAN_POINT ( 'NONE',  ( 9.350000000000003197, 5.499999999999998224, 0.000000000000000000 ) ) ;
#656 = ORIENTED_EDGE ( 'NONE', *, *, #599, .F. ) ;
#657 = FACE_OUTER_BOUND ( 'NONE', #423, .T. ) ;
#658 = CARTESIAN_POINT ( 'NONE',  ( 13.99999999999999822, 19.99999999999999645, -3.500000000000000000 ) ) ;
#659 = ADVANCED_FACE ( 'NONE', ( #266 ), #116, .T. ) ;
#660 = B_SPLINE_CURVE_WITH_KNOTS ( 'NONE', 3,
 ( #69, #265, #62, #822, #367, #437, #358, #575, #729, #814 ),
 .UNSPECIFIED., .F., .F.,
 ( 4, 2, 2, 2, 4 ),
 ( -6.354177263830802396E-06, 0.0004591790151008081256, 0.0009247122074654471171, 0.001390245399830085946, 0.001855778592194724883 ),
 .UNSPECIFIED. ) ;
#661 = DIRECTION ( 'NONE',  ( -0.000000000000000000, -0.000000000000000000, -1.000000000000000000 ) ) ;
#662 = ORIENTED_EDGE ( 'NONE', *, *, #881, .T. ) ;
#663 = ORIENTED_EDGE ( 'NONE', *, *, #420, .F. ) ;
#664 = DIRECTION ( 'NONE',  ( -1.000000000000000000, 0.000000000000000000, 0.000000000000000000 ) ) ;
#665 = MECHANICAL_DESIGN_GEOMETRIC_PRESENTATION_REPRESENTATION (  '', ( #276 ), #524 ) ;
#666 = DIRECTION ( 'NONE',  ( -1.000000000000000000, 0.000000000000000000, 0.000000000000000000 ) ) ;
#667 = TOROIDAL_SURFACE ( 'NONE', #232, 7.349999999999998757, 1.000000000000000000 ) ;
#668 = ADVANCED_FACE ( 'NONE', ( #31 ), #937, .T. ) ;
#669 = ORIENTED_EDGE ( 'NONE', *, *, #560, .T. ) ;
#670 = ORIENTED_EDGE ( 'NONE', *, *, #150, .T. ) ;
#671 = CYLINDRICAL_SURFACE ( 'NONE', #87, 6.349999999999998757 ) ;
#672 = DIRECTION ( 'NONE',  ( 1.000000000000000000, 0.000000000000000000, 0.000000000000000000 ) ) ;
#673 = DIRECTION ( 'NONE',  ( 1.000000000000000000, 0.000000000000000000, 0.000000000000000000 ) ) ;
#674 = VERTEX_POINT ( 'NONE', #181 ) ;
#675 = ORIENTED_EDGE ( 'NONE', *, *, #300, .T. ) ;
#676 = LINE ( 'NONE', #369, #731 ) ;
#677 = EDGE_CURVE ( 'NONE', #941, #362, #824, .T. ) ;
#678 = EDGE_LOOP ( 'NONE', ( #331, #208 ) ) ;
#679 = DIRECTION ( 'NONE',  ( 0.000000000000000000, 0.000000000000000000, -1.000000000000000000 ) ) ;
#680 = DIRECTION ( 'NONE',  ( 0.000000000000000000, 0.000000000000000000, -1.000000000000000000 ) ) ;
#681 = CARTESIAN_POINT ( 'NONE',  ( -14.00000000000000000, 20.00000000000000355, -2.500000000000000000 ) ) ;
#682 = CARTESIAN_POINT ( 'NONE',  ( -14.00000000000000000, 20.00000000000000355, -2.500000000000000000 ) ) ;
#683 = ADVANCED_FACE ( 'NONE', ( #250 ), #295, .T. ) ;
#684 = LINE ( 'NONE', #167, #533 ) ;
#685 = CARTESIAN_POINT ( 'NONE',  ( -14.00000000000000000, 21.00000000000000355, -3.500000000000000000 ) ) ;
#686 = EDGE_LOOP ( 'NONE', ( #656, #749, #189, #801 ) ) ;
#687 = ADVANCED_FACE ( 'NONE', ( #787 ), #708, .F. ) ;
#688 = DIRECTION ( 'NONE',  ( 1.000000000000000000, 0.000000000000000000, 0.000000000000000000 ) ) ;
#689 = EDGE_CURVE ( 'NONE', #728, #904, #405, .T. ) ;
#690 = CARTESIAN_POINT ( 'NONE',  ( -6.349999999999998757, 6.999999999999999112, -2.500000000000000000 ) ) ;
#691 = DIRECTION ( 'NONE',  ( 1.224646799147353207E-16, 1.000000000000000000, 0.000000000000000000 ) ) ;
#692 = CIRCLE ( 'NONE', #93, 1.000000000000000888 ) ;
#693 = CARTESIAN_POINT ( 'NONE',  ( -15.00000000000000533, 1.000000000000000222, 0.000000000000000000 ) ) ;
#694 = CARTESIAN_POINT ( 'NONE',  ( -0.000000000000000000, 9.184850993605253208E-17, 0.000000000000000000 ) ) ;
#695 = EDGE_CURVE ( 'NONE', #492, #798, #41, .T. ) ;
#696 = DIRECTION ( 'NONE',  ( 0.000000000000000000, 0.000000000000000000, 1.000000000000000000 ) ) ;
#697 = VECTOR ( 'NONE', #554, 1000.000000000000000 ) ;
#698 = CIRCLE ( 'NONE', #263, 1.000000000000000888 ) ;
#699 = CARTESIAN_POINT ( 'NONE',  ( 13.99999999999999822, 19.99999999999999645, -2.500000000000000000 ) ) ;
#700 = DIRECTION ( 'NONE',  ( -0.000000000000000000, 0.000000000000000000, 1.000000000000000000 ) ) ;
#701 = ORIENTED_EDGE ( 'NONE', *, *, #255, .F. ) ;
#702 = EDGE_CURVE ( 'NONE', #338, #429, #962, .T. ) ;
#703 = CARTESIAN_POINT ( 'NONE',  ( 7.349999999999998757, 7.000000000000000000, -2.500000000000000000 ) ) ;
#704 = LINE ( 'NONE', #241, #135 ) ;
#705 = CARTESIAN_POINT ( 'NONE',  ( -14.00000000000000533, 1.000000000000000000, 0.000000000000000000 ) ) ;
#706 = DIRECTION ( 'NONE',  ( 1.000000000000000000, 0.000000000000000000, 0.000000000000000000 ) ) ;
#707 = EDGE_LOOP ( 'NONE', ( #146, #663, #40, #121 ) ) ;
#708 = PLANE ( 'NONE',  #98 ) ;
#709 = CIRCLE ( 'NONE', #774, 1.000000000000000000 ) ;
#710 = ORIENTED_EDGE ( 'NONE', *, *, #497, .T. ) ;
#711 = LINE ( 'NONE', #470, #831 ) ;
#712 = COLOUR_RGB ( '',0.7921568627450980005, 0.8196078431372548767, 0.9333333333333333481 ) ;
#713 = ORIENTED_EDGE ( 'NONE', *, *, #509, .T. ) ;
#714 = AXIS2_PLACEMENT_3D ( 'NONE', #716, #638, #706 ) ;
#715 = CARTESIAN_POINT ( 'NONE',  ( -9.349999999999997868, -9.268379714504644454E-15, 1.500000000000000000 ) ) ;
#716 = CARTESIAN_POINT ( 'NONE',  ( 0.000000000000000000, 7.000000000000000000, -3.500000000000000000 ) ) ;
#717 = ORIENTED_EDGE ( 'NONE', *, *, #74, .T. ) ;
#718 = ORIENTED_EDGE ( 'NONE', *, *, #762, .F. ) ;
#719 = EDGE_CURVE ( 'NONE', #819, #904, #337, .T. ) ;
#720 = AXIS2_PLACEMENT_3D ( 'NONE', #805, #966, #433 ) ;
#721 = DIRECTION ( 'NONE',  ( 1.000000000000000000, 9.912705577010318647E-16, -0.000000000000000000 ) ) ;
#722 = VERTEX_POINT ( 'NONE', #105 ) ;
#723 = CARTESIAN_POINT ( 'NONE',  ( -14.00000000000000533, 1.000000000000000000, -2.500000000000000000 ) ) ;
#724 = ORIENTED_EDGE ( 'NONE', *, *, #131, .T. ) ;
#725 = APPLICATION_PROTOCOL_DEFINITION ( 'draft international standard', 'automotive_design', 1998, #440 ) ;
#726 = CARTESIAN_POINT ( 'NONE',  ( 13.99999999999999822, 19.99999999999999645, -3.500000000000000000 ) ) ;
#727 =( GEOMETRIC_REPRESENTATION_CONTEXT ( 3 ) GLOBAL_UNCERTAINTY_ASSIGNED_CONTEXT ( ( #443 ) ) GLOBAL_UNIT_ASSIGNED_CONTEXT ( ( #342, #424, #864 ) ) REPRESENTATION_CONTEXT ( 'NONE', 'WORKASPACE' ) );
#728 = VERTEX_POINT ( 'NONE', #557 ) ;
#729 = CARTESIAN_POINT ( 'NONE',  ( -6.349999999999998757, 6.999999999999998224, -2.657592548529378540 ) ) ;
#730 = DIRECTION ( 'NONE',  ( 1.000000000000000000, -2.312964634635742957E-16, 0.000000000000000000 ) ) ;
#731 = VECTOR ( 'NONE', #292, 1000.000000000000000 ) ;
#732 = ORIENTED_EDGE ( 'NONE', *, *, #131, .F. ) ;
#733 = EDGE_CURVE ( 'NONE', #753, #825, #110, .T. ) ;
#734 = DIRECTION ( 'NONE',  ( 0.000000000000000000, 0.000000000000000000, -1.000000000000000000 ) ) ;
#735 = DIRECTION ( 'NONE',  ( -0.000000000000000000, 0.000000000000000000, -1.000000000000000000 ) ) ;
#736 = CARTESIAN_POINT ( 'NONE',  ( 0.000000000000000000, 3.500000000000000000, 1.500000000000000000 ) ) ;
#737 = ORIENTED_EDGE ( 'NONE', *, *, #645, .T. ) ;
#738 = FILL_AREA_STYLE_COLOUR ( '', #768 ) ;
#739 = CARTESIAN_POINT ( 'NONE',  ( -7.350000000000002309, 5.500000000000000000, 1.500000000000000000 ) ) ;
#740 = DIRECTION ( 'NONE',  ( 1.000000000000000000, 0.000000000000000000, 0.000000000000000000 ) ) ;
#741 = EDGE_CURVE ( 'NONE', #566, #643, #262, .T. ) ;
#742 = VERTEX_POINT ( 'NONE', #902 ) ;
#743 = DIRECTION ( 'NONE',  ( 9.912705577010318647E-16, -1.000000000000000000, 0.000000000000000000 ) ) ;
#744 = VECTOR ( 'NONE', #842, 1000.000000000000000 ) ;
#745 = PRESENTATION_LAYER_ASSIGNMENT (  '', '', ( #276 ) ) ;
#746 = FACE_OUTER_BOUND ( 'NONE', #935, .T. ) ;
#747 = VECTOR ( 'NONE', #890, 1000.000000000000000 ) ;
#748 = VECTOR ( 'NONE', #107, 1000.000000000000000 ) ;
#749 = ORIENTED_EDGE ( 'NONE', *, *, #886, .F. ) ;
#750 = ORIENTED_EDGE ( 'NONE', *, *, #302, .T. ) ;
#751 = DIRECTION ( 'NONE',  ( -0.000000000000000000, 1.000000000000000000, 0.000000000000000000 ) ) ;
#752 = DIRECTION ( 'NONE',  ( -0.000000000000000000, 0.000000000000000000, 1.000000000000000000 ) ) ;
#753 = VERTEX_POINT ( 'NONE', #984 ) ;
#754 = CARTESIAN_POINT ( 'NONE',  ( 9.350000000000003197, 5.499999999999998224, 1.500000000000000000 ) ) ;
#755 = DIRECTION ( 'NONE',  ( 1.000000000000000000, 0.000000000000000000, 0.000000000000000000 ) ) ;
#756 = ORIENTED_EDGE ( 'NONE', *, *, #702, .T. ) ;
#757 = FACE_OUTER_BOUND ( 'NONE', #522, .T. ) ;
#758 = VECTOR ( 'NONE', #392, 1000.000000000000000 ) ;
#759 = DIRECTION ( 'NONE',  ( -1.000000000000000000, 0.000000000000000000, -0.000000000000000000 ) ) ;
#760 = DIRECTION ( 'NONE',  ( 0.000000000000000000, 0.000000000000000000, 1.000000000000000000 ) ) ;
#761 = ORIENTED_EDGE ( 'NONE', *, *, #886, .T. ) ;
#762 = EDGE_CURVE ( 'NONE', #73, #338, #503, .T. ) ;
#763 = DIRECTION ( 'NONE',  ( 1.000000000000000000, -0.000000000000000000, -0.000000000000000000 ) ) ;
#764 = ADVANCED_FACE ( 'NONE', ( #746 ), #446, .F. ) ;
#765 = AXIS2_PLACEMENT_3D ( 'NONE', #435, #71, #673 ) ;
#766 = CARTESIAN_POINT ( 'NONE',  ( 9.350000000000004974, 7.000000000000000000, 1.500000000000000000 ) ) ;
#767 = CYLINDRICAL_SURFACE ( 'NONE', #1, 1.000000000000000888 ) ;
#768 = COLOUR_RGB ( '',0.7921568627450980005, 0.8196078431372548767, 0.9333333333333333481 ) ;
#769 = DIRECTION ( 'NONE',  ( -0.000000000000000000, 0.000000000000000000, 1.000000000000000000 ) ) ;
#770 = PRODUCT ( 'Bladder_Mold_Cap', 'Bladder_Mold_Cap', '', ( #955 ) ) ;
#771 = EDGE_CURVE ( 'NONE', #219, #73, #471, .T. ) ;
#772 = DIRECTION ( 'NONE',  ( 1.000000000000000000, 0.000000000000000000, 0.000000000000000000 ) ) ;
#773 = DIRECTION ( 'NONE',  ( 0.000000000000000000, -1.000000000000000000, 0.000000000000000000 ) ) ;
#774 = AXIS2_PLACEMENT_3D ( 'NONE', #858, #649, #413 ) ;
#775 = DIRECTION ( 'NONE',  ( 1.000000000000000000, -8.673617379884035472E-16, 0.000000000000000000 ) ) ;
#776 = EDGE_CURVE ( 'NONE', #904, #819, #172, .T. ) ;
#777 = CARTESIAN_POINT ( 'NONE',  ( -14.00000000000000533, 9.184850993605253208E-17, -2.500000000000000000 ) ) ;
#778 = MANIFOLD_SOLID_BREP ( 'lip corner fillet', #835 ) ;
#779 = ORIENTED_EDGE ( 'NONE', *, *, #309, .F. ) ;
#780 = CARTESIAN_POINT ( 'NONE',  ( 0.000000000000000000, 0.000000000000000000, 1.500000000000000000 ) ) ;
#781 = ORIENTED_EDGE ( 'NONE', *, *, #396, .T. ) ;
#782 = VECTOR ( 'NONE', #176, 1000.000000000000000 ) ;
#783 = EDGE_CURVE ( 'NONE', #957, #73, #676, .T. ) ;
#784 = DIRECTION ( 'NONE',  ( 1.000000000000000000, 0.000000000000000000, 0.000000000000000000 ) ) ;
#785 = LINE ( 'NONE', #324, #782 ) ;
#786 = VECTOR ( 'NONE', #932, 1000.000000000000000 ) ;
#787 = FACE_OUTER_BOUND ( 'NONE', #184, .T. ) ;
#788 = ORIENTED_EDGE ( 'NONE', *, *, #553, .F. ) ;
#789 = PLANE ( 'NONE',  #70 ) ;
#790 = DIRECTION ( 'NONE',  ( 0.000000000000000000, 0.000000000000000000, -1.000000000000000000 ) ) ;
#791 = CIRCLE ( 'NONE', #486, 2.000000000000000000 ) ;
#792 = FACE_BOUND ( 'NONE', #559, .T. ) ;
#793 = VERTEX_POINT ( 'NONE', #606 ) ;
#794 = ORIENTED_EDGE ( 'NONE', *, *, #242, .F. ) ;
#795 = EDGE_CURVE ( 'NONE', #742, #640, #54, .T. ) ;
#796 = VECTOR ( 'NONE', #76, 1000.000000000000000 ) ;
#797 = DIRECTION ( 'NONE',  ( 1.000000000000000000, 0.000000000000000000, 0.000000000000000000 ) ) ;
#798 = VERTEX_POINT ( 'NONE', #508 ) ;
#799 = VERTEX_POINT ( 'NONE', #515 ) ;
#800 = LINE ( 'NONE', #624, #786 ) ;
#801 = ORIENTED_EDGE ( 'NONE', *, *, #795, .F. ) ;
#802 = PRESENTATION_LAYER_ASSIGNMENT (  '', '', ( #11 ) ) ;
#803 = DIRECTION ( 'NONE',  ( 1.000000000000000000, 3.304235192336776005E-16, 0.000000000000000000 ) ) ;
#804 = ORIENTED_EDGE ( 'NONE', *, *, #21, .F. ) ;
#805 = CARTESIAN_POINT ( 'NONE',  ( 0.000000000000000000, 6.999999999999999112, -3.500000000000000000 ) ) ;
#806 = DIRECTION ( 'NONE',  ( -0.000000000000000000, 0.000000000000000000, 1.000000000000000000 ) ) ;
#807 = FACE_OUTER_BOUND ( 'NONE', #596, .T. ) ;
#808 = AXIS2_PLACEMENT_3D ( 'NONE', #129, #901, #578 ) ;
#809 = DIRECTION ( 'NONE',  ( 1.000000000000000000, 0.000000000000000000, 0.000000000000000000 ) ) ;
#810 = VECTOR ( 'NONE', #430, 1000.000000000000000 ) ;
#811 = VERTEX_POINT ( 'NONE', #211 ) ;
#812 = VERTEX_POINT ( 'NONE', #891 ) ;
#813 = FACE_OUTER_BOUND ( 'NONE', #707, .T. ) ;
#814 = CARTESIAN_POINT ( 'NONE',  ( -6.349999999999998757, 6.999999999999999112, -2.500000000000000000 ) ) ;
#815 = PRESENTATION_STYLE_ASSIGNMENT (( #520 ) ) ;
#816 =( GEOMETRIC_REPRESENTATION_CONTEXT ( 3 ) GLOBAL_UNCERTAINTY_ASSIGNED_CONTEXT ( ( #593 ) ) GLOBAL_UNIT_ASSIGNED_CONTEXT ( ( #450, #14, #604 ) ) REPRESENTATION_CONTEXT ( 'NONE', 'WORKASPACE' ) );
#817 = ORIENTED_EDGE ( 'NONE', *, *, #645, .F. ) ;
#818 = VERTEX_POINT ( 'NONE', #595 ) ;
#819 = VERTEX_POINT ( 'NONE', #349 ) ;
#820 = CARTESIAN_POINT ( 'NONE',  ( 9.350000000000004974, 7.000000000000000000, 0.000000000000000000 ) ) ;
#821 = UNCERTAINTY_MEASURE_WITH_UNIT (LENGTH_MEASURE( 1.000000000000000082E-05 ), #137, 'distance_accuracy_value', 'NONE');
#822 = CARTESIAN_POINT ( 'NONE',  ( -6.873508906937629170, 6.455718851422404647, -3.397974017224622223 ) ) ;
#823 = CARTESIAN_POINT ( 'NONE',  ( 14.99999999999999822, 19.99999999999999645, -2.500000000000000000 ) ) ;
#824 = CIRCLE ( 'NONE', #862, 2.000000000000000000 ) ;
#825 = VERTEX_POINT ( 'NONE', #823 ) ;
#826 = EDGE_LOOP ( 'NONE', ( #577, #551, #447, #863 ) ) ;
#827 = EDGE_CURVE ( 'NONE', #155, #915, #201, .T. ) ;
#828 = CARTESIAN_POINT ( 'NONE',  ( 13.99999999999999822, 19.99999999999999645, -2.500000000000000000 ) ) ;
#829 = AXIS2_PLACEMENT_3D ( 'NONE', #967, #270, #664 ) ;
#830 = AXIS2_PLACEMENT_3D ( 'NONE', #965, #193, #666 ) ;
#831 = VECTOR ( 'NONE', #100, 1000.000000000000000 ) ;
#832 = VERTEX_POINT ( 'NONE', #655 ) ;
#833 = PRESENTATION_STYLE_ASSIGNMENT (( #617 ) ) ;
#834 = LINE ( 'NONE', #154, #909 ) ;
#835 = CLOSED_SHELL ( 'NONE', ( #109, #454, #687, #103, #119, #848, #236, #857, #426, #408 ) ) ;
#836 = EDGE_LOOP ( 'NONE', ( #954, #371, #612 ) ) ;
#837 = FACE_OUTER_BOUND ( 'NONE', #65, .T. ) ;
#838 = CARTESIAN_POINT ( 'NONE',  ( -6.349999999999998757, 6.999999999999999112, 0.000000000000000000 ) ) ;
#839 = LINE ( 'NONE', #540, #504 ) ;
#840 = EDGE_CURVE ( 'NONE', #825, #219, #968, .T. ) ;
#841 = CARTESIAN_POINT ( 'NONE',  ( 15.00000000000000533, 4.956352788505165832E-15, 0.000000000000000000 ) ) ;
#842 = DIRECTION ( 'NONE',  ( 0.000000000000000000, 0.000000000000000000, 1.000000000000000000 ) ) ;
#843 = CARTESIAN_POINT ( 'NONE',  ( 0.000000000000000000, 6.999999999999999112, 1.500000000000000000 ) ) ;
#844 = TOROIDAL_SURFACE ( 'NONE', #363, 7.349999999999998757, 1.000000000000000000 ) ;
#845 = ORIENTED_EDGE ( 'NONE', *, *, #309, .T. ) ;
#846 = CIRCLE ( 'NONE', #621, 1.000000000000000888 ) ;
#847 = CARTESIAN_POINT ( 'NONE',  ( -6.349999999999998757, 6.999999999999999112, 1.500000000000000000 ) ) ;
#848 = ADVANCED_FACE ( 'NONE', ( #275 ), #58, .F. ) ;
#849 = CARTESIAN_POINT ( 'NONE',  ( 4.625929269271486111E-15, 20.00000000000000000, -2.500000000000000000 ) ) ;
#850 = DIRECTION ( 'NONE',  ( 1.000000000000000000, 0.000000000000000000, 0.000000000000000000 ) ) ;
#851 = AXIS2_PLACEMENT_3D ( 'NONE', #347, #422, #598 ) ;
#852 = CARTESIAN_POINT ( 'NONE',  ( -13.99999999999999822, 20.00000000000000355, -2.500000000000000000 ) ) ;
#853 = DIRECTION ( 'NONE',  ( -0.000000000000000000, 0.000000000000000000, 1.000000000000000000 ) ) ;
#854 = DIRECTION ( 'NONE',  ( 1.000000000000000000, 0.000000000000000000, 0.000000000000000000 ) ) ;
#855 = ORIENTED_EDGE ( 'NONE', *, *, #628, .T. ) ;
#856 = CARTESIAN_POINT ( 'NONE',  ( 13.99999999999999822, 19.99999999999999645, -2.500000000000000000 ) ) ;
#857 = ADVANCED_FACE ( 'NONE', ( #896, #202 ), #438, .F. ) ;
#858 = CARTESIAN_POINT ( 'NONE',  ( 14.00000000000000533, 1.000000000000000000, -2.500000000000000000 ) ) ;
#859 = DIRECTION ( 'NONE',  ( 1.000000000000000000, 0.000000000000000000, 0.000000000000000000 ) ) ;
#860 = EDGE_LOOP ( 'NONE', ( #280, #804, #946, #898 ) ) ;
#861 = DIRECTION ( 'NONE',  ( 1.000000000000000000, 0.000000000000000000, 0.000000000000000000 ) ) ;
#862 = AXIS2_PLACEMENT_3D ( 'NONE', #323, #950, #419 ) ;
#863 = ORIENTED_EDGE ( 'NONE', *, *, #164, .F. ) ;
#864 =( NAMED_UNIT ( * ) SI_UNIT ( $, .STERADIAN. ) SOLID_ANGLE_UNIT ( ) );
#865 = CARTESIAN_POINT ( 'NONE',  ( 6.873514672667369041, 6.455712625381150538, -3.397977292412864170 ) ) ;
#866 = ADVANCED_FACE ( 'NONE', ( #383 ), #90, .T. ) ;
#867 = CARTESIAN_POINT ( 'NONE',  ( 0.000000000000000000, 0.000000000000000000, -3.500000000000000000 ) ) ;
#868 = AXIS2_PLACEMENT_3D ( 'NONE', #501, #264, #365 ) ;
#869 = CARTESIAN_POINT ( 'NONE',  ( -14.00000000000000533, 3.469446951953614978E-15, -2.500000000000000000 ) ) ;
#870 = EDGE_CURVE ( 'NONE', #825, #429, #64, .T. ) ;
#871 = EDGE_CURVE ( 'NONE', #674, #361, #684, .T. ) ;
#872 = LINE ( 'NONE', #394, #161 ) ;
#873 = ORIENTED_EDGE ( 'NONE', *, *, #368, .T. ) ;
#874 = ORIENTED_EDGE ( 'NONE', *, *, #608, .F. ) ;
#875 = ORIENTED_EDGE ( 'NONE', *, *, #441, .T. ) ;
#876 = CARTESIAN_POINT ( 'NONE',  ( 6.511840771463483613, 6.836396504575815491, -3.066503573638769797 ) ) ;
#877 = ORIENTED_EDGE ( 'NONE', *, *, #572, .T. ) ;
#878 = CIRCLE ( 'NONE', #448, 2.000000000000000000 ) ;
#879 = ORIENTED_EDGE ( 'NONE', *, *, #608, .T. ) ;
#880 = CIRCLE ( 'NONE', #652, 1.000000000000000000 ) ;
#881 = EDGE_CURVE ( 'NONE', #66, #472, #308, .T. ) ;
#882 = DIRECTION ( 'NONE',  ( 2.478176394252581141E-16, 1.000000000000000000, 0.000000000000000000 ) ) ;
#883 = VERTEX_POINT ( 'NONE', #5 ) ;
#884 = SPHERICAL_SURFACE ( 'NONE', #868, 1.000000000000000000 ) ;
#885 = EDGE_CURVE ( 'NONE', #643, #908, #224, .T. ) ;
#886 = EDGE_CURVE ( 'NONE', #948, #957, #912, .T. ) ;
#887 = DIRECTION ( 'NONE',  ( -0.000000000000000000, 0.000000000000000000, 1.000000000000000000 ) ) ;
#888 = ORIENTED_EDGE ( 'NONE', *, *, #719, .T. ) ;
#889 = CARTESIAN_POINT ( 'NONE',  ( 9.349999999999997868, -9.268379714504652343E-15, 1.500000000000000000 ) ) ;
#890 = DIRECTION ( 'NONE',  ( 0.000000000000000000, 0.000000000000000000, 1.000000000000000000 ) ) ;
#891 = CARTESIAN_POINT ( 'NONE',  ( -14.00000000000000533, 9.184850993605253208E-17, 0.000000000000000000 ) ) ;
#892 = AXIS2_PLACEMENT_3D ( 'NONE', #317, #769, #311 ) ;
#893 = CARTESIAN_POINT ( 'NONE',  ( -9.349999999999997868, -9.268379714504644454E-15, 0.000000000000000000 ) ) ;
#894 = AXIS2_PLACEMENT_3D ( 'NONE', #923, #233, #854 ) ;
#895 = CIRCLE ( 'NONE', #714, 7.349999999999998757 ) ;
#896 = FACE_BOUND ( 'NONE', #678, .T. ) ;
#897 = ORIENTED_EDGE ( 'NONE', *, *, #332, .T. ) ;
#898 = ORIENTED_EDGE ( 'NONE', *, *, #198, .T. ) ;
#899 = PRODUCT_DEFINITION ( 'UNKNOWN', '', #293, #286 ) ;
#900 = DIRECTION ( 'NONE',  ( 2.168404344971010840E-16, 1.000000000000000000, 0.000000000000000000 ) ) ;
#901 = DIRECTION ( 'NONE',  ( -1.000000000000000000, -0.000000000000000000, -0.000000000000000000 ) ) ;
#902 = CARTESIAN_POINT ( 'NONE',  ( -15.00000000000000000, 20.00000000000000355, 0.000000000000000000 ) ) ;
#903 = ADVANCED_FACE ( 'NONE', ( #532 ), #388, .T. ) ;
#904 = VERTEX_POINT ( 'NONE', #917 ) ;
#905 = ORIENTED_EDGE ( 'NONE', *, *, #242, .T. ) ;
#906 = FACE_OUTER_BOUND ( 'NONE', #860, .T. ) ;
#907 = SURFACE_STYLE_FILL_AREA ( #910 ) ;
#908 = VERTEX_POINT ( 'NONE', #693 ) ;
#909 = VECTOR ( 'NONE', #755, 1000.000000000000000 ) ;
#910 = FILL_AREA_STYLE ('',( #360 ) ) ;
#911 = ORIENTED_EDGE ( 'NONE', *, *, #50, .F. ) ;
#912 = LINE ( 'NONE', #927, #758 ) ;
#913 = EDGE_CURVE ( 'NONE', #832, #492, #791, .T. ) ;
#914 = SPHERICAL_SURFACE ( 'NONE', #586, 1.000000000000000000 ) ;
#915 = VERTEX_POINT ( 'NONE', #838 ) ;
#916 = DIRECTION ( 'NONE',  ( -1.000000000000000000, 0.000000000000000000, 0.000000000000000000 ) ) ;
#917 = CARTESIAN_POINT ( 'NONE',  ( 6.349999999999998757, 6.999999999999999112, 0.000000000000000000 ) ) ;
#918 = DIRECTION ( 'NONE',  ( 1.000000000000000000, 0.000000000000000000, 0.000000000000000000 ) ) ;
#919 = ORIENTED_EDGE ( 'NONE', *, *, #198, .F. ) ;
#920 = CARTESIAN_POINT ( 'NONE',  ( 0.000000000000000000, 1.000000000000000000, -2.500000000000000000 ) ) ;
#921 = CIRCLE ( 'NONE', #341, 1.000000000000000888 ) ;
#922 = CARTESIAN_POINT ( 'NONE',  ( 0.000000000000000000, 0.000000000000000000, 0.000000000000000000 ) ) ;
#923 = CARTESIAN_POINT ( 'NONE',  ( 0.000000000000000000, 7.000000000000000000, 0.000000000000000000 ) ) ;
#924 = ORIENTED_EDGE ( 'NONE', *, *, #382, .F. ) ;
#925 = CIRCLE ( 'NONE', #490, 1.000000000000000000 ) ;
#926 = CYLINDRICAL_SURFACE ( 'NONE', #82, 1.000000000000000000 ) ;
#927 = CARTESIAN_POINT ( 'NONE',  ( -14.00000000000000000, 21.00000000000000355, 0.000000000000000000 ) ) ;
#928 = CARTESIAN_POINT ( 'NONE',  ( 7.350000000000002309, 5.500000000000000000, 1.500000000000000000 ) ) ;
#929 = EDGE_CURVE ( 'NONE', #511, #819, #95, .T. ) ;
#930 = VECTOR ( 'NONE', #128, 1000.000000000000000 ) ;
#931 = LINE ( 'NONE', #945, #748 ) ;
#932 = DIRECTION ( 'NONE',  ( 3.304235192336776498E-16, -1.000000000000000000, 0.000000000000000000 ) ) ;
#933 = DIRECTION ( 'NONE',  ( -0.000000000000000000, -0.000000000000000000, -1.000000000000000000 ) ) ;
#934 = DIRECTION ( 'NONE',  ( 1.000000000000000000, 0.000000000000000000, 0.000000000000000000 ) ) ;
#935 = EDGE_LOOP ( 'NONE', ( #268, #938, #873, #761 ) ) ;
#936 = LINE ( 'NONE', #104, #571 ) ;
#937 = CYLINDRICAL_SURFACE ( 'NONE', #244, 1.000000000000000888 ) ;
#938 = ORIENTED_EDGE ( 'NONE', *, *, #762, .T. ) ;
#939 = AXIS2_PLACEMENT_3D ( 'NONE', #611, #474, #859 ) ;
#940 = FACE_BOUND ( 'NONE', #603, .T. ) ;
#941 = VERTEX_POINT ( 'NONE', #27 ) ;
#942 = ADVANCED_FACE ( 'NONE', ( #618 ), #464, .T. ) ;
#943 = ADVANCED_FACE ( 'NONE', ( #157, #160 ), #462, .T. ) ;
#944 = DIRECTION ( 'NONE',  ( -1.000000000000000000, 2.478176394252578676E-16, 0.000000000000000000 ) ) ;
#945 = CARTESIAN_POINT ( 'NONE',  ( -15.00000000000000533, 3.717264591378872796E-15, 0.000000000000000000 ) ) ;
#946 = ORIENTED_EDGE ( 'NONE', *, *, #479, .T. ) ;
#947 = ORIENTED_EDGE ( 'NONE', *, *, #333, .F. ) ;
#948 = VERTEX_POINT ( 'NONE', #622 ) ;
#949 = CARTESIAN_POINT ( 'NONE',  ( 15.00000000000000533, 1.000000000000000444, 0.000000000000000000 ) ) ;
#950 = DIRECTION ( 'NONE',  ( -0.000000000000000000, 0.000000000000000000, 1.000000000000000000 ) ) ;
#951 = CARTESIAN_POINT ( 'NONE',  ( 9.350000000000004974, 7.000000000000000000, 1.500000000000000000 ) ) ;
#952 = ORIENTED_EDGE ( 'NONE', *, *, #144, .T. ) ;
#953 = EDGE_CURVE ( 'NONE', #344, #78, #625, .T. ) ;
#954 = ORIENTED_EDGE ( 'NONE', *, *, #973, .T. ) ;
#955 = PRODUCT_CONTEXT ( 'NONE', #440, 'mechanical' ) ;
#956 = CARTESIAN_POINT ( 'NONE',  ( 15.00000000000000533, 4.956352788505165832E-15, -2.500000000000000000 ) ) ;
#957 = VERTEX_POINT ( 'NONE', #525 ) ;
#958 = ORIENTED_EDGE ( 'NONE', *, *, #840, .T. ) ;
#959 = EDGE_CURVE ( 'NONE', #66, #492, #834, .T. ) ;
#960 = AXIS2_PLACEMENT_3D ( 'NONE', #222, #390, #626 ) ;
#961 = PLANE ( 'NONE',  #206 ) ;
#962 = CIRCLE ( 'NONE', #24, 1.000000000000000000 ) ;
#963 = DIRECTION ( 'NONE',  ( 1.000000000000000000, 0.000000000000000000, 0.000000000000000000 ) ) ;
#964 = AXIS2_PLACEMENT_3D ( 'NONE', #322, #245, #550 ) ;
#965 = CARTESIAN_POINT ( 'NONE',  ( -14.00000000000000533, 1.000000000000000000, -2.500000000000000000 ) ) ;
#966 = DIRECTION ( 'NONE',  ( 0.000000000000000000, -1.000000000000000000, 0.000000000000000000 ) ) ;
#967 = CARTESIAN_POINT ( 'NONE',  ( 7.350000000000002309, 5.500000000000000000, 1.500000000000000000 ) ) ;
#968 = LINE ( 'NONE', #272, #220 ) ;
#969 = EDGE_LOOP ( 'NONE', ( #794, #647, #138, #284 ) ) ;
#970 = SURFACE_STYLE_FILL_AREA ( #122 ) ;
#971 = DIRECTION ( 'NONE',  ( -1.000000000000000000, 2.312964634635742957E-16, -0.000000000000000000 ) ) ;
#972 = CARTESIAN_POINT ( 'NONE',  ( 0.000000000000000000, 7.000000000000000000, 0.000000000000000000 ) ) ;
#973 = EDGE_CURVE ( 'NONE', #753, #203, #921, .T. ) ;
#974 = ORIENTED_EDGE ( 'NONE', *, *, #541, .F. ) ;
#975 = ORIENTED_EDGE ( 'NONE', *, *, #885, .F. ) ;
#976 = LINE ( 'NONE', #281, #930 ) ;
#977 = LINE ( 'NONE', #583, #747 ) ;
#978 = EDGE_CURVE ( 'NONE', #304, #278, #610, .T. ) ;
#979 = CARTESIAN_POINT ( 'NONE',  ( 4.857225732735060653E-15, 21.00000000000000000, -3.500000000000000000 ) ) ;
#980 = EDGE_CURVE ( 'NONE', #203, #304, #709, .T. ) ;
#981 = EDGE_LOOP ( 'NONE', ( #781, #460, #855, #911 ) ) ;
#982 = DIRECTION ( 'NONE',  ( 9.912705577010318647E-16, -1.000000000000000000, 0.000000000000000000 ) ) ;
#983 = CARTESIAN_POINT ( 'NONE',  ( -9.350000000000004974, 7.000000000000002665, 0.000000000000000000 ) ) ;
#984 = CARTESIAN_POINT ( 'NONE',  ( 15.00000000000000533, 1.000000000000000444, -2.500000000000000000 ) ) ;
#985 = AXIS2_PLACEMENT_3D ( 'NONE', #723, #900, #210 ) ;
#986 = VERTEX_POINT ( 'NONE', #949 ) ;
#987 = CARTESIAN_POINT ( 'NONE',  ( 0.000000000000000000, 9.184850993605253208E-17, -3.500000000000000000 ) ) ;
ENDSEC;
END-ISO-10303-21;
